<?xml version="1.0" encoding="UTF-8"?>
<svg width="669px" height="98px" viewBox="0 0 669 98" version="1.1" xmlns="http://www.w3.org/2000/svg"
    xmlns:xlink="http://www.w3.org/1999/xlink">
    <title>Drag It Out</title>
    <desc>wordmark white outline</desc>
    <g id="wordmark-white-outline" transform="translate(0.600251, 0.569527)" fill="#000" fill-rule="evenodd"
        clip-rule="evenodd">
        <g id="Out" transform="translate(446.398993, 0.000000)">
            <path
                d="M214.663836,2.17603985 C212.246555,0.731986007 209.46426,-0.0232081141 206.633973,0.000543495129 L167.900756,0.000473074148 C164.948683,0.0308138127 162.066993,0.76181659 159.4756,2.13256978 C154.058952,4.91577388 150.334878,10.1964262 149.528241,16.2565907 C149.122226,19.0824211 149.520569,21.9863465 150.680776,24.6174253 C151.788453,27.2388764 153.73853,29.4533711 156.225414,30.8994286 C158.599407,32.3093644 161.33,33.0526262 164.109515,33.0404539 L166.66484,33.040464 L160.507343,80.5534303 C160.14203,83.3821586 160.536281,86.2562492 161.649476,88.8812978 C162.745736,91.5319927 164.701932,93.7581528 167.20509,95.1950187 C169.589357,96.5986258 172.329066,97.3400521 175.117635,97.3304612 C178.018541,97.2989376 180.855249,96.5781977 183.406245,95.2282007 C186.127655,93.8353882 188.484376,91.7746983 190.24356,89.2411732 C191.979226,86.8582856 193.102772,84.0339234 193.484427,81.0655188 L199.717939,33.040473 L202.800756,33.040473 C208.866961,32.9190065 214.474323,29.9325668 217.937617,24.9996851 C219.673839,22.6129531 220.825802,19.8136826 221.277702,16.8632716 C221.642516,13.986997 221.250259,11.1179105 220.147628,8.4929256 C219.058565,5.84504397 217.132584,3.62639354 214.663836,2.17603985 Z M216.45724,10.0360042 C217.289881,12.0152756 217.586282,14.1790055 217.316593,16.3092816 C216.968626,18.5766435 216.063204,20.7768192 214.683308,22.6740974 C211.933187,26.5906985 207.51194,28.9454218 202.760584,29.0408765 L197.960756,29.040473 L196.203573,29.040473 L189.517394,80.5530384 C189.221147,82.8571494 188.349941,85.0471803 186.983941,86.9232267 C185.573862,88.9531012 183.719639,90.5744117 181.559456,91.680155 C179.547716,92.7445655 177.337559,93.3061137 175.088986,93.3305915 C173.033549,93.3376054 170.999496,92.7871453 169.215311,91.7369076 C167.460517,90.7294803 166.103921,89.1856683 165.338911,87.3360633 C164.496101,85.34841 164.200044,83.190158 164.474284,81.066633 L170.92417,31.2975158 L171.216674,29.040473 L164.100756,29.040473 C162.037259,29.0494905 160.018685,28.5000389 158.251983,27.4508522 C156.498276,26.4310196 155.135572,24.8835415 154.352978,23.0318723 C153.482667,21.0576186 153.188059,18.9099238 153.490437,16.804838 C154.126996,12.0232615 157.052769,7.87458175 161.324844,5.67936137 C163.373347,4.59593743 165.627901,4.02402124 167.921383,4.00036671 L206.650756,4.00047307 C208.764117,3.9828083 210.825142,4.54222952 212.625097,5.61745405 C214.354913,6.63375784 215.694226,8.1775678 216.450593,10.0200098 L216.45724,10.0360042 Z"
                id="T"></path>
            <path
                d="M134.975638,0.0405302123 C128.88871,0.137621268 123.233337,3.13995881 119.75222,8.11365174 C118.053462,10.5338184 116.972736,13.3359875 116.606158,16.2727472 L110.727674,61.1808888 C110.666171,61.77835 110.471039,62.2945052 110.154977,62.7356372 C109.807653,63.235914 109.360687,63.6181028 108.839832,63.8700591 C108.309174,64.139181 107.762099,64.273744 107.206006,64.2806262 C106.771309,64.2835227 106.332713,64.1666915 105.947329,63.9422335 C105.61935,63.7557277 105.378301,63.4804647 105.244793,63.1504418 C105.040419,62.6620014 104.966122,62.1543064 105.019542,61.6519672 L110.893839,16.7800573 C111.245298,13.9547194 110.852022,11.0995326 109.754816,8.48623553 C108.672448,5.84951874 106.745073,3.62785589 104.273836,2.17603985 C101.856555,0.731986007 99.0742603,-0.0232081141 96.2439729,0.000543495129 C93.3088194,0.0295065177 90.426251,0.760732122 87.8348123,2.13298643 C82.4213486,4.92032072 78.6966565,10.1959227 77.8787456,16.2528267 L71.937724,61.5705037 C71.2304122,67.5993504 72.1321407,73.6805193 74.547453,79.2198478 C76.9076714,84.8840203 81.0947321,89.6351605 86.445422,92.7052093 C91.6174874,95.7483581 97.5344535,97.349722 103.557152,97.3304628 C109.888679,97.2507033 116.092895,95.6780067 121.68124,92.7408403 C127.718882,89.7200387 132.906422,85.1673374 136.708018,79.5400633 C140.339232,74.3784285 142.729992,68.4051296 143.66877,62.1262113 L149.613788,16.7804424 C149.971068,13.9561057 149.577201,11.0966362 148.473202,8.48240228 C147.381854,5.86343982 145.463115,3.66247023 143.009423,2.21932444 C140.580888,0.772728994 137.802374,0.0191625168 134.975638,0.0405302123 Z M140.977671,5.66490268 C142.686283,6.66869579 144.02238,8.2005998 144.784637,10.0297865 C145.618195,12.0036821 145.914267,14.1531657 145.646567,16.2694871 L139.707724,61.5705037 C138.865979,67.1982239 136.70955,72.5860489 133.414922,77.2698007 C129.976675,82.3585945 125.314189,86.4504961 119.855754,89.1819061 C114.790762,91.8435555 109.206968,93.2589824 103.525536,93.3306321 C98.2392911,93.3474477 93.0273552,91.9368927 88.4549499,89.2466948 C83.8497849,86.6042665 80.2608757,82.5318605 78.2268595,77.6511215 C76.0817359,72.7307831 75.2856581,67.362112 75.9071393,62.0634567 L81.843788,16.7804424 C82.4858167,12.0261173 85.4142091,7.87838323 89.6863394,5.67859217 C91.7332473,4.59483454 93.9874628,4.02300417 96.280492,4.0003757 C98.3741165,3.9828083 100.435142,4.54222952 102.235097,5.61745405 C103.964913,6.63375784 105.304226,8.1775678 106.060593,10.0200098 C106.893321,12.003545 107.189612,14.1546167 106.92605,16.2736135 L101.047674,61.1808888 C100.917323,62.4011024 101.090682,63.585723 101.54597,64.6729778 C102.00822,65.816029 102.859523,66.7881617 103.952642,67.4093317 C104.93866,67.9837459 106.081828,68.288258 107.244229,68.2804277 C108.424373,68.2658539 109.574288,67.9830121 110.616501,67.4536237 C111.722603,66.9189823 112.701673,66.0818065 113.424069,65.0404392 C114.129106,64.0568055 114.575212,62.8767849 114.700527,61.6424906 L120.573839,16.7800573 C120.860966,14.4800886 121.70299,12.2968415 123.027745,10.4095025 C125.774833,6.48456686 130.235198,4.11663772 135.022677,4.04021833 C137.103315,4.02456108 139.164948,4.58414724 140.966527,5.6583075 L140.977671,5.66490268 Z"
                id="U"></path>
            <path
                d="M72.8445059,18.1321238 C75.3270823,23.8344201 76.19462,30.1093643 75.3542927,36.2565635 L72.0512215,61.8393218 C71.1552685,68.2026415 68.7616433,74.2624065 65.0766157,79.5067591 C57.50241,90.4776581 45.1064717,97.1274199 31.748825,97.3704568 C25.6585542,97.3950279 19.6791491,95.741855 14.4907507,92.6067086 C9.20480087,89.5139457 5.07072363,84.7828079 2.72261664,79.1486631 C0.309438532,73.5208862 -0.5214027,67.341045 0.317516295,61.2920932 L3.65013196,35.7127533 C4.5569385,29.245648 7.00173292,23.0903913 10.7554422,17.7980043 C14.5631436,12.1827559 19.7486726,7.63907201 25.7827484,4.61880669 C31.3729048,1.69065494 37.5748317,0.122144362 43.904785,0.0404819874 C49.919785,0.0225241421 55.8294112,1.61862451 61.017444,4.66228901 C66.3394807,7.7406676 70.5004096,12.485189 72.8445059,18.1321238 Z M59.0097731,8.12195603 L58.9983842,8.11532184 C54.4264022,5.43187164 49.2180169,4.0246371 43.9365869,4.04030626 C38.2554587,4.11368669 32.6717154,5.52585432 27.606038,8.17889981 C22.1515809,10.9093874 17.4894461,14.9944608 14.0421656,20.0774099 C10.6346342,24.882408 8.42934938,30.4346516 7.61399578,36.2488529 L4.28179774,61.8251979 C3.54072436,67.1690798 4.27274416,72.6138819 6.40683319,77.5910582 C8.4283313,82.4412918 11.9753901,86.5006315 16.5350491,89.1686793 C21.1189432,91.9383413 26.3770691,93.3920965 31.7043428,93.3708046 C43.7451675,93.1515456 54.9428517,87.1445834 61.7943321,77.2206398 C65.1248088,72.4807596 67.2826088,67.0180159 68.0872194,61.3043826 L71.3891828,35.7296084 C72.1321761,30.2940686 71.3669123,24.7588762 69.1636193,19.6973406 C67.1422016,14.8283971 63.5738602,10.760488 59.0097731,8.12195603 Z M43.0451808,61.7992943 C42.8546764,62.9790667 42.3921818,64.0983037 41.7203333,65.0313554 C40.3289368,67.0609352 38.0378626,68.2875723 35.5619896,68.3204415 C34.3806337,68.327077 33.2209943,68.0029857 32.2414741,67.4012474 C31.1835999,66.7746272 30.3479207,65.8331658 29.8585851,64.724908 C29.3534079,63.6083625 29.1893222,62.3674642 29.377121,61.225146 L32.6750913,35.6094281 C32.8623184,34.4202175 33.3233142,33.2907779 33.9932935,32.3511796 C34.6878199,31.3227169 35.6292105,30.4848793 36.7411168,29.9093059 C37.7767177,29.3804261 38.9201161,29.0969005 40.1187877,29.0804892 C41.2706137,29.0851147 42.4023311,29.3826783 43.396636,29.9391662 C44.5137643,30.5552842 45.3850308,31.5368377 45.8380912,32.6575487 C46.3298217,33.762887 46.5048052,34.9830517 46.3435996,36.1819476 L43.0451808,61.7992943 Z M42.377121,35.665146 L42.3788954,35.6517195 C42.4420081,35.1863098 42.3743237,34.7125192 42.1572356,34.22178 C42.022771,33.8900475 41.7783149,33.6146476 41.4540397,33.4357596 C41.0410288,33.204626 40.576008,33.0823576 40.1386751,33.0802782 C39.589527,33.0879448 39.049505,33.2218526 38.5702115,33.4665929 C38.0622398,33.7295579 37.6283373,34.1157311 37.2798004,34.6307379 C36.9409382,35.1065099 36.7172632,35.6545136 36.6343911,36.1758001 L33.3345858,61.8029573 C33.2640583,62.2346352 33.3226226,62.6775283 33.5102943,63.0925191 C33.6702496,63.4547233 33.9393667,63.7579058 34.3072594,63.9761167 C34.6778293,64.2036528 35.1046791,64.3229471 35.5241591,64.3206499 C36.6845315,64.3052174 37.7649984,63.7267373 38.4472086,62.7325288 C38.7825526,62.2663705 39.0047902,61.7285554 39.087121,61.225146 L42.377121,35.665146 Z"
                id="O"></path>
        </g>
        <g id="It" transform="translate(313.365725, 0.039928)">
            <path
                d="M52.350814,80.551935 C51.9852981,83.382231 52.3795492,86.2563215 53.4927435,88.8813699 C54.5883309,91.5366157 56.5512344,93.7656756 59.0634267,95.197991 C61.4382517,96.5980774 64.1749519,97.3397629 66.9606493,97.3305343 C69.8616685,97.3003175 72.6992651,96.5793521 75.2503122,95.2278494 C77.9722826,93.8389275 80.3308998,91.7765804 82.0881964,89.2392709 C83.8242473,86.8609368 84.951451,84.0371173 85.3373394,81.0683412 L91.5615563,33.0405453 L94.6440234,33.0405453 C100.72725,32.9158362 106.346004,29.9111321 109.804209,24.9550069 C111.526184,22.5575861 112.656266,19.7554452 113.083361,16.8072893 C113.444336,13.9561782 113.05047,11.0967082 111.946469,8.48247381 C110.887538,5.86856901 108.98616,3.64822258 106.54135,2.18456167 C104.110896,0.730629472 101.327323,-0.0249118703 98.4959842,0.000626624286 L59.7840237,0.00054527002 C56.8346434,0.0313803376 53.9561314,0.762553172 51.368056,2.13307124 C45.9546162,4.92039293 42.2299242,10.1959949 41.4120132,16.2528989 C41.005493,19.0824933 41.4038367,21.9864187 42.5640434,24.6174976 C43.6623737,27.2376999 45.6112474,29.4555265 48.0999304,30.9002263 C50.4763658,32.3109782 53.2107883,33.0542007 55.9938541,33.0405211 L58.546293,33.0405339 L52.350814,80.551935 Z M108.250414,10.0116324 C109.091463,12.0037545 109.387535,14.1532377 109.119834,16.2695585 C108.789587,18.546921 107.902926,20.7454774 106.539544,22.6438979 C103.797142,26.5738481 99.3669129,28.9429722 94.602892,29.0409683 L89.8040234,29.0405453 L88.0464904,29.0405453 L81.3706102,80.5535025 C81.0713902,82.8555072 80.1970645,85.0458282 78.8283643,86.9217133 C77.418849,88.9558081 75.5652891,90.5765392 73.4048629,91.6791338 C71.3910789,92.7457389 69.1812692,93.3071986 66.933158,93.3306541 C64.8805903,93.3374032 62.8501353,92.7871205 61.0696203,91.7375933 C59.3054107,90.7314966 57.9464775,89.1883013 57.1828025,87.337645 C56.3393685,85.3484824 56.0433119,83.1902302 56.3175514,81.066705 L62.8072334,31.2991555 L63.1017558,29.0405453 L55.9840237,29.0405453 C53.9163564,29.0506843 51.8944869,28.5011355 50.1249049,27.4507193 C48.3730096,26.4336208 47.0142565,24.8873541 46.2384382,23.0371532 C45.3659345,21.0576908 45.0713261,18.909996 45.3737046,16.8049103 C46.0190844,12.0261895 48.9474767,7.87845541 53.2196068,5.67866435 C55.2639087,4.59625175 57.5149522,4.02446264 59.8050067,4.0004352 L98.5140234,4.00054527 C100.627873,3.98155983 102.688331,4.54079445 104.486991,5.6167054 C106.185721,6.63378975 107.506859,8.17661248 108.250414,10.0116324 Z"
                id="T"></path>
            <path
                d="M26.8350608,0.000565353354 C20.7641987,0.109838851 15.1406041,3.11519436 11.6915488,8.07937205 C9.99931358,10.4890616 8.89809431,13.2747242 8.48378495,16.200091 L0.150603373,80.5135552 C-0.248541426,83.3339685 0.149184603,86.2333912 1.30233064,88.8636023 C2.40646028,91.4863597 4.35310177,93.701646 6.83735361,95.1487279 C9.21636578,96.5609782 11.9507883,97.3042007 14.7338541,97.2905211 C20.8072494,97.1658362 26.4260046,94.161132 29.8842089,89.205007 C31.6022737,86.8040722 32.7310117,84.0052625 33.1628551,81.0607627 L41.4874833,16.7372319 C41.8905845,13.9472536 41.5220719,11.0704779 40.417527,8.44498375 C39.2997408,5.79684836 37.3425245,3.5925968 34.8476866,2.17053509 C32.4215214,0.737797536 29.6528785,-0.012062632 26.8350608,0.000565353354 Z M32.8560082,5.63946027 C34.5924945,6.62609584 35.9547739,8.15830009 36.7314463,9.99830399 C37.5532936,11.951832 37.8277979,14.0947363 37.5245555,16.1947033 L29.2005641,80.5138586 C28.8657712,82.7946511 27.9786036,84.9944646 26.617499,86.8967508 C23.8771423,90.8238479 19.4469128,93.1929722 14.6828923,93.2909683 C12.6563564,93.3006843 10.6344869,92.7511355 8.86490492,91.7007193 C7.11583916,90.6818061 5.75641987,89.1347812 4.97728348,87.2844053 C4.11092669,85.3077974 3.8161052,83.1585488 4.11430512,81.0506978 L12.447444,16.7375353 C12.7699968,14.4610452 13.6357871,12.2709277 14.9707555,10.3699402 C17.6924921,6.45262638 22.1208487,4.08602869 26.8800776,4.00022027 C28.9536124,3.99111128 31.0175024,4.55131001 32.8250864,5.62152371 L32.8560082,5.63946027 Z"
                id="I"></path>
        </g>
        <g id="Drag" transform="translate(0.000000, 0.040370)">
            <path
                d="M291.96391,21.4272988 C291.595157,20.3054381 291.16752,19.1839723 290.683619,18.0720303 C288.291698,12.4288348 284.107364,7.70775643 278.775794,4.64577493 C273.602721,1.6094209 267.690975,0.0121478667 261.673778,0.0301122709 C255.340856,0.112884649 249.136334,1.68113971 243.542531,4.60802333 C237.510041,7.62934697 232.327792,12.1733343 228.523928,17.7883827 C224.763768,23.0737519 222.338747,29.2429189 221.486831,35.7192651 L218.057086,61.5973317 C217.354446,67.6294759 218.255814,73.708212 220.665777,79.2479413 C222.987954,84.910136 227.15943,89.6694107 232.504744,92.7350282 C237.638481,95.7645866 243.516029,97.3662185 249.501793,97.3601024 C253.56746,97.3421685 257.596571,96.6780243 261.443679,95.3943266 C263.741242,96.6893605 266.338833,97.3645801 268.980731,97.3500733 C271.877534,97.3185678 274.714242,96.597828 277.265238,95.2478311 C279.986647,93.8550185 282.343369,91.7943286 284.102552,89.2608036 C285.838219,86.8779161 286.961765,84.0535537 287.34342,81.0851492 L289.473091,64.687696 C289.881988,61.8982612 289.512927,59.0172015 288.401662,56.3907737 C287.313916,53.7486033 285.371693,51.5241779 282.883602,50.0802831 C280.469563,48.6495839 277.694388,47.8963222 274.869974,47.9101273 L268.489749,47.9101034 C262.39563,48.0261168 256.765491,51.0494011 253.323952,56.0337261 C252.603282,57.0599088 251.989619,58.1554215 251.49067,59.3015349 L254.532597,36.2314752 C254.595373,35.6040619 254.795922,35.0664189 255.122059,34.6057692 C255.467168,34.0921959 255.898108,33.7086598 256.403273,33.4492814 C256.887366,33.2009944 257.423119,33.0676028 257.968006,33.0599038 C258.40996,33.0617773 258.879002,33.1845736 259.295878,33.4169791 C259.575474,33.5739523 259.80824,33.807635 259.966739,34.0894004 C259.99924,34.202005 260.040053,34.3114925 260.087815,34.4243834 C260.093156,34.4367883 260.097319,34.4464567 260.100723,34.454351 C260.310884,35.301728 260.597594,36.1283764 260.957374,36.9240882 C262.022825,39.5215081 263.968067,41.7452352 266.460612,43.182652 C268.848376,44.6302231 271.632259,45.4017565 274.46798,45.3900865 C277.419738,45.3702542 280.315279,44.6192714 282.900026,43.2044886 C288.236791,40.3811385 291.931201,35.1650134 292.827782,29.1657158 C293.023091,27.7868257 293.026296,26.402576 292.839503,25.0379831 C292.824365,24.8809845 292.792607,24.7267949 292.745212,24.5778787 C292.616138,23.4997712 292.353785,22.4414681 291.96391,21.4272988 Z M288.869503,28.5897006 C288.162999,33.3167334 285.242693,37.4399043 281.004431,39.6822854 C278.975567,40.7925723 276.730708,41.3747949 274.446307,41.3901486 C272.352349,41.3987592 270.291552,40.8276241 268.496294,39.7396725 C266.733278,38.7224201 265.386573,37.1829166 264.629795,35.3402822 C264.326398,34.6663065 264.110063,34.0313498 263.956117,33.380048 L263.921307,33.2519317 C263.906705,33.2044761 263.893396,33.1641474 263.879749,33.1260956 L263.879749,33.0328635 L263.712921,32.6504273 C263.210264,31.4981398 262.345029,30.5415446 261.24881,29.9261309 C260.235432,29.3611697 259.101084,29.0641943 257.946816,29.0601159 C256.750915,29.0767016 255.609792,29.360818 254.577016,29.8905195 C253.467877,30.4600099 252.522382,31.3015004 251.828561,32.3363463 C251.129902,33.3220414 250.682521,34.5214007 250.559343,35.7744393 L247.206901,61.1987316 C247.083544,62.4250113 247.255373,63.5991807 247.699981,64.6806031 C248.164591,65.8294629 249.020632,66.7887791 250.116667,67.3863673 C250.455303,67.6009503 250.81043,67.7884292 251.17873,67.9470274 L253.764113,69.0603481 L253.964666,66.2525975 C253.974566,66.1140058 253.985947,65.9946359 254.014772,65.715642 C254.069153,65.1892873 254.093041,64.9046606 254.098496,64.5838469 C254.437708,62.3301887 255.29605,60.1855439 256.606481,58.3194988 C259.32562,54.3815235 263.75913,52.0008076 268.527936,51.9097388 L274.879749,51.9101034 C276.98973,51.8998142 279.053321,52.4599319 280.860113,53.5306678 C282.60252,54.5419226 283.950336,56.0855752 284.710367,57.9315408 C285.543795,59.9015536 285.818104,62.0429321 285.510869,64.1402142 L283.376407,80.5725108 C283.080139,82.8767798 282.208934,85.0668107 280.842934,86.942857 C279.432854,88.9727314 277.578632,90.594042 275.418449,91.6997854 C273.406709,92.7641957 271.196552,93.325744 268.947978,93.3502219 C266.916154,93.3613497 264.909502,92.8127476 263.156703,91.7638969 L263.024176,91.691249 L261.738302,91.0483117 L260.9326,91.3382244 C257.261744,92.6590948 253.39215,93.3429041 249.490922,93.3601229 C244.228371,93.3654885 239.054299,91.955554 234.516165,89.2776347 C229.920771,86.6419301 226.351239,82.5694195 224.35012,77.691073 C222.205296,72.759701 221.409228,67.3910978 222.026327,62.0914222 L225.452412,36.2428752 C226.219391,30.4122302 228.40191,24.85998 231.809509,20.0693629 C235.255205,14.9839525 239.913994,10.8989539 245.365463,8.16831362 C250.434172,5.51653204 256.021328,4.10432229 261.705919,4.02993213 C266.98701,4.01426739 272.195395,5.421502 276.767377,8.10495212 C281.358755,10.7419356 284.949356,14.7931199 287.008344,19.6506326 C287.457071,20.68198 287.845563,21.7029549 288.178859,22.7218898 L288.216059,22.8258157 C288.523415,23.6151314 288.719433,24.4433806 288.798476,25.2867334 L288.862716,25.9721543 L288.929766,26.0432 C289.009123,26.8908852 288.989035,27.7455472 288.869503,28.5897006 Z"
                id="G"></path>
            <path
                d="M218.955333,18.0459796 C221.362513,23.6100742 222.259652,29.7106223 221.553174,35.75706 L215.679057,81.0970543 C214.809534,87.0947801 211.130943,92.3178805 205.791681,95.1490308 C203.193815,96.5549965 200.291323,97.3037778 197.332215,97.3300646 C194.492923,97.3477624 191.704715,96.5750305 189.308536,95.1156319 C186.836749,93.6670885 184.901966,91.455317 183.798777,88.8216542 C182.688573,86.2065273 182.31554,83.3373523 182.716633,80.5507729 L183.906722,71.4500977 L178.26076,71.4500733 L176.998271,81.1024244 C176.109491,87.1179687 172.395112,92.3446898 167.031681,95.1490308 C164.433815,96.5549965 161.531323,97.3037778 158.570938,97.3300721 C155.732722,97.3459501 152.94582,96.5735801 150.548536,95.1156319 C148.076749,93.6670885 146.141966,91.455317 145.037837,88.8194376 C143.930848,86.2031328 143.561734,83.3335651 143.966324,80.5531468 L149.842531,35.199089 C150.802533,28.8933018 153.217372,22.8975913 156.888395,17.6973189 C164.437857,6.85420602 176.71847,0.276422276 189.964649,0.000109860051 C195.986062,-0.0152446795 201.902064,1.57919704 207.100156,4.61825385 C212.437364,7.66444238 216.611593,12.3973034 218.955333,18.0459796 Z M187.780944,69.1035141 L185.959749,69.9301034 L187.823834,69.2054065 C187.816645,69.1869138 187.80926,69.1685165 187.801681,69.1502173 C187.794899,69.1346001 187.787987,69.1190318 187.780944,69.1035141 Z M188.059516,70.440652 L188.057761,70.5555212 L188.042865,70.6694339 L186.679364,81.0949252 C186.37878,83.1840979 186.655917,85.3156952 187.484444,87.26738 C188.256688,89.1109313 189.606503,90.6539888 191.359914,91.6818715 C193.151025,92.7725028 195.210289,93.3432132 197.301978,93.3301824 C199.603007,93.309736 201.864065,92.7264312 203.902794,91.6231525 C208.129825,89.3816994 211.033976,85.258199 211.716324,80.5531468 L217.583257,35.2680496 C218.205042,29.945271 217.412009,24.5526482 215.272479,19.6066493 C213.2556,14.7462485 209.680375,10.6941105 205.109066,8.08750021 L205.089745,8.07633977 C200.505136,5.39393 195.286514,3.98655217 190.01151,3.99966731 C178.081054,4.24883676 166.989559,10.1897012 160.163657,19.9935098 C156.843276,24.6971376 154.663515,30.1091819 153.803174,35.75706 L147.92893,81.0979278 C147.625262,83.1860535 147.899428,85.3174688 148.724444,87.26738 C149.496688,89.1109313 150.846503,90.6539888 152.598823,91.6812075 C154.391184,92.7710314 156.45091,93.3418697 158.541978,93.3301824 C160.843007,93.309736 163.104065,92.7264312 165.152992,91.6177826 C169.407154,89.3932554 172.339559,85.2668964 173.036633,80.5507729 L174.384492,70.2436157 C174.416465,69.694226 174.608429,69.1680503 174.917725,68.7600447 C175.212827,68.3509515 175.60314,68.0202662 176.054578,67.7963923 C176.498048,67.5662015 176.990762,67.447239 177.479749,67.4501034 L185.164113,67.4508774 C185.739195,67.4348736 186.304991,67.5983257 186.728285,67.8831937 C187.209821,68.1835769 187.584901,68.6267763 187.801681,69.1502173 C187.978315,69.5569586 188.066295,69.9968753 188.059516,70.440652 Z M191.158045,46.2543402 L191.128811,46.3700418 C191.044149,46.7051132 190.916419,47.0277998 190.748813,47.3300392 L190.697666,47.4170229 C190.412065,47.8758335 190.007829,48.2489745 189.516729,48.5026261 C189.094635,48.7173954 188.630132,48.8357981 188.099749,48.8501034 L180.345567,48.850099 C179.811729,48.8489828 179.288935,48.6979535 178.768928,48.3697227 C178.381661,48.1042494 178.062338,47.7517433 177.836368,47.3407884 C177.523457,46.794985 177.417976,46.1557346 177.537024,45.5402968 L178.827434,35.5484813 C179.016933,34.4214417 179.441349,33.3468564 180.047473,32.4341758 C180.731036,31.3489451 181.699619,30.472377 182.800365,29.9244426 C183.869063,29.3558636 185.058812,29.0525945 186.266814,29.0402349 C187.468434,29.0264544 188.648855,29.3571757 189.660337,29.9882616 C190.68397,30.6201746 191.494017,31.5451969 191.983093,32.6382663 C192.480967,33.7428601 192.646392,34.9682644 192.459586,36.1648752 L191.158045,46.2543402 Z M187.977398,45.7237101 L187.57198,45.4713452 L187.250685,45.3901676 L187.814189,45.7026562 L187.977398,45.7237101 Z M188.496185,35.6242237 L188.505462,35.5604331 C188.575656,35.1269104 188.516867,34.6823174 188.334162,34.2769458 C188.170389,33.9109241 187.900373,33.6025831 187.551099,33.3869416 C187.179913,33.1553605 186.750158,33.0349548 186.310213,33.0399987 C185.74105,33.0458228 185.181633,33.1884194 184.632024,33.4800323 C184.140087,33.7252618 183.72498,34.1009332 183.406373,34.6057092 C183.084671,35.0906528 182.868557,35.6378343 182.783313,36.1359831 L181.659174,44.8502416 L187.305952,44.8508376 L188.496185,35.6242237 Z"
                id="A"></path>
            <path
                d="M143.638956,76.6724552 C144.064826,79.6027227 143.669196,82.5936904 142.512524,85.2732464 C141.376312,88.0683944 139.598638,90.5571372 137.339834,92.5237141 C135.099441,94.5188225 132.418457,95.9550638 129.567427,96.7007791 C126.724351,97.5262808 123.705146,97.5262808 120.872498,96.7037761 C118.184063,95.9389639 115.77144,94.4190114 113.91103,92.3130263 L104.762007,81.7996085 C103.698505,87.5202793 100.066821,92.4535976 94.911681,95.1490308 C92.313815,96.5549965 89.4113227,97.3037778 86.4509376,97.3300721 C83.612722,97.3459501 80.82582,96.5735802 78.4285358,95.1156318 C75.9567491,93.6670885 74.0219658,91.4553169 72.9192961,88.8228768 C71.80618,86.2057241 71.4365617,83.3322397 71.8463318,80.5530875 L80.1497487,16.474812 L80.1497487,16.3742226 L80.1709173,16.2298859 C80.6027608,13.2853861 81.7314988,10.4865765 83.4378673,8.10258948 C85.1777416,5.55356017 87.5324213,3.4845302 90.2513135,2.10393835 C92.8024987,0.748389629 95.6424814,0.0268179065 98.549749,0.000103357636 L117.844649,0.000109860051 C123.869768,-0.01525413 129.789346,1.58116036 134.969574,4.61221797 C140.331379,7.66607336 144.526696,12.4147024 146.883499,18.0817542 C149.366075,23.7840508 150.233613,30.0589949 149.390125,36.2295896 C148.493034,42.5861689 146.094799,48.6376565 142.42435,53.8387522 C140.21146,57.1613381 137.49654,60.1147654 134.380267,62.5955409 L140.024145,69.1505029 C141.940442,71.239967 143.197017,73.8492685 143.638956,76.6724552 Z M80.2021918,16.0701034 L82.0197487,16.0701034 L82.0197487,18.0701034 L80.0279623,17.8890319 C80.0412083,17.743326 80.0549709,17.6126647 80.0775233,17.4111033 C80.1136515,17.0882067 80.1199671,17.0292619 80.1307141,16.9047756 C80.1436132,16.7553611 80.1497487,16.6326499 80.1497487,16.5201034 L80.1497487,16.474812 L80.2021918,16.0701034 Z M75.8083886,81.1016242 C75.5010981,83.1872976 75.7750843,85.317319 76.6044434,87.2673799 C77.3766879,89.1109312 78.7265028,90.6539888 80.4788227,91.6812075 C82.2711838,92.7710314 84.3309098,93.3418697 86.4219783,93.3301824 C88.7230071,93.309736 90.9840648,92.7264312 93.0329918,91.6177826 C97.2871544,89.3932554 100.219559,85.2668964 100.914536,80.5673464 L101.909749,72.4287187 L104.858468,75.8171805 L116.918626,89.6759549 C118.262536,91.1972005 120.014618,92.3010127 121.977427,92.8594277 C124.091976,93.473398 126.337521,93.473398 128.503193,92.8453164 C130.794365,92.2454532 132.910931,91.1115785 134.696417,89.5217407 C136.498885,87.9523303 137.90698,85.9809973 138.8234,83.7277521 C139.703223,81.6886786 139.999946,79.4454525 139.683825,77.2694978 C139.365788,75.238378 138.452333,73.3472631 137.059071,71.8355025 L137.014135,71.7850605 L130.011236,63.6516862 L128.521923,61.9141546 L130.315587,60.6467296 C133.772445,58.2040714 136.748812,55.1444046 139.125547,51.5771141 C142.460156,46.8507708 144.62106,41.3981437 145.428176,35.6792388 C146.171169,30.2436993 145.405905,24.7085068 143.203112,19.6481747 C141.173896,14.7694265 137.581354,10.7030718 132.969745,8.07633977 C128.385136,5.39393 123.166514,3.98655217 117.849749,4.00010336 L98.5681845,4.00001839 C96.3213149,4.02073029 94.1124396,4.58195271 92.0954532,5.65327467 C89.9436385,6.74621933 88.1022404,8.36423467 86.7162734,10.3938978 C85.3803036,12.2610556 84.5009286,14.4148535 84.1479438,16.6822271 C84.1438757,16.8657871 84.1329903,17.0507511 84.1158908,17.2488196 C84.1009752,17.4215928 84.0934231,17.4920784 84.052718,17.8558804 C84.033014,18.0319848 84.0216749,18.1396374 84.0115351,18.2511749 L83.846178,20.0701034 L83.7172971,20.0701034 L75.8083886,81.1016242 Z M119.031647,39.4421072 C118.334533,40.4443709 117.409935,41.2672632 116.343339,41.8381322 C115.281258,42.4142265 114.09264,42.7173006 112.879749,42.7201034 L109.040334,42.7196916 C108.505088,42.7305553 107.977671,42.5899108 107.518904,42.313976 L107.386762,42.2272054 C106.962044,41.9236339 106.628518,41.5096022 106.414989,41.012671 C106.252496,40.6246643 106.165918,40.209095 106.15995,39.7884777 L106.157925,39.6457395 L107.164466,31.8450438 C107.196762,31.2943447 107.39498,30.7595175 107.769817,30.2660978 C108.045308,29.9282892 108.386518,29.649933 108.792764,29.4375835 C109.214859,29.2228118 109.679365,29.1044084 110.209749,29.0901034 L114.091658,29.0901043 C115.242832,29.0912031 116.373821,29.3924711 117.378389,29.9672679 C118.45918,30.5901321 119.308559,31.547027 119.776911,32.6446857 C120.275743,33.7297221 120.458929,34.9330981 120.305805,36.1170593 C120.173358,37.3310204 119.725793,38.4891317 119.031647,39.4421072 Z M108.99051,39.8672984 L109.066519,39.8771059 L109.160294,39.7459071 L109.06269,39.747292 L108.99051,39.8672984 Z M110.159548,39.7317291 C110.15826,39.6409527 110.139576,39.5512687 110.097161,39.4502195 C110.014976,39.2590419 109.882031,39.0940063 109.712736,38.9730014 L109.160294,39.7459071 L110.159548,39.7317291 Z M112.875118,38.7201088 C113.42041,38.7188463 113.956838,38.5820679 114.445931,38.3168088 C114.965317,38.0388031 115.411469,37.641728 115.772689,37.1231934 C116.083116,36.6966705 116.275587,36.1958334 116.33069,35.6711916 L116.33745,35.6146039 C116.396749,35.171862 116.329176,34.7213813 116.120684,34.266131 C115.970883,33.9156428 115.711351,33.6232583 115.386498,33.4360332 C114.991053,33.2097703 114.54344,33.0905373 114.089749,33.0901034 L111.037058,33.0894551 L110.310523,38.7201088 L112.875118,38.7201088 Z"
                id="R"></path>
            <path
                d="M77.6838716,36.2016119 L74.4375457,61.8072885 C72.4588613,74.975633 64.3272393,86.4145046 52.5562298,92.6019699 C46.8715732,95.6557881 40.5284776,97.2786086 34.0597487,97.3301034 L14.7722149,97.3300646 C11.932923,97.3477624 9.14471485,96.5750305 6.74853576,95.1156318 C4.27674911,93.6670885 2.34196576,91.4553169 1.23877646,88.8216538 C0.128573378,86.2065276 -0.244458977,83.337353 0.156328431,80.5531133 L8.48990331,16.236886 C8.91216818,13.2850222 10.0436174,10.4794899 11.7564471,8.104673 C13.494314,5.55167787 15.8509952,3.48088913 18.5712905,2.10395046 C21.1191066,0.750149674 23.9550213,0.0286312395 26.8597487,0.000103357636 L46.1550496,0.000108878066 C52.182694,-0.0140534596 58.1047272,1.58203354 63.2918635,4.61352386 C68.643084,7.67069734 72.8332465,12.4113067 75.2101764,18.0971636 C77.6784102,23.7991733 78.5331022,30.0696666 77.6838716,36.2016119 Z M71.5346415,19.6753276 L71.5241259,19.6506073 C69.488269,14.7740273 65.8960952,10.7080889 61.2906287,8.07685663 C56.7016339,5.39503377 51.4796047,3.98760953 46.1597487,4.00010336 L26.879457,4.00000625 C24.6355533,4.02211908 22.4298418,4.58330009 20.4132041,5.6544151 C18.2611458,6.74407256 16.420432,8.36148666 15.0321474,10.3996429 C13.6664597,12.2941405 12.7803111,14.4914274 12.453169,16.7770935 L4.11936408,81.0949246 C3.81878002,83.184098 4.09591718,85.3156957 4.9244434,87.2673799 C5.69668793,89.1109312 7.0465028,90.6539888 8.7999141,91.6818716 C10.5910243,92.7725027 12.6502892,93.3432132 14.7597487,93.3301034 L34.0438084,93.3301669 C39.8467694,93.283915 45.5510839,91.8245206 50.6791642,89.0697892 C61.338676,83.466503 68.6925246,73.1217367 70.4756259,61.2585949 L73.7186516,35.6757788 C74.4709439,30.2429302 73.7154194,24.7078216 71.5346415,19.6753276 Z M45.3824694,61.7693042 C45.1870206,62.940522 44.7277537,64.0519481 44.0620283,64.9870338 C43.3665765,66.0066893 42.4308405,66.8394944 41.3575064,67.4012835 C40.2936786,67.9737695 39.1052847,68.2755838 37.8897487,68.2801034 L34.0236284,68.280094 C33.5082639,68.2785169 33.0019959,68.144201 32.5820838,67.905916 C32.0486285,67.6149559 31.6274919,67.1543378 31.3853728,66.597013 L31.3167767,66.4154874 C31.1617011,65.9359421 31.1403578,65.4247681 31.2527469,64.9365166 L35.5467313,31.8271137 C35.584141,31.302199 35.7667457,30.795326 36.0877938,30.3462109 C36.379677,29.948791 36.7589334,29.6237141 37.2421601,29.3729284 C37.656138,29.1707765 38.1079571,29.0578217 38.6397487,29.0401034 L42.5081882,29.040104 C43.661897,29.0392038 44.7956261,29.3412015 45.8019301,29.9193139 C46.8766953,30.5416366 47.7246447,31.4909133 48.2215948,32.6273956 C48.7087438,33.7391101 48.8675033,34.9667655 48.6795279,36.165374 L45.3824694,61.7693042 Z M37.8822896,64.2801173 C38.4338029,64.2780604 38.9763306,64.1402756 39.4821067,63.8682456 C39.9939343,63.6002823 40.4319385,63.2104586 40.7800813,62.7007139 C41.1167776,62.227445 41.3414254,61.6837973 41.4261137,61.1847764 L44.7161137,35.6247764 L44.7257007,35.5589578 C44.7987429,35.1099753 44.7404724,34.6494508 44.55728,34.2313889 C44.4010952,33.874208 44.1349292,33.5762361 43.8034877,33.3843076 C43.4103173,33.15844 42.9647395,33.039749 42.5097487,33.0401034 L39.4230511,33.0390678 L35.3713761,64.2801173 L37.8822896,64.2801173 Z M39.539212,32.056436 L39.5300487,32.1766629 C39.5352051,32.1369069 39.5382772,32.0967785 39.539212,32.056436 Z"
                id="D"></path>
        </g>
    </g>
</svg>