<?xml version="1.0" standalone="no"?>
<!DOCTYPE svg PUBLIC "-//W3C//DTD SVG 20010904//EN"
 "http://www.w3.org/TR/2001/REC-SVG-20010904/DTD/svg10.dtd">
<svg version="1.0" xmlns="http://www.w3.org/2000/svg"
 width="720.000000pt" height="140.000000pt" viewBox="0 0 720.000000 140.000000"
 preserveAspectRatio="xMidYMid meet">

<g transform="translate(0.000000,140.000000) scale(0.100000,-0.100000)"
fill="#000000" stroke="none">
<path d="M477 1236 c-20 -7 -52 -25 -71 -40 -70 -53 -73 -66 -122 -432 -24
-185 -44 -359 -44 -386 0 -95 49 -158 140 -177 62 -13 202 -14 289 -1 82 12
217 77 259 124 33 38 36 38 46 -10 7 -32 53 -82 96 -104 67 -35 186 -2 246 68
l31 35 42 -46 c63 -68 143 -86 236 -53 38 14 42 13 65 -7 l25 -22 -23 26 -22
25 23 22 23 22 25 -26 c61 -65 148 -75 244 -26 l60 30 18 -22 c16 -20 16 -20
0 10 -15 28 -15 32 2 57 21 32 35 35 35 7 0 -11 18 -38 39 -59 44 -44 109 -64
167 -51 40 9 144 69 144 83 0 5 20 -9 44 -31 41 -38 123 -88 131 -80 2 2 -20
16 -49 31 -29 15 -67 43 -85 61 -33 34 -33 37 -6 93 1 2 28 -24 61 -56 78 -76
148 -103 254 -101 108 2 129 2 190 0 85 -4 162 44 203 125 8 17 23 83 32 148
19 138 12 178 -40 235 l-33 37 40 34 c84 71 99 174 43 286 -52 102 -147 164
-275 180 -139 17 -328 -74 -402 -193 l-21 -34 -29 51 c-110 190 -358 232 -565
94 -31 -20 -75 -61 -97 -90 -23 -29 -43 -47 -45 -40 -2 6 -7 14 -11 17 -3 3
-16 22 -29 42 -32 53 -95 104 -160 130 -50 20 -74 23 -221 23 -142 0 -170 -3
-200 -19 -49 -26 -89 -65 -112 -110 -17 -34 -22 -37 -30 -22 -21 37 -86 89
-148 119 -63 29 -71 31 -220 34 -115 2 -165 0 -193 -11z m371 -41 c103 -31
181 -118 204 -227 10 -49 8 -81 -14 -240 -22 -157 -31 -194 -58 -247 -41 -82
-105 -145 -188 -184 l-67 -32 -178 0 -179 0 -29 32 c-16 18 -31 44 -35 57 -9
37 82 719 101 755 19 39 52 70 90 87 44 19 286 19 353 -1z m779 -24 c67 -36
102 -75 135 -147 16 -38 19 -62 16 -133 -4 -105 -37 -181 -108 -252 l-46 -46
48 -57 c44 -53 48 -62 48 -110 0 -95 -74 -166 -174 -166 -40 0 -52 5 -89 39
-23 22 -58 60 -77 85 -19 25 -38 45 -41 46 -4 0 -9 -16 -12 -35 -13 -77 -87
-135 -173 -135 -41 0 -51 5 -85 39 -31 31 -39 46 -39 76 0 53 78 662 90 706
14 50 46 88 94 111 36 16 60 18 196 16 154 -3 155 -4 217 -37z m725 4 c91 -46
127 -91 154 -194 15 -60 15 -71 -15 -309 -36 -282 -42 -310 -77 -352 -53 -62
-138 -79 -202 -40 -58 35 -69 87 -46 212 5 27 4 28 -39 28 -50 0 -48 3 -63
-103 -13 -93 -85 -157 -179 -157 -40 0 -52 5 -80 33 -19 19 -37 46 -41 61 -4
16 9 145 29 297 40 303 52 343 131 427 49 52 137 105 202 122 65 16 167 5 226
-25z m722 4 c61 -28 112 -80 142 -144 29 -62 30 -96 3 -153 -29 -60 -86 -96
-150 -96 -59 0 -95 23 -125 80 -23 44 -52 54 -76 27 -25 -27 -60 -297 -42
-321 12 -15 13 -14 14 9 0 34 37 88 79 116 28 19 47 23 113 23 141 0 175 -38
165 -181 -10 -140 -24 -186 -67 -229 -42 -42 -86 -56 -147 -46 -46 7 -39 7
-143 0 -72 -5 -94 -3 -140 15 -102 39 -175 136 -186 248 -3 37 3 119 19 229
30 201 53 259 139 340 61 58 81 70 158 96 72 24 178 19 244 -13z m-144 -419
c0 -7 -52 -31 -57 -26 -2 2 -1 22 3 46 l7 42 23 -29 c13 -15 23 -30 24 -33z
m-1214 -207 c-3 -3 -12 0 -21 7 -14 12 -14 15 2 33 18 19 18 19 21 -8 2 -15 1
-29 -2 -32z"/>
<path d="M670 908 c-1 -2 -11 -81 -24 -175 l-23 -173 38 0 c50 0 54 10 73 155
20 151 20 181 0 189 -15 6 -64 9 -64 4z"/>
<path d="M1396 898 c-3 -7 -6 -28 -9 -45 -3 -32 -3 -33 35 -33 32 0 41 5 50
26 8 18 9 30 1 42 -13 21 -71 29 -77 10z"/>
<path d="M2142 893 c-15 -13 -22 -36 -27 -80 l-7 -61 43 2 c48 3 56 15 58 92
2 61 -27 81 -67 47z"/>
<path d="M3670 1241 c-74 -23 -139 -81 -159 -143 -6 -18 -31 -191 -56 -383
-35 -279 -43 -358 -34 -388 38 -138 208 -174 322 -68 53 49 67 92 93 290 13
102 28 205 34 229 5 23 10 58 10 77 0 19 2 35 5 35 3 0 22 -9 42 -20 21 -11
46 -20 55 -20 23 0 23 6 -11 -258 -27 -203 -28 -228 -15 -271 23 -78 83 -122
168 -123 84 -1 178 63 207 140 6 15 23 128 39 253 16 124 32 233 36 242 3 10
16 17 28 17 32 1 98 34 128 66 15 16 37 51 49 78 37 85 9 180 -69 228 -35 22
-47 23 -265 26 -251 4 -308 -5 -366 -54 l-31 -26 -35 30 c-50 45 -116 61 -175
43z m130 -49 c19 -11 43 -35 53 -55 l19 -37 -46 -356 c-29 -221 -52 -369 -62
-391 -26 -54 -76 -86 -143 -91 -53 -4 -61 -2 -94 28 -23 19 -39 44 -43 65 -6
32 68 654 87 726 13 50 45 88 93 110 52 24 92 24 136 1z m727 -2 c41 -25 63
-59 65 -101 3 -98 -74 -179 -171 -179 -49 0 -41 28 -81 -285 -18 -133 -38
-255 -47 -273 -26 -54 -76 -85 -144 -90 -56 -4 -60 -3 -93 30 -19 19 -38 47
-42 61 -3 15 8 138 25 275 17 136 31 255 31 265 0 13 -9 17 -37 17 -50 0 -82
18 -110 59 -26 39 -30 98 -9 139 18 35 64 78 96 91 14 5 128 10 255 10 211 1
233 -1 262 -19z"/>
<path d="M5154 1236 c-135 -31 -258 -128 -314 -249 -41 -87 -86 -413 -69 -503
15 -81 49 -144 109 -197 68 -61 143 -89 240 -89 98 0 155 21 261 92 48 32 90
56 93 52 4 -3 4 1 1 10 -6 16 22 67 36 68 4 0 10 -11 13 -24 3 -13 24 -47 46
-74 70 -89 207 -139 335 -121 158 21 322 163 364 314 15 53 52 282 52 320 -1
51 10 57 54 35 22 -11 48 -20 58 -20 16 0 18 -5 13 -32 -20 -117 -57 -439 -53
-470 12 -89 87 -151 184 -151 85 0 169 62 201 148 6 17 23 124 37 240 23 178
30 214 48 235 14 15 15 19 5 11 -16 -12 -18 -11 -18 4 0 13 6 16 27 12 36 -7
125 51 160 104 31 47 41 128 24 182 -15 45 -68 93 -118 106 -48 14 -446 14
-493 1 -20 -5 -56 -23 -81 -38 l-45 -29 -33 27 c-18 16 -52 33 -77 40 -80 23
-188 -21 -234 -95 l-22 -36 -15 28 c-39 76 -120 121 -195 109 -78 -13 -169
-83 -184 -141 -5 -22 -9 -20 -64 35 -91 91 -215 125 -346 96z m231 -55 c108
-48 175 -151 175 -270 0 -81 -36 -337 -54 -389 -34 -94 -119 -186 -215 -231
-49 -23 -69 -26 -156 -26 -83 0 -107 4 -140 21 -93 50 -152 136 -162 237 -6
64 32 364 54 421 46 117 134 202 253 244 81 28 171 26 245 -7z m466 14 c37
-20 69 -70 69 -110 0 -17 -14 -133 -30 -259 -17 -126 -28 -237 -25 -247 7 -22
57 -26 73 -6 5 6 25 128 45 269 37 274 40 287 102 334 95 72 225 18 225 -95 0
-87 -61 -512 -80 -564 -91 -241 -394 -337 -578 -182 -17 14 -45 53 -61 87 -26
51 -31 73 -31 131 0 64 53 497 66 540 9 29 66 89 99 103 41 18 90 17 126 -1z
m1114 1 c89 -38 99 -163 19 -238 -36 -33 -74 -48 -125 -48 -25 0 -39 -5 -39
-13 0 -15 -57 -457 -65 -505 -7 -37 -55 -96 -96 -118 -15 -7 -46 -14 -69 -14
-84 0 -134 53 -131 139 0 26 14 147 31 271 16 124 30 228 30 233 0 4 -19 7
-41 7 -57 0 -103 31 -123 82 -20 49 -14 87 21 141 44 69 75 77 331 77 172 0
231 -3 257 -14z"/>
<path d="M5186 894 c-9 -8 -16 -18 -16 -22 0 -4 -9 -68 -19 -142 -12 -87 -15
-141 -9 -152 13 -26 55 -23 71 5 21 33 51 296 36 313 -15 19 -44 18 -63 -2z"/>
<path d="M3446 1065 c-3 -9 -6 -24 -5 -33 0 -9 5 -4 10 12 9 32 6 48 -5 21z"/>
<path d="M261 1024 c0 -11 3 -14 6 -6 3 7 2 16 -1 19 -3 4 -6 -2 -5 -13z"/>
<path d="M4790 980 c-6 -11 -8 -20 -6 -20 3 0 10 9 16 20 6 11 8 20 6 20 -3 0
-10 -9 -16 -20z"/>
<path d="M3432 970 c0 -14 2 -19 5 -12 2 6 2 18 0 25 -3 6 -5 1 -5 -13z"/>
<path d="M251 944 c0 -11 3 -14 6 -6 3 7 2 16 -1 19 -3 4 -6 -2 -5 -13z"/>
<path d="M4766 935 c-9 -26 -7 -32 5 -12 6 10 9 21 6 23 -2 3 -7 -2 -11 -11z"/>
<path d="M3422 895 c0 -16 2 -22 5 -12 2 9 2 23 0 30 -3 6 -5 -1 -5 -18z"/>
<path d="M4751 884 c0 -11 3 -14 6 -6 3 7 2 16 -1 19 -3 4 -6 -2 -5 -13z"/>
<path d="M242 865 c0 -16 2 -22 5 -12 2 9 2 23 0 30 -3 6 -5 -1 -5 -18z"/>
<path d="M4742 840 c0 -14 2 -19 5 -12 2 6 2 18 0 25 -3 6 -5 1 -5 -13z"/>
<path d="M3412 820 c0 -19 2 -27 5 -17 2 9 2 25 0 35 -3 9 -5 1 -5 -18z"/>
<path d="M232 790 c0 -19 2 -27 5 -17 2 9 2 25 0 35 -3 9 -5 1 -5 -18z"/>
<path d="M3920 806 c0 -2 7 -6 15 -10 8 -3 15 -1 15 4 0 6 -7 10 -15 10 -8 0
-15 -2 -15 -4z"/>
<path d="M6378 803 c7 -3 16 -2 19 1 4 3 -2 6 -13 5 -11 0 -14 -3 -6 -6z"/>
<path d="M6338 793 c7 -3 16 -2 19 1 4 3 -2 6 -13 5 -11 0 -14 -3 -6 -6z"/>
<path d="M4732 770 c0 -14 2 -19 5 -12 2 6 2 18 0 25 -3 6 -5 1 -5 -13z"/>
<path d="M6382 755 c0 -16 2 -22 5 -12 2 9 2 23 0 30 -3 6 -5 -1 -5 -18z"/>
<path d="M3402 745 c0 -16 2 -22 5 -12 2 9 2 23 0 30 -3 6 -5 -1 -5 -18z"/>
<path d="M3932 730 c0 -19 2 -27 5 -17 2 9 2 25 0 35 -3 9 -5 1 -5 -18z"/>
<path d="M222 710 c0 -19 2 -27 5 -17 2 9 2 25 0 35 -3 9 -5 1 -5 -18z"/>
<path d="M6372 680 c0 -19 2 -27 5 -17 2 9 2 25 0 35 -3 9 -5 1 -5 -18z"/>
<path d="M3392 665 c0 -16 2 -22 5 -12 2 9 2 23 0 30 -3 6 -5 -1 -5 -18z"/>
<path d="M3922 645 c0 -16 2 -22 5 -12 2 9 2 23 0 30 -3 6 -5 -1 -5 -18z"/>
<path d="M212 635 c0 -16 2 -22 5 -12 2 9 2 23 0 30 -3 6 -5 -1 -5 -18z"/>
<path d="M6362 600 c0 -19 2 -27 5 -17 2 9 2 25 0 35 -3 9 -5 1 -5 -18z"/>
<path d="M4711 604 c0 -11 3 -14 6 -6 3 7 2 16 -1 19 -3 4 -6 -2 -5 -13z"/>
<path d="M3381 584 c0 -11 3 -14 6 -6 3 7 2 16 -1 19 -3 4 -6 -2 -5 -13z"/>
<path d="M202 560 c0 -19 2 -27 5 -17 2 9 2 25 0 35 -3 9 -5 1 -5 -18z"/>
<path d="M3912 570 c0 -14 2 -19 5 -12 2 6 2 18 0 25 -3 6 -5 1 -5 -13z"/>
<path d="M6352 530 c0 -19 2 -27 5 -17 2 9 2 25 0 35 -3 9 -5 1 -5 -18z"/>
<path d="M3372 510 c0 -14 2 -19 5 -12 2 6 2 18 0 25 -3 6 -5 1 -5 -13z"/>
<path d="M3902 495 c0 -16 2 -22 5 -12 2 9 2 23 0 30 -3 6 -5 -1 -5 -18z"/>
<path d="M4701 504 c0 -11 3 -14 6 -6 3 7 2 16 -1 19 -3 4 -6 -2 -5 -13z"/>
<path d="M192 480 c0 -19 2 -27 5 -17 2 9 2 25 0 35 -3 9 -5 1 -5 -18z"/>
<path d="M6342 450 c0 -19 2 -27 5 -17 2 9 2 25 0 35 -3 9 -5 1 -5 -18z"/>
<path d="M3892 420 c0 -19 2 -27 5 -17 2 9 2 25 0 35 -3 9 -5 1 -5 -18z"/>
<path d="M4711 434 c0 -11 3 -14 6 -6 3 7 2 16 -1 19 -3 4 -6 -2 -5 -13z"/>
<path d="M182 410 c0 -19 2 -27 5 -17 2 9 2 25 0 35 -3 9 -5 1 -5 -18z"/>
<path d="M3362 420 c0 -14 2 -19 5 -12 2 6 2 18 0 25 -3 6 -5 1 -5 -13z"/>
<path d="M6333 350 c0 -30 2 -43 4 -27 2 15 2 39 0 55 -2 15 -4 2 -4 -28z"/>
<path d="M4730 374 c0 -17 55 -97 86 -125 16 -15 43 -34 59 -43 30 -17 30 -17
5 1 -59 43 -93 80 -121 127 -16 28 -29 46 -29 40z"/>
<path d="M3352 345 c0 -16 2 -22 5 -12 2 9 2 23 0 30 -3 6 -5 -1 -5 -18z"/>
<path d="M3882 340 c0 -14 2 -19 5 -12 2 6 2 18 0 25 -3 6 -5 1 -5 -13z"/>
<path d="M5488 315 c6 -11 30 -38 53 -60 43 -39 43 -39 -6 15 -27 30 -51 57
-53 60 -3 3 0 -4 6 -15z"/>
<path d="M181 300 c0 -8 4 -22 9 -30 12 -18 12 -2 0 25 -6 13 -9 15 -9 5z"/>
<path d="M3891 294 c0 -11 3 -14 6 -6 3 7 2 16 -1 19 -3 4 -6 -2 -5 -13z"/>
<path d="M3361 289 c-1 -8 6 -24 15 -35 15 -19 15 -19 6 1 -5 11 -12 27 -15
35 -5 13 -6 13 -6 -1z"/>
<path d="M910 287 c-1 -25 51 -92 85 -109 11 -5 5 2 -13 17 -18 15 -41 43 -52
63 -10 21 -19 33 -20 29z"/>
<path d="M6358 245 c6 -11 23 -31 39 -45 l28 -25 -30 35 c-47 55 -48 56 -37
35z"/>
<path d="M1335 228 c16 -26 72 -68 91 -68 5 0 -7 10 -26 21 -19 12 -45 33 -58
48 l-23 26 16 -27z"/>
<path d="M3919 232 c5 -10 18 -25 27 -33 11 -9 9 -2 -6 19 -26 35 -36 42 -21
14z"/>
<path d="M3405 210 c10 -11 20 -20 23 -20 3 0 -3 9 -13 20 -10 11 -20 20 -23
20 -3 0 3 -9 13 -20z"/>
<path d="M269 181 c13 -12 28 -21 34 -21 12 0 11 0 -28 24 l-30 17 24 -20z"/>
<path d="M2119 181 c13 -12 28 -21 34 -21 12 0 11 0 -28 24 l-30 17 24 -20z"/>
<path d="M1720 185 c0 -8 61 -36 70 -33 5 2 -9 11 -30 20 -22 9 -40 15 -40 13z"/>
<path d="M3440 185 c0 -8 61 -36 70 -33 5 2 -9 11 -30 20 -22 9 -40 15 -40 13z"/>
<path d="M3984 176 c11 -9 24 -16 30 -16 12 0 7 5 -24 19 -24 11 -24 11 -6 -3z"/>
<path d="M4920 180 c8 -5 20 -10 25 -10 6 0 3 5 -5 10 -8 5 -19 10 -25 10 -5
0 -3 -5 5 -10z"/>
<path d="M2868 163 c7 -3 16 -2 19 1 4 3 -2 6 -13 5 -11 0 -14 -3 -6 -6z"/>
<path d="M618 153 c7 -3 16 -2 19 1 4 3 -2 6 -13 5 -11 0 -14 -3 -6 -6z"/>
<path d="M1448 153 c7 -3 16 -2 19 1 4 3 -2 6 -13 5 -11 0 -14 -3 -6 -6z"/>
<path d="M2178 153 c7 -3 16 -2 19 1 4 3 -2 6 -13 5 -11 0 -14 -3 -6 -6z"/>
<path d="M2683 153 c9 -2 23 -2 30 0 6 3 -1 5 -18 5 -16 0 -22 -2 -12 -5z"/>
<path d="M2808 153 c7 -3 16 -2 19 1 4 3 -2 6 -13 5 -11 0 -14 -3 -6 -6z"/>
<path d="M2908 153 c7 -3 16 -2 19 1 4 3 -2 6 -13 5 -11 0 -14 -3 -6 -6z"/>
<path d="M4998 153 c6 -2 18 -2 25 0 6 3 1 5 -13 5 -14 0 -19 -2 -12 -5z"/>
<path d="M5128 153 c7 -3 16 -2 19 1 4 3 -2 6 -13 5 -11 0 -14 -3 -6 -6z"/>
<path d="M5728 153 c6 -2 18 -2 25 0 6 3 1 5 -13 5 -14 0 -19 -2 -12 -5z"/>
<path d="M5848 153 c7 -3 16 -2 19 1 4 3 -2 6 -13 5 -11 0 -14 -3 -6 -6z"/>
<path d="M6478 153 c7 -3 16 -2 19 1 4 3 -2 6 -13 5 -11 0 -14 -3 -6 -6z"/>
</g>
</svg>
