<?xml version="1.0" encoding="UTF-8"?>
<svg width="83px" height="98px" viewBox="0 0 83 98" version="1.1" xmlns="http://www.w3.org/2000/svg"
  xmlns:xlink="http://www.w3.org/1999/xlink">
  <title>favicon</title>
  <desc>Drag It Out favicon</desc>
  <style>
    #letter-D path {
      stroke: black;
    }
    @media (prefers-color-scheme: dark) {
      #letter-D path {
        stroke: white;
      }
    }
  </style>
  <defs>
    <path
      d="M71.4937287,17.4801168 C69.2877919,12.1961366 65.39552,7.7905208 60.4237287,4.95011675 C55.5271605,2.08854704 49.9551293,0.586791426 44.2837287,0.600116746 L24.9837287,0.600116746 C22.4192673,0.625388546 19.8984542,1.26673826 17.6337287,2.47011675 C15.1800505,3.71249423 13.081353,5.55659565 11.5337287,7.8301168 C9.9790185,9.9868286 8.9702196,12.4882382 8.5937287,15.1201168 L0.263728702,79.4101168 C-0.0888594984,81.8607388 0.236225202,84.3611249 1.2037287,86.6401168 C2.1433068,88.8831374 3.7856059,90.760552 5.8837287,91.9901168 C7.9918496,93.27378 10.4155861,93.9455012 12.8837287,93.9301168 L32.1837287,93.9301168 C38.3116036,93.8812752 44.3353086,92.3401677 49.7337287,89.4401168 C60.9569376,83.5405172 68.6996729,72.6486983 70.5837287,60.1101168 L73.8237287,34.5501168 C74.626308,28.7541098 73.8202805,22.8490074 71.4937287,17.4801168 L71.4937287,17.4801168 Z M44.8237287,34.4801168 L41.5337287,60.0401168 C41.388203,60.9121729 41.0462457,61.7397098 40.5337287,62.4601168 C40.0232375,63.2085873 39.3363674,63.8199017 38.5337287,64.2401168 C37.7589846,64.6570359 36.8935238,64.8768355 36.0137287,64.8801168 L32.1537287,64.8801168 C31.9819405,64.8795911 31.8131844,64.8348191 31.6637287,64.7501168 C31.521083,64.6723142 31.4084712,64.5491451 31.3437287,64.4001168 C31.2932741,64.2440944 31.2932741,64.0761391 31.3437287,63.9201168 L35.6637287,30.6101168 C35.6677242,30.4376927 35.7234707,30.2704533 35.8237287,30.1301168 C35.934318,29.9795415 36.0780114,29.8563758 36.2437287,29.7701168 C36.4060483,29.6908536 36.5832053,29.6465644 36.7637287,29.6401168 L40.6337287,29.6401168 C41.4372982,29.6394898 42.2269517,29.8498342 42.9237287,30.2501168 C43.6297922,30.6589497 44.1868499,31.282574 44.5137287,32.0301168 C44.8510188,32.7998409 44.958671,33.6506407 44.8237287,34.4801168 Z"
      id="path-1"></path>
    <filter x="-16.2%" y="-4.3%" width="121.6%" height="112.9%" filterUnits="objectBoundingBox" id="filter-3">
      <feOffset dx="-6" dy="2" in="SourceAlpha" result="shadowOffsetOuter1"></feOffset>
      <feMorphology radius="3" operator="erode" in="SourceAlpha" result="shadowInner"></feMorphology>
      <feOffset dx="-6" dy="2" in="shadowInner" result="shadowInner"></feOffset>
      <feComposite in="shadowOffsetOuter1" in2="shadowInner" operator="out" result="shadowOffsetOuter1">
      </feComposite>
      <feGaussianBlur stdDeviation="1" in="shadowOffsetOuter1" result="shadowBlurOuter1"></feGaussianBlur>
      <feColorMatrix values="0 0 0 0 0.956862745   0 0 0 0 0.364705882   0 0 0 0 0.843137255  0 0 0 1 0" type="matrix"
        in="shadowBlurOuter1" result="shadowMatrixOuter1"></feColorMatrix>
      <feOffset dx="-5" dy="2" in="SourceAlpha" result="shadowOffsetOuter2"></feOffset>
      <feMorphology radius="3" operator="erode" in="SourceAlpha" result="shadowInner"></feMorphology>
      <feOffset dx="-5" dy="2" in="shadowInner" result="shadowInner"></feOffset>
      <feComposite in="shadowOffsetOuter2" in2="shadowInner" operator="out" result="shadowOffsetOuter2">
      </feComposite>
      <feColorMatrix values="0 0 0 0 0.956862745   0 0 0 0 0.91372549   0 0 0 0 0.298039216  0 0 0 1 0" type="matrix"
        in="shadowOffsetOuter2" result="shadowMatrixOuter2"></feColorMatrix>
      <feOffset dx="-3" dy="2" in="SourceAlpha" result="shadowOffsetOuter3"></feOffset>
      <feMorphology radius="3" operator="erode" in="SourceAlpha" result="shadowInner"></feMorphology>
      <feOffset dx="-3" dy="2" in="shadowInner" result="shadowInner"></feOffset>
      <feComposite in="shadowOffsetOuter3" in2="shadowInner" operator="out" result="shadowOffsetOuter3">
      </feComposite>
      <feColorMatrix values="0 0 0 0 0.22745098   0 0 0 0 0.419607843   0 0 0 0 0.976470588  0 0 0 1 0" type="matrix"
        in="shadowOffsetOuter3" result="shadowMatrixOuter3"></feColorMatrix>
      <feMerge>
        <feMergeNode in="shadowMatrixOuter1"></feMergeNode>
        <feMergeNode in="shadowMatrixOuter2"></feMergeNode>
        <feMergeNode in="shadowMatrixOuter3"></feMergeNode>
      </feMerge>
    </filter>
  </defs>
  <g id="favicon" stroke="none" stroke-width="1" fill="none" fill-rule="evenodd">
    <g id="D" transform="translate(8.476271, 0.009884)">
      <mask id="mask-2" fill="white">
        <use xlink:href="#path-1"></use>
      </mask>
      <g id="letter-D" fill-rule="nonzero">
        <use fill="black" fill-opacity="1" filter="url(#filter-3)" xlink:href="#path-1"></use>
        <path stroke-width="3"
          d="M70.1173983,18.076535 L70.1095116,18.0579947 C68.0311347,13.0795647 64.3639364,8.92870692 59.6668887,6.2451817 C55.0010006,3.51842213 49.6914708,2.08741505 44.2837287,2.10011675 L24.9985099,2.10004392 C22.6744668,2.12294649 20.3899799,2.70416967 18.3113202,3.80835056 C16.083857,4.93618802 14.1786472,6.61027395 12.7505277,8.70727144 C11.3375844,10.6673225 10.4207732,12.9406401 10.0812939,15.3128593 L1.74844021,79.6237327 C1.43485511,81.8032683 1.72397917,84.027063 2.5872497,86.0605742 C3.40132762,88.0039928 4.82426356,89.6306396 6.66385273,90.7089429 C8.53421558,91.847832 10.6845984,92.4437953 12.8837287,92.4301168 L32.1717735,92.4301644 C38.0559629,92.3832651 43.8401251,90.9034424 49.0357903,88.1123811 C59.8362264,82.4350166 67.2872966,71.9534871 69.0956366,59.9214854 L72.3379058,34.3443733 C73.1027699,28.8207351 72.3346197,23.1931281 70.1173983,18.076535 Z M46.3085002,34.6945609 L43.0132692,60.2870174 C42.8303012,61.3834448 42.4003617,62.4238986 41.7729384,63.3053146 C41.1237268,64.2571738 40.2502072,65.0346062 39.2445469,65.5610019 C38.2529901,66.0945961 37.1453294,66.3759068 36.0137287,66.3801168 L32.1491385,66.3801098 C31.719668,66.3787955 31.297778,66.2668655 30.94548,66.0669762 C30.5097271,65.8293055 30.1657217,65.4530496 29.9679467,64.997799 L29.9164997,64.8616548 C29.78693,64.4609821 29.7711927,64.0333873 29.8692881,63.6261748 L34.1685061,30.4764174 C34.1971241,30.0383587 34.3481039,29.6152466 34.6147625,29.2421974 C34.8613222,28.9064887 35.1816878,28.6318896 35.5855372,28.4222355 C35.9366005,28.2508058 36.3197541,28.1550174 36.7637287,28.1401168 L40.6325583,28.1401173 C41.6987322,28.1392854 42.7464425,28.4183697 43.6753648,28.9520246 C44.6579545,29.5209749 45.433181,30.3888385 45.8876133,31.4280859 C46.3373639,32.4544543 46.4833278,33.5880773 46.3085002,34.6945609 Z"
          stroke-linejoin="square"></path>
        <path stroke-width="3"
          d="M70.1173983,18.076535 L70.1095116,18.0579947 C68.0311347,13.0795647 64.3639364,8.92870692 59.6668887,6.2451817 C55.0010006,3.51842213 49.6914708,2.08741505 44.2837287,2.10011675 L24.9985099,2.10004392 C22.6744668,2.12294649 20.3899799,2.70416967 18.3113202,3.80835056 C16.083857,4.93618802 14.1786472,6.61027395 12.7505277,8.70727144 C11.3375844,10.6673225 10.4207732,12.9406401 10.0812939,15.3128593 L1.74844021,79.6237327 C1.43485511,81.8032683 1.72397917,84.027063 2.5872497,86.0605742 C3.40132762,88.0039928 4.82426356,89.6306396 6.66385273,90.7089429 C8.53421558,91.847832 10.6845984,92.4437953 12.8837287,92.4301168 L32.1717735,92.4301644 C38.0559629,92.3832651 43.8401251,90.9034424 49.0357903,88.1123811 C59.8362264,82.4350166 67.2872966,71.9534871 69.0956366,59.9214854 L72.3379058,34.3443733 C73.1027699,28.8207351 72.3346197,23.1931281 70.1173983,18.076535 Z M46.3085002,34.6945609 L43.0132692,60.2870174 C42.8303012,61.3834448 42.4003617,62.4238986 41.7729384,63.3053146 C41.1237268,64.2571738 40.2502072,65.0346062 39.2445469,65.5610019 C38.2529901,66.0945961 37.1453294,66.3759068 36.0137287,66.3801168 L32.1491385,66.3801098 C31.719668,66.3787955 31.297778,66.2668655 30.94548,66.0669762 C30.5097271,65.8293055 30.1657217,65.4530496 29.9679467,64.997799 L29.9164997,64.8616548 C29.78693,64.4609821 29.7711927,64.0333873 29.8692881,63.6261748 L34.1685061,30.4764174 C34.1971241,30.0383587 34.3481039,29.6152466 34.6147625,29.2421974 C34.8613222,28.9064887 35.1816878,28.6318896 35.5855372,28.4222355 C35.9366005,28.2508058 36.3197541,28.1550174 36.7637287,28.1401168 L40.6325583,28.1401173 C41.6987322,28.1392854 42.7464425,28.4183697 43.6753648,28.9520246 C44.6579545,29.5209749 45.433181,30.3888385 45.8876133,31.4280859 C46.3373639,32.4544543 46.4833278,33.5880773 46.3085002,34.6945609 Z"
          stroke-linejoin="square"></path>
      </g>
    </g>
  </g>
</svg>