<?xml version="1.0" encoding="UTF-8"?>
<svg width="665px" height="95px" viewBox="0 0 665 95" version="1.1" xmlns="http://www.w3.org/2000/svg" xmlns:xlink="http://www.w3.org/1999/xlink">
    <!-- Generator: Sketch 55 (78076) - https://sketchapp.com -->
    <title>wordmark-white-outline</title>
    <desc>Created with Sketch.</desc>
    <g id="Drag-It-Out" stroke="none" stroke-width="1" fill="none" fill-rule="evenodd">
        <g id="wordmark-white-outline" transform="translate(0.601786, 0.569527)" fill-rule="nonzero">
            <g id="Out" transform="translate(446.398375, 0.000000)">
                <path d="M58.0098392,4.39047303 C53.1291481,1.52583104 47.5690825,0.0235772955 41.9098392,0.0404730255 C35.9142284,0.117915476 30.0213933,1.60825459 24.7098392,4.39047303 C18.9492099,7.2742297 14.025378,11.5886083 10.4098392,16.920473 C6.81726671,21.9863996 4.49222711,27.8401498 3.62983921,33.990473 L0.299839208,59.550473 C-0.491255992,65.2550623 0.290174508,71.067384 2.55983921,76.360473 C4.74861061,81.6120497 8.58917861,86.0072885 13.4998392,88.880473 C18.3981293,91.8400981 24.0168948,93.3935622 29.7398392,93.370473 C42.4249028,93.1394827 54.221714,86.8111207 61.4298392,76.370473 C64.9423092,71.371583 67.2180218,65.6103287 68.0698392,59.560473 L71.3698392,34.000473 C72.1624812,28.2017165 71.3460805,22.2966482 69.0098392,16.930473 C66.81997,11.6557842 62.9542668,7.2488826 58.0098392,4.39047303 L58.0098392,4.39047303 Z M42.3598392,33.920473 L39.0698392,59.480473 C38.9288165,60.3538109 38.5864504,61.182337 38.0698392,61.900473 C37.0460508,63.3938362 35.3602803,64.2963948 33.5498392,64.320473 C32.7417396,64.325012 31.948495,64.1033192 31.2598392,63.680473 C30.5605664,63.2662664 30.0081683,62.6439444 29.6798392,61.900473 C29.3370984,61.1429453 29.2257734,60.3010496 29.3598392,59.480473 L32.6498392,33.920473 C32.788874,33.0373655 33.1312094,32.1986438 33.6498392,31.470473 C34.1571618,30.7192239 34.8448084,30.1072185 35.6498392,29.690473 C36.4121946,29.3011393 37.2539048,29.0924226 38.1098392,29.080473 C38.922394,29.0837361 39.7207631,29.2936521 40.4298392,29.690473 C41.1451228,30.0849659 41.7029841,30.7134426 42.0098392,31.470473 C42.3516535,32.2388216 42.4728433,33.0871504 42.3598392,33.920473 L42.3598392,33.920473 Z" id="Shape" stroke="#FFFFFF"></path>
                <path d="M139.989839,1.94047303 C137.874122,0.679013536 135.453006,0.0218535955 132.989839,0.0404730255 C127.561037,0.127129446 122.503168,2.81226273 119.389839,7.260473 C117.877309,9.4153299 116.915934,11.908038 116.589839,14.520473 L110.709839,59.440473 C110.619774,60.327568 110.299155,61.1756558 109.779839,61.900473 C109.253746,62.6588599 108.540728,63.2685423 107.709839,63.670473 C106.940814,64.0610964 106.092319,64.2697989 105.229839,64.280473 C104.425651,64.2858903 103.634769,64.0752186 102.939839,63.670473 C102.238519,63.2719446 101.692343,62.6482467 101.389839,61.900473 C101.064633,61.1238622 100.940805,60.2777044 101.029839,59.440473 L106.909839,14.520473 C107.216538,12.0546675 106.871754,9.5515383 105.909839,7.260473 C104.98742,5.01354333 103.354076,3.13080688 101.259839,1.90047303 C99.1449314,0.637107616 96.7232714,-0.0201999545 94.2598394,0.000473025501 C91.6472244,0.0262552955 89.0788324,0.677783226 86.7698394,1.90047303 C81.916862,4.39935195 78.5903198,9.11102 77.8598392,14.520473 L71.9198392,59.830473 C71.2571183,65.4807311 72.1060214,71.2056511 74.3798392,76.420473 C76.5833567,81.7079403 80.4713416,86.1197134 85.4398394,88.970473 C90.3215044,91.8426253 95.8859554,93.3485848 101.549839,93.330473 C107.546906,93.2548428 113.440911,91.7607811 118.749839,88.970473 C124.515618,86.0852675 129.440631,81.7629662 133.049839,76.420473 C136.523474,71.4822381 138.797068,65.8016761 139.689839,59.830473 L145.629839,14.520473 C145.94175,12.054636 145.596781,9.5501594 144.629839,7.260473 C143.700786,5.03102709 142.072327,3.16391451 139.989839,1.94047303 L139.989839,1.94047303 Z" id="Path" stroke="#FFFFFF"></path>
                <path d="M216.299839,7.260473 C215.37742,5.01354333 213.744076,3.13080688 211.649839,1.90047303 C209.534931,0.637107616 207.113271,-0.0201999545 204.649839,0.000473025501 L165.899839,0.000473025501 C163.287375,0.0274174755 160.719253,0.678876886 158.409839,1.90047303 C153.554943,4.39517776 150.23002,9.1098438 149.509839,14.520473 C149.154225,16.9961724 149.500701,19.5219825 150.509839,21.810473 C151.461095,24.0612088 153.117486,25.9421953 155.229839,27.170473 C157.308129,28.4047016 159.682712,29.0510583 162.099839,29.040473 L166.939839,29.040473 L160.489839,78.810473 C160.17012,81.2861585 160.515274,83.8023298 161.489839,86.100473 C162.423911,88.3588301 164.080307,90.2438163 166.199839,91.460473 C168.293509,92.6928855 170.68039,93.3388287 173.109839,93.330473 C175.677133,93.3025256 178.200566,92.6613814 180.469839,91.460473 C182.92273,90.2048997 185.028202,88.3638993 186.599839,86.100473 C188.163666,83.9527331 189.161042,81.4455366 189.499839,78.810473 L195.959839,29.040473 L200.799839,29.040473 C206.188533,28.9322141 211.202838,26.2616328 214.299839,21.850473 C215.867604,19.6948866 216.896297,17.1951636 217.299839,14.560473 C217.613667,12.0815433 217.268755,9.5636843 216.299839,7.260473 L216.299839,7.260473 Z" id="Path" stroke="#FFFFFF"></path>
                <path d="M26.9698392,61.880473 C26.7350112,60.9798796 26.6839967,60.0412116 26.8198392,59.120473 L30.1198392,33.500473 C30.3227536,32.1853064 30.8294999,30.9355605 31.5998392,29.850473 C33.1534137,27.6190333 35.6909826,26.2775872 38.4098392,26.250473 C39.7115029,26.2623049 40.9885575,26.6065245 42.1198392,27.250473 C42.7679967,27.6125626 43.3469307,28.0865437 43.8298392,28.650473 C43.7422052,28.2926665 43.6285699,27.941734 43.4898392,27.600473 C42.9370419,26.262477 41.9462886,25.1518461 40.6798392,24.450473 C39.5508119,23.8010634 38.2722984,23.4564506 36.9698392,23.450473 C35.67613,23.461874 34.4027206,23.7733801 33.2498392,24.360473 C32.0098024,24.9827045 30.9469524,25.9079687 30.1598392,27.050473 C29.3893657,28.1392 28.882683,29.3922127 28.6798392,30.710473 L25.3798392,56.320473 C25.1694278,57.679867 25.364204,59.0711256 25.9398392,60.320473 C26.2101624,60.8851599 26.5567315,61.4100607 26.9698392,61.880473 Z" id="Path" fill="#D3ECF0"></path>
                <path d="M66.6898392,18.040473 C66.2589575,17.0431854 65.7646112,16.0745339 65.2098392,15.140473 L65.2098392,15.230473 C67.3320124,20.1310908 68.0754267,25.5182516 67.3598392,30.810473 L64.0698392,56.380473 C63.2643287,61.9877021 61.1469458,67.3256998 57.8898392,71.960473 C51.2129706,81.6324542 40.2903819,87.5012523 28.5398392,87.730473 C23.331884,87.7441501 18.2198798,86.3295292 13.7598392,83.640473 C10.3574593,81.6573198 7.51777421,78.8382869 5.50983921,75.450473 C7.46298221,80.0700028 10.8635411,83.9302863 15.1998392,86.450473 C19.6602835,89.1374475 24.7726267,90.5487032 29.9798392,90.530473 C35.6764182,90.4856217 41.276896,89.0580489 46.2998392,86.370473 C51.5661555,83.6531612 56.069405,79.6621134 59.3998392,74.760473 C62.6554932,70.1286271 64.7728107,64.7942204 65.5798392,59.190473 L68.8698392,33.620473 C69.5770324,28.3255149 68.8231915,22.9379735 66.6898392,18.040473 Z" id="Path" fill="#D3ECF0"></path>
                <path d="M102.889839,11.420473 L97.0298394,56.310473 C96.8725164,57.6394327 97.0619994,58.9864852 97.5798394,60.220473 C97.8464594,60.8678655 98.2143924,61.4687106 98.6698394,62.000473 C98.4320974,61.0601178 98.3610224,60.0853689 98.4598394,59.120473 L104.299839,14.260473 C104.560251,12.2814639 104.287525,10.2688136 103.509839,8.430473 C103.217344,7.7476239 102.837509,7.1056006 102.379839,6.520473 C102.912727,8.0954228 103.086972,9.7695416 102.889839,11.420473 Z" id="Path" fill="#D3ECF0"></path>
                <path d="M142.299839,8.400473 C142.010768,7.7180037 141.634286,7.0759674 141.179839,6.490473 C141.70215,8.078152 141.866081,9.7618598 141.659839,11.420473 L135.729839,56.700473 C134.881183,62.2252669 132.766051,67.4788715 129.549839,72.050473 C126.204367,76.9974193 121.641121,80.9993001 116.299839,83.670473 C111.38078,86.2519201 105.924412,87.6425574 100.369839,87.730473 C95.2071264,87.7318258 90.1382364,86.3506569 85.6898394,83.730473 C82.1928015,81.7380473 79.2872223,78.8531729 77.2698392,75.370473 C79.2260795,80.0846991 82.6948309,84.014309 87.1298394,86.540473 C91.5780454,89.1611099 96.6470614,90.5423131 101.809839,90.540473 C107.359611,90.4714723 112.815794,89.1014326 117.739839,86.540473 C123.069534,83.8601161 127.624168,79.8597491 130.969839,74.920473 C134.187793,70.3461103 136.30302,65.0888475 137.149839,59.560473 L143.059839,14.260473 C143.329788,12.2743031 143.067519,10.2520699 142.299839,8.400473 Z" id="Path" fill="#D3ECF0"></path>
                <path d="M168.599839,26.260473 L168.959839,23.450473 L160.899839,23.450473 C158.985161,23.464836 157.10334,22.95287 155.459839,21.970473 C154.49487,21.4131753 153.656972,20.660429 152.999839,19.760473 C153.109839,20.090473 153.209839,20.410473 153.349839,20.760473 C154.063891,22.4461546 155.310909,23.8512452 156.899839,24.760473 C158.530888,25.7400284 160.397249,26.2584619 162.299839,26.260473 L168.599839,26.260473 Z" id="Path" fill="#D3ECF0"></path>
                <path d="M213.909839,8.400473 C213.617344,7.7176239 213.237509,7.0756006 212.779839,6.490473 C213.305189,8.077467 213.47253,9.761118 213.269839,11.420473 C212.933709,13.5845724 212.09456,15.639632 210.819839,17.420473 C209.530908,19.3077478 207.782653,20.8357495 205.739839,21.860473 C203.851238,22.8566314 201.754751,23.3944557 199.619839,23.430473 L192.299839,23.430473 L185.529839,75.670473 C185.241678,77.8424492 184.409234,79.9063614 183.109839,81.670473 C181.814604,83.5647234 180.059833,85.0992875 178.009839,86.130473 C176.140249,87.1293285 174.059272,87.6675715 171.939839,87.700473 C170.011981,87.7089593 168.117975,87.1939832 166.459839,86.210473 C165.516563,85.6641622 164.693421,84.9328578 164.039839,84.060473 C164.139839,84.380473 164.239839,84.690473 164.369839,85.000473 C165.067758,86.6900004 166.310211,88.0978786 167.899839,89.000473 C169.55878,89.9809487 171.452853,90.4924867 173.379839,90.480473 C175.498552,90.4514233 177.57966,89.916575 179.449839,88.920473 C181.498121,87.886746 183.252313,86.3526885 184.549839,84.460473 C185.847964,82.6966379 186.677185,80.6321891 186.959839,78.460473 L193.729839,26.260473 L201.059839,26.260473 C203.19156,26.2243872 205.284785,25.6865208 207.169839,24.690473 C209.23147,23.6782093 210.998069,22.1526666 212.299839,20.260473 C213.581218,18.4833154 214.421043,16.426602 214.749839,14.260473 C214.999984,12.2671592 214.709867,10.2432502 213.909839,8.400473 L213.909839,8.400473 Z" id="Path" fill="#D3ECF0"></path>
            </g>
            <g id="It" transform="translate(313.365501, 0.039928)">
                <path d="M31.8427125,1.90054525 C29.7240125,0.646129506 27.3048918,-0.0104889541 24.8427125,0.000545245903 C19.4412125,0.0979337459 14.4152369,2.78391036 11.3327125,7.22054524 C9.8162392,9.37999454 8.8327344,11.8678845 8.4627125,14.4805452 L0.132712501,78.7705452 C-0.217529299,81.2462587 0.128744501,83.7705943 1.1327125,86.0605452 C2.0801289,88.3105704 3.7331593,90.191726 5.8427125,91.4205452 C7.9241152,92.6560568 10.3022612,93.3024424 12.7227125,93.2905452 C18.1257699,93.1794041 23.1502623,90.4924899 26.2427125,86.0605452 C27.7891275,83.8992683 28.7970803,81.3999567 29.1827125,78.7705452 L37.5027125,14.4805452 C37.85788,12.0209949 37.5363716,9.51115494 36.5727125,7.22054524 C35.6247782,4.97480729 33.9621065,3.10474103 31.8427125,1.90054525 Z" id="Path" stroke="#FFFFFF"></path>
                <path d="M103.512712,1.90054525 C101.398415,0.635742646 98.9763452,-0.0216765641 96.5127122,0.000545245903 L57.7827125,0.000545245903 C55.1734866,0.0279214659 52.6087089,0.679402446 50.3027125,1.90054525 C45.4497352,4.39942418 42.1231931,9.11109224 41.3927125,14.5205452 C41.0370984,16.9962446 41.3835744,19.5220547 42.3927125,21.8105452 C43.3370039,24.0625269 44.9908173,25.9445736 47.1027125,27.1705452 C49.1841152,28.4060568 51.5622612,29.0524424 53.9827125,29.0405452 L58.8227125,29.0405452 L52.3327125,78.8105452 C52.0129938,81.2862307 52.3581477,83.802402 53.3327125,86.1005452 C54.266093,88.3624584 55.9270113,90.248586 58.0527125,91.4605452 C60.1428823,92.6925989 62.5264599,93.338583 64.9527125,93.3305452 C67.5201577,93.303758 70.0438608,92.6625454 72.3127125,91.4605452 C74.7674746,90.2077333 76.8735632,88.3661942 78.4427125,86.1005452 C80.0093447,83.9533825 81.0101094,81.4463122 81.3527125,78.8105452 L87.8027122,29.0405452 L92.6427122,29.0405452 C98.0457702,28.9294041 103.070262,26.2424899 106.162712,21.8105452 C107.713244,19.6515316 108.721615,17.1511829 109.102712,14.5205452 C109.414624,12.0547082 109.069655,9.55023164 108.102712,7.26054524 C107.195866,5.022538 105.584553,3.14091708 103.512712,1.90054525 Z" id="Path" stroke="#FFFFFF"></path>
                <path d="M34.1527125,8.36054524 C33.8578695,7.67889014 33.478205,7.03715644 33.0227125,6.45054524 C33.5330945,8.02379304 33.6801135,9.69228784 33.4527125,11.3305452 L25.1227125,75.6405452 C24.7931768,77.8081736 23.9496867,79.8654666 22.6627125,81.6405452 C21.3761148,83.5298895 19.6272657,85.0584112 17.5827125,86.0805452 C15.698069,87.0776534 13.6045858,87.615586 11.4727125,87.6505452 C9.5628262,87.6795202 7.6814658,87.1849714 6.0327125,86.2205452 C5.0751471,85.6573099 4.2389732,84.9095121 3.5727125,84.0205452 C3.6827125,84.3405452 3.7827125,84.6705452 3.9227125,85.0205452 C4.6417644,86.7030639 5.8875171,88.1067289 7.4727125,89.0205452 C9.1162132,90.0029422 10.9980344,90.5149082 12.9127125,90.5005452 C17.3873526,90.4041955 21.5462198,88.1742399 24.1027125,84.5005452 C25.3913978,82.7264202 26.2350648,80.6686956 26.5627125,78.5005452 L34.8927125,14.2005452 C35.1868448,12.222858 34.9308235,10.202366 34.1527125,8.36054524 Z" id="Path" fill="#D3ECF0"></path>
                <path d="M60.4827125,26.2205452 L60.8527125,23.4105452 L52.7827125,23.4105452 C50.8636945,23.4237259 48.9781033,22.9082157 47.3327125,21.9205452 C46.3724507,21.356787 45.5357667,20.6051318 44.8727125,19.7105452 C44.9827125,20.0405452 45.0827125,20.3605452 45.2227125,20.7105452 C45.9367648,22.3962268 47.1837827,23.8013174 48.7727125,24.7105452 C50.4180193,25.6886893 52.2986318,26.2003266 54.2127125,26.1905452 L60.4827125,26.2205452 Z" id="Path" fill="#D3ECF0"></path>
                <path d="M105.792712,8.36054524 C105.503642,7.67807594 105.12716,7.03603964 104.672712,6.45054524 C105.195023,8.03822424 105.358954,9.72193204 105.152712,11.3805452 C104.827291,13.5476036 103.987152,15.6050858 102.702712,17.3805452 C101.418815,19.272281 99.6692742,20.8014075 97.6227122,21.8205452 C95.7376592,22.816593 93.6444342,23.3544594 91.5127122,23.3905452 L84.1827125,23.3905452 L77.4027125,75.6305452 C77.1175156,77.8015958 76.2885414,79.8654318 74.9927125,81.6305452 C73.6926004,83.5204601 71.9390598,85.0539485 69.8927125,86.0905452 C68.0227009,87.0883186 65.9419896,87.6264927 63.8227125,87.6605452 C61.8963902,87.6839954 59.9995296,87.1864582 58.3327125,86.2205452 C57.3915101,85.6713697 56.5688949,84.9405339 55.9127125,84.0705452 C56.0227125,84.3905452 56.1127125,84.7005452 56.2527125,85.0105452 C56.9467412,86.6993622 58.1858409,88.10743 59.7727125,89.0105452 C61.4353541,89.9909073 63.3325966,90.502368 65.2627125,90.4905452 C67.381271,90.4603415 69.4621125,89.9255619 71.3327125,88.9305452 C73.3790598,87.8939485 75.1326004,86.3604601 76.4327125,84.4705452 C77.7308379,82.7067101 78.5600582,80.6422612 78.8427125,78.4705452 L85.6127122,26.2205452 L92.9427122,26.2205452 C97.4162612,26.1097134 101.572036,23.8834056 104.142712,20.2205452 C105.425787,18.4443279 106.265785,16.3871893 106.592712,14.2205452 C106.851508,12.2308272 106.575366,10.2080859 105.792712,8.36054524 L105.792712,8.36054524 Z" id="Path" fill="#D3ECF0"></path>
            </g>
            <g id="Drag" transform="translate(0.000000, 0.040370)">
                <path d="M71.3682138,16.8801034 C69.162277,11.5961232 65.2700051,7.1905074 60.2982138,4.35010335 C55.4016456,1.48853364 49.8296144,-0.0132219656 44.1582138,0.00010335442 L24.8582138,0.00010335442 C22.2937524,0.0253751544 19.7729393,0.666724864 17.5082138,1.87010335 C15.0545356,3.11248083 12.9558381,4.95658225 11.4082138,7.2301034 C9.85350363,9.3868152 8.84470473,11.8882248 8.46821383,14.5201034 L0.138213835,78.8101034 C-0.214374365,81.2607254 0.110710335,83.7611115 1.07821383,86.0401034 C2.01779193,88.283124 3.66009103,90.1605386 5.75821383,91.3901034 C7.86633473,92.6737666 10.2900712,93.3454878 12.7582138,93.3301034 L32.0582138,93.3301034 C38.1860887,93.2812618 44.2097937,91.7401543 49.6082138,88.8401034 C60.8314227,82.9405038 68.574158,72.0486849 70.4582138,59.5101034 L73.6982138,33.9501034 C74.5007931,28.1540964 73.6947656,22.248994 71.3682138,16.8801034 L71.3682138,16.8801034 Z M44.6982138,33.8801034 L41.4082138,59.4401034 C41.2626881,60.3121595 40.9207308,61.1396964 40.4082138,61.8601034 C39.8977226,62.6085739 39.2108525,63.2198883 38.4082138,63.6401034 C37.6334697,64.0570225 36.7680089,64.2768221 35.8882138,64.2801034 L32.0282138,64.2801034 C31.8564256,64.2795777 31.6876695,64.2348057 31.5382138,64.1501034 C31.3955681,64.0723008 31.2829563,63.9491317 31.2182138,63.8001034 C31.1677592,63.644081 31.1677592,63.4761257 31.2182138,63.3201034 L35.5382138,30.0101034 C35.5422093,29.8376793 35.5979558,29.6704399 35.6982138,29.5301034 C35.8088031,29.3795281 35.9524965,29.2563624 36.1182138,29.1701034 C36.2805334,29.0908402 36.4576904,29.046551 36.6382138,29.0401034 L40.5082138,29.0401034 C41.3117833,29.0394764 42.1014368,29.2498208 42.7982138,29.6501034 C43.5042773,30.0589363 44.061335,30.6825606 44.3882138,31.4301034 C44.7255039,32.1998275 44.8331561,33.0506273 44.6982138,33.8801034 Z" id="Shape" stroke="#FFFFFF"></path>
                <path d="M136.528214,68.4801034 L129.528214,60.3501034 L129.468214,60.2801034 C133.126053,57.6954295 136.275464,54.4578748 138.758214,50.7301034 C142.275942,45.7442139 144.555512,39.9921566 145.408214,33.9501034 C146.200856,28.1513468 145.384455,22.2462785 143.048214,16.8801034 C140.848761,11.5920649 136.954832,7.1845728 131.978214,4.35010335 C127.085706,1.48754518 121.516606,-0.0143509856 115.848214,0.00010335442 L96.5482141,0.00010335442 C93.9803631,0.0237740944 91.4559341,0.665171234 89.1882141,1.87010335 C86.7364951,3.1153747 84.6384561,4.95889731 83.0882138,7.2301034 C81.5417989,9.3913803 80.5338461,11.8906918 80.1482138,14.5201034 C80.1482138,15.0401034 80.0682138,15.5201034 80.0182138,16.0701034 L79.9582138,16.0701034 L71.8282138,78.8101034 C71.467295,81.2597686 71.7890972,83.7615215 72.7582138,86.0401034 C73.6977919,88.283124 75.340091,90.1605386 77.4382138,91.3901034 C79.546967,92.6723058 81.970281,93.3439099 84.4382141,93.3301034 C87.0656301,93.3067569 89.6474051,92.6407138 91.9582141,91.3901034 C96.7795981,88.8689727 100.10299,84.1924327 100.898214,78.8101034 L101.348214,75.1301034 L113.418214,89.0001034 C115.015453,90.808106 117.097806,92.1199883 119.418214,92.7801034 C121.897026,93.4998394 124.529401,93.4998394 127.008214,92.7801034 C129.604876,92.1002585 132.003651,90.8152004 134.008214,89.0301034 C136.047227,87.2547335 137.640111,85.0246955 138.658214,82.5201034 C139.684674,80.1411847 140.030851,77.5240878 139.658214,74.9601034 C139.278957,72.5380072 138.189668,70.2828665 136.528214,68.4801034 L136.528214,68.4801034 Z M116.318214,33.8801034 C116.226375,34.7545066 115.905591,35.5892337 115.388214,36.3001034 C114.871466,37.0430495 114.186091,37.6530332 113.388214,38.0801034 C112.617513,38.4981472 111.75499,38.7180734 110.878214,38.7201034 L106.998214,38.7201034 C106.839902,38.7233166 106.683905,38.6817176 106.548214,38.6001034 C106.420502,38.50882 106.320212,38.3843219 106.258214,38.2401034 C106.194501,38.0879676 106.160554,37.925025 106.158214,37.7601034 L107.158214,30.0101034 C107.157482,29.8368893 107.2137,29.6682358 107.318214,29.5301034 C107.422592,29.4021144 107.55187,29.2966507 107.698214,29.2201034 C107.856499,29.1395645 108.030688,29.0951633 108.208214,29.0901034 L112.088214,29.0901034 C112.891601,29.0908702 113.680902,29.3011207 114.378214,29.7001034 C115.083731,30.1066955 115.638186,30.7313354 115.958214,31.4801034 C116.302929,32.2299115 116.427766,33.0621551 116.318214,33.8801034 Z" id="Shape" stroke="#FFFFFF"></path>
                <path d="M204.098214,4.35010335 C199.205706,1.48754518 193.636606,-0.0143509856 187.968214,0.00010335442 C175.398227,0.262629514 163.712173,6.5219536 156.528214,16.8401034 C153.028789,21.7973644 150.731489,27.5012418 149.818214,33.5001034 L143.948214,78.8101034 C143.591963,81.2598093 143.913603,83.7603008 144.878214,86.0401034 C145.817792,88.283124 147.460091,90.1605386 149.558214,91.3901034 C151.666967,92.6723058 154.090281,93.3439099 156.558214,93.3301034 C159.18563,93.3067569 161.767405,92.6407138 164.078214,91.3901034 C168.899598,88.8689727 172.22299,84.1924327 173.018214,78.8101034 L174.378214,68.4101034 C174.377482,68.2368893 174.4337,68.0682358 174.538214,67.9301034 C174.646528,67.7799503 174.79099,67.6595654 174.958214,67.5801034 C175.117869,67.4937625 175.29671,67.4490522 175.478214,67.4501034 L183.218214,67.4501034 C183.378074,67.4456547 183.535353,67.4910909 183.668214,67.5801034 C183.800136,67.6623966 183.901874,67.7851841 183.958214,67.9301034 C184.02659,68.0807538 184.060741,68.2446814 184.058214,68.4101034 L182.698214,78.8101034 C182.345625,81.2607254 182.67071,83.7611115 183.638214,86.0401034 C184.577792,88.283124 186.220091,90.1605386 188.318214,91.3901034 C190.426335,92.6737666 192.850071,93.3454878 195.318214,93.3301034 C197.94563,93.3067569 200.527405,92.6407138 202.838214,91.3901034 C207.628849,88.8497901 210.92022,84.1764899 211.698214,78.8101034 L217.568214,33.5001034 C218.230812,27.8279468 217.385726,22.0813613 215.118214,16.8401034 C212.93135,11.5700614 209.0548,7.1764029 204.098214,4.35010335 L204.098214,4.35010335 Z M188.478214,33.8801034 L187.188214,43.8801034 C187.145883,44.0476396 187.082017,44.2089833 186.998214,44.3601034 C186.903013,44.5130416 186.768267,44.6374227 186.608214,44.7201034 C186.449928,44.8006422 186.275739,44.8450434 186.098214,44.8501034 L178.348214,44.8501034 C178.188999,44.8497705 178.033078,44.8047267 177.898214,44.7201034 C177.763809,44.6279682 177.653956,44.5043834 177.578214,44.3601034 C177.490661,44.2162498 177.465391,44.0429701 177.508214,43.8801034 L178.798214,33.8801034 C178.94121,33.0296378 179.261475,32.2187544 179.738214,31.5001034 C180.226473,30.7249391 180.918318,30.0988194 181.738214,29.6901034 C182.523813,29.2721415 183.398396,29.0492086 184.288214,29.0401034 C185.107761,29.0307046 185.912849,29.2562681 186.608214,29.6901034 C187.290636,30.1113788 187.830668,30.7280604 188.158214,31.4601034 C188.499803,32.2179595 188.611082,33.059509 188.478214,33.8801034 L188.478214,33.8801034 Z" id="Shape" stroke="#FFFFFF"></path>
                <path d="M288.788214,23.1001034 C288.691857,22.0720095 288.452899,21.0623261 288.078214,20.1001034 C287.728214,19.0301034 287.318214,17.9501034 286.848214,16.8701034 C284.618992,11.6109771 280.731524,7.2248459 275.778214,4.38010335 C270.897523,1.51546136 265.337457,0.0132076244 259.678214,0.0301033544 C253.679557,0.108603464 247.783718,1.59883588 242.468214,4.38010335 C236.710482,7.2641505 231.789963,11.5786435 228.178214,16.9101034 C224.581304,21.966866 222.277534,27.8275746 221.468214,33.9801034 L218.038214,59.8601034 C217.380302,65.5102872 218.22902,71.2339568 220.498214,76.4501034 C222.668062,81.7397783 226.538566,86.1556707 231.498214,89.0001034 C236.344855,91.8600703 241.870665,93.3658535 247.498214,93.3601034 C251.627318,93.3418788 255.722939,92.6181274 259.608214,91.2201034 L260.128214,91.4801034 C262.194573,92.7165841 264.560196,93.363326 266.968214,93.3501034 C269.535508,93.3221559 272.058941,92.6810118 274.328214,91.4801034 C276.781105,90.22453 278.886577,88.3835296 280.458214,86.1201034 C282.022041,83.9723635 283.019417,81.4651669 283.358214,78.8301034 L285.488214,62.4301034 C285.848511,59.9705968 285.526826,57.4593777 284.558214,55.1701034 C283.630591,52.9170893 281.985572,51.0330503 279.878214,49.8101034 C277.759907,48.5547578 275.340524,47.8980682 272.878214,47.9101034 L266.488214,47.9101034 C261.075845,48.0134622 256.044021,50.7154622 252.968214,55.1701034 C251.45174,57.3295526 250.468236,59.8174426 250.098214,62.4301034 C250.098214,62.9901034 250.008214,63.5501034 249.968214,64.1101034 C249.675937,63.9842427 249.394919,63.8336977 249.128214,63.6601034 C248.41145,63.286367 247.851293,62.6694844 247.548214,61.9201034 C247.228321,61.1420259 247.10469,60.2972173 247.188214,59.4601034 L250.548214,33.9701034 C250.637412,33.0627309 250.961377,32.1942298 251.488214,31.4501034 C251.99324,30.6968484 252.681457,30.084335 253.488214,29.6701034 C254.247044,29.2809062 255.085482,29.0721522 255.938214,29.0601034 C256.753987,29.0629858 257.555682,29.2728717 258.268214,29.6701034 C258.984461,30.0722022 259.549788,30.6972221 259.878214,31.4501034 C259.878214,31.5801034 259.968214,31.7101034 260.008214,31.8401034 C260.191708,32.6164162 260.449566,33.3732456 260.778214,34.1001034 C261.703164,36.3522126 263.349138,38.2338278 265.458214,39.4501034 C267.568429,40.7289236 269.990769,41.4002578 272.458214,41.3901034 C275.073688,41.3725245 277.643888,40.7059218 279.938214,39.4501034 C284.738207,36.9105214 288.045565,32.2408734 288.848214,26.8701034 C289.01823,25.6694254 289.01823,24.4507813 288.848214,23.2501034 C288.84796,23.1943036 288.826513,23.1406849 288.788214,23.1001034 L288.788214,23.1001034 Z" id="Path" stroke="#FFFFFF"></path>
                <path d="M28.5782138,63.5601034 C28.5733227,63.3186762 28.5934298,63.0773909 28.6382138,62.8401034 L32.9282138,29.7601034 C32.9780774,29.0829119 33.2133323,28.4325011 33.6082138,27.8801034 C33.9842024,27.3594461 34.4775168,26.9346476 35.0482138,26.6401034 C35.6055642,26.355892 36.2225838,26.2084929 36.8482138,26.2101034 L40.6982138,26.2101034 C41.9984093,26.2093842 43.2753984,26.5545164 44.3982138,27.2101034 C45.0450625,27.5823979 45.6234135,28.062666 46.1082138,28.6301034 C46.0098093,28.236771 45.8793738,27.8521534 45.7182138,27.4801034 C45.1568312,26.1811266 44.1880765,25.1000526 42.9582138,24.4001034 C41.8359625,23.7431693 40.5586007,23.3979364 39.2582138,23.4001034 L35.4082138,23.4001034 C34.1261506,23.4181365 32.9267423,24.03635 32.1682138,25.0701034 C31.7734487,25.6263118 31.5383011,26.2798838 31.4882138,26.9601034 L27.1982138,60.0301034 C27.059104,60.7297124 27.1358251,61.4550759 27.4182138,62.1101034 C27.6702099,62.6872964 28.0704148,63.1875527 28.5782138,63.5601034 Z" id="Path" fill="#D3ECF0"></path>
                <path d="M69.0082138,18.0001034 C68.5773062,17.0092853 68.082947,16.0472888 67.5282138,15.1201034 C67.5301162,15.1433979 67.5301162,15.1668088 67.5282138,15.1901034 C69.6571815,20.0888287 70.4075212,25.4760598 69.6982138,30.7701034 L66.3982138,56.3401034 C64.6374512,67.9531129 57.4673295,78.0402718 47.0782138,83.5201034 C42.0769387,86.1998315 36.5018495,87.6304852 30.8282138,87.6901034 L11.5282138,87.6901034 C9.58340593,87.7041357 7.67392123,87.1704503 6.01821383,86.1501034 C5.08261743,85.5971045 4.26397393,84.8667793 3.60821383,84.0001034 C3.70821383,84.3101034 3.79821383,84.6201034 3.92821383,84.9301034 C4.63834343,86.6119868 5.87768863,88.0163441 7.45821383,88.9301034 C9.11668663,89.9429815 11.0249456,90.4728611 12.9682138,90.4601034 L32.2682138,90.4601034 C37.9410681,90.4039592 43.5162018,88.976725 48.5182138,86.3001034 C58.9150135,80.8250418 66.0931271,70.7370828 67.8582138,59.1201034 L71.1582138,33.5501034 C71.8692597,28.2676984 71.1259124,22.8913957 69.0082138,18.0001034 L69.0082138,18.0001034 Z" id="Path" fill="#D3ECF0"></path>
                <path d="M103.558214,38.0001034 C103.553409,37.9201755 103.553409,37.8400312 103.558214,37.7601034 L103.558214,37.5701034 L104.558214,29.7601034 C104.605774,29.0807894 104.845032,28.4288967 105.248214,27.8801034 C106.001306,26.8360267 107.210875,26.2182162 108.498214,26.2201034 L112.368214,26.2201034 C113.671547,26.2195289 114.951723,26.5645898 116.078214,27.2201034 C116.721951,27.5926863 117.296965,28.0729921 117.778214,28.6401034 C117.680245,28.2478757 117.553228,27.8634812 117.398214,27.4901034 C116.830744,26.1950327 115.863529,25.1156759 114.638214,24.4101034 C113.511723,23.7545898 112.231547,23.4095289 110.928214,23.4101034 L107.058214,23.4101034 C106.432045,23.4138577 105.815503,23.5645679 105.258214,23.8501034 C104.684446,24.1355641 104.189865,24.5580187 103.818214,25.0801034 C103.419084,25.6302593 103.183378,26.2819175 103.138214,26.9601034 L102.088214,34.7701034 L102.088214,34.9601034 C102.086971,35.5104597 102.199314,36.0551515 102.418214,36.5601034 C102.667321,37.1305936 103.060104,37.62674 103.558214,38.0001034 L103.558214,38.0001034 Z" id="Path" fill="#D3ECF0"></path>
                <path d="M140.698214,18.0001034 C140.264591,17.0091169 139.773764,16.044158 139.228214,15.1101034 L139.228214,15.1901034 C141.355333,20.0893355 142.098938,25.4778761 141.378214,30.7701034 C140.579973,36.3683721 138.465447,41.6975248 135.208214,46.3201034 C132.907598,49.7689736 129.99247,52.7654541 126.608214,55.1601034 L123.868214,57.1001034 L126.108214,59.3401034 L128.048214,57.9701034 C131.429475,55.5752036 134.341275,52.5786604 136.638214,49.1301034 C139.901025,44.5095568 142.019205,39.1798331 142.818214,33.5801034 C143.54425,28.2906144 142.811186,22.9032831 140.698214,18.0001034 L140.698214,18.0001034 Z" id="Path" fill="#D3ECF0"></path>
                <path d="M135.128214,70.9901034 C135.285436,71.5048666 135.40903,72.0293056 135.498214,72.5601034 C135.802584,74.6119011 135.525423,76.7079359 134.698214,78.6101034 C132.967298,82.8366677 129.366599,86.0159294 124.958214,87.2101034 C123.916171,87.5010998 122.840098,87.6524225 121.758214,87.6601034 C120.804104,87.6597108 119.854797,87.5250572 118.938214,87.2601034 C117.134287,86.7490482 115.516199,85.7281949 114.278214,84.3201034 L98.0482141,65.6601034 L96.8182141,75.6601034 C96.1327711,80.1146234 93.3762161,83.9804795 89.3882141,86.0801034 C87.4830081,87.1227592 85.3499651,87.6792051 83.1782138,87.7001034 C81.2331895,87.7157604 79.3232639,87.1819518 77.6682138,86.1601034 C76.7315623,85.6046738 75.910071,84.8748364 75.2482138,84.0101034 C75.3403647,84.3261506 75.4505452,84.6366592 75.5782138,84.9401034 C76.2813343,86.6232552 77.5181173,88.0286905 79.0982138,88.9401034 C80.7597932,89.9542853 82.6716238,90.4841949 84.6182141,90.4701034 C86.7861591,90.4539371 88.9163121,89.9007846 90.8182141,88.8601034 C94.8122211,86.7653446 97.5736581,82.8978485 98.2582141,78.4401034 L99.4882141,68.4401034 L115.698214,87.1301034 C116.934802,88.5329068 118.54908,89.5500756 120.348214,90.0601034 C121.266825,90.3325916 122.22004,90.4706898 123.178214,90.4701034 C124.260895,90.463802 125.337596,90.3090263 126.378214,90.0101034 C130.783738,88.8166548 134.383497,85.6419181 136.118214,81.4201034 C136.944902,79.5177915 137.222044,77.4219054 136.918214,75.3701034 C136.69104,73.7850568 136.076194,72.2805738 135.128214,70.9901034 Z" id="Path" fill="#D3ECF0"></path>
                <path d="M185.638214,65.3601034 C185.625401,64.8950671 185.523564,64.4367979 185.338214,64.0101034 C185.069358,63.3616371 184.613264,62.8080572 184.028214,62.4201034 C183.436919,62.0214721 182.741308,61.8058326 182.028214,61.8001034 L174.288214,61.8001034 C173.662045,61.8038577 173.045503,61.9545679 172.488214,62.2401034 C171.914446,62.5255641 171.419865,62.9480187 171.048214,63.4701034 C170.649251,64.0241103 170.413663,64.6789063 170.368214,65.3601034 L169.028214,75.6301034 C168.341967,80.0921612 165.581941,83.9651004 161.588214,86.0701034 C159.683008,87.1127592 157.549965,87.6692051 155.378214,87.6901034 C153.433189,87.7057604 151.523264,87.1719518 149.868214,86.1501034 C148.931562,85.5946738 148.110071,84.8648364 147.448214,84.0001034 C147.548214,84.3101034 147.648214,84.6201034 147.778214,84.9301034 C148.481997,86.6159678 149.722949,88.0221457 151.308214,88.9301034 C152.966045,89.9444588 154.874734,90.4744576 156.818214,90.4601034 C158.986159,90.4439371 161.116312,89.8907846 163.018214,88.8501034 C167.018447,86.7525505 169.781132,82.875879 170.458214,78.4101034 L171.768214,68.2201034 C171.80877,67.5378931 172.044834,66.8817738 172.448214,66.3301034 C173.197084,65.2851056 174.402596,64.6637463 175.688214,64.6601034 L183.428214,64.6601034 C184.140103,64.6640447 184.8353,64.8760799 185.428214,65.2701034 L185.638214,65.3601034 Z" id="Path" fill="#D3ECF0"></path>
                <path d="M174.898214,44.0901034 C174.897884,43.8654139 174.917966,43.641159 174.958214,43.4201034 L176.238214,33.4201034 C176.449436,32.1841862 176.908658,31.0038161 177.588214,29.9501034 C178.363889,28.7799284 179.437387,27.8375972 180.698214,27.2201034 C181.878535,26.5812006 183.196188,26.2380617 184.538214,26.2201034 C185.890158,26.2090632 187.21775,26.5799568 188.368214,27.2901034 C188.966882,27.6684577 189.503255,28.1373626 189.958214,28.6801034 C189.860731,28.2710009 189.723408,27.8724312 189.548214,27.4901034 C188.99546,26.2500093 188.082611,25.2047625 186.928214,24.4901034 C185.781052,23.7713491 184.451877,23.3965426 183.098214,23.4101034 C181.756188,23.4280617 180.438535,23.7712006 179.258214,24.4101034 C177.992367,25.0483813 176.921598,26.0155274 176.158214,27.2101034 C175.477389,28.2621677 175.021193,29.4435105 174.818214,30.6801034 L173.528214,40.6801034 C173.375493,41.4969374 173.520977,42.3414553 173.938214,43.0601034 C174.193074,43.4588363 174.518374,43.8078565 174.898214,44.0901034 Z" id="Path" fill="#D3ECF0"></path>
                <path d="M212.778214,17.9601034 C212.340601,16.9527349 211.839598,15.9741075 211.278214,15.0301034 L211.338214,15.1501034 C213.401394,19.9407143 214.173692,25.188205 213.578214,30.3701034 L207.698214,75.6401034 C207.018158,80.1021748 204.255875,83.974569 200.258214,86.0701034 C198.353933,87.115087 196.220295,87.6716882 194.048214,87.6901034 C192.103406,87.7041357 190.193921,87.1704503 188.538214,86.1501034 C187.604565,85.5944433 186.786396,84.8645415 186.128214,84.0001034 C186.228214,84.3101034 186.318214,84.6201034 186.448214,84.9301034 C187.158343,86.6119868 188.397689,88.0163441 189.978214,88.9301034 C191.636687,89.9429815 193.544945,90.4728611 195.488214,90.4601034 C197.659495,90.4451719 199.793181,89.891994 201.698214,88.8501034 C205.698447,86.7525505 208.461132,82.875879 209.138214,78.4101034 L215.018214,33.2201034 C215.622221,28.0250237 214.849732,22.7624452 212.778214,17.9601034 Z" id="Path" fill="#D3ECF0"></path>
                <path d="M244.788214,61.9301034 C244.548558,60.9968035 244.480787,60.0276747 244.588214,59.0701034 L247.938214,33.6201034 C248.079908,32.2500266 248.568639,30.9387127 249.358214,29.8101034 C250.917234,27.5796595 253.457076,26.2389807 256.178214,26.2101034 C257.477403,26.2168963 258.752483,26.5615126 259.878214,27.2101034 C260.542427,27.5824873 261.137747,28.0661854 261.638214,28.6401034 L261.548214,28.3601034 L261.548214,28.2401034 L261.338214,27.6301034 L261.278214,27.5001034 C260.707524,26.1829445 259.715629,25.0925638 258.458214,24.4001034 C257.331082,23.7548961 256.056909,23.410525 254.758214,23.4001034 C253.464368,23.4104089 252.190711,23.7219755 251.038214,24.3101034 C248.525924,25.5741785 246.824648,28.0244664 246.518214,30.8201034 L243.168214,56.2701034 C242.997527,57.6104593 243.180235,58.9721507 243.698214,60.2201034 C243.966669,60.8453053 244.334785,61.4228087 244.788214,61.9301034 L244.788214,61.9301034 Z" id="Path" fill="#D3ECF0"></path>
                <path d="M286.368214,24.4501034 L286.288214,24.3701034 L286.198214,23.3701034 C286.133658,22.6022909 285.958516,21.8478319 285.678214,21.1301034 L285.618214,20.9701034 C285.297149,19.9500333 284.919906,18.9485035 284.488214,17.9701034 C284.077349,17.0192819 283.602943,16.0971974 283.068214,15.2101034 C283.491917,16.1587581 283.86249,17.1302606 284.178214,18.1201034 L284.238214,18.2901034 C284.519462,19.0075387 284.694636,19.7621373 284.758214,20.5301034 L284.848214,21.5301034 L284.928214,21.6101034 C284.964452,22.2778028 284.937667,22.9474316 284.848214,23.6101034 C284.16013,28.0707149 281.410774,31.9464918 277.428214,34.0701034 C275.536166,35.1083268 273.416316,35.6614806 271.258214,35.6801034 C269.305654,35.7159043 267.381283,35.2105839 265.698214,34.2201034 C264.738464,33.6514349 263.902077,32.8966463 263.238214,32.0001034 C263.332796,32.3101161 263.446343,32.6140224 263.578214,32.9101034 L263.628214,33.0201034 C264.320991,34.706572 265.556062,36.1140602 267.138214,37.0201034 C268.81497,38.0342579 270.738629,38.5670698 272.698214,38.5601034 C274.856316,38.5414806 276.976166,37.9883268 278.868214,36.9501034 C280.873612,35.893371 282.590143,34.3622252 283.868214,32.4901034 C285.133717,30.7102713 285.953358,28.6525935 286.258214,26.4901034 C286.365852,25.8157927 286.402719,25.1320786 286.368214,24.4501034 L286.368214,24.4501034 Z" id="Path" fill="#D3ECF0"></path>
                <path d="M281.058214,54.3501034 C281.573325,55.9189384 281.720456,57.5852802 281.488214,59.2201034 L279.358214,75.6301034 C279.075559,77.8018194 278.246339,79.8662682 276.948214,81.6301034 C275.648102,83.5200183 273.894561,85.0535067 271.848214,86.0901034 C269.975205,87.0894138 267.890884,87.627635 265.768214,87.6601034 C263.869611,87.6719799 262.004531,87.1598612 260.378214,86.1801034 L260.288214,86.1301034 L258.618214,85.2901034 L257.478214,85.6901034 C253.906801,86.976875 250.144184,87.6529966 246.348214,87.6901034 C241.205142,87.6860998 236.15697,86.3049308 231.728214,83.6901034 C228.310351,81.7458774 225.462246,78.9391492 223.468214,75.5501034 C225.407238,80.1688526 228.817081,84.0181085 233.168214,86.5001034 C237.593664,89.1141137 242.638405,90.4952884 247.778214,90.5001034 C251.574796,90.4695339 255.338503,89.7932164 258.908214,88.5001034 L260.058214,88.1001034 L261.728214,88.9501034 L261.818214,89.0001034 C263.445345,89.9768378 265.310497,90.4855155 267.208214,90.4701034 C269.326926,90.4410536 271.408035,89.9062053 273.278214,88.9101034 C275.328208,87.8789179 277.082978,86.3443537 278.378214,84.4501034 C279.677609,82.6859918 280.510053,80.6220796 280.798214,78.4501034 L282.928214,62.0401034 C283.215794,60.0820271 282.959809,58.0825759 282.188214,56.2601034 C281.89643,55.5768939 281.516542,54.9347815 281.058214,54.3501034 Z" id="Path" fill="#D3ECF0"></path>
            </g>
        </g>
    </g>
</svg>