<?xml version="1.0" encoding="UTF-8"?>
<svg width="684px" height="112px" viewBox="0 0 684 112" version="1.1" xmlns="http://www.w3.org/2000/svg" xmlns:xlink="http://www.w3.org/1999/xlink">
    <!-- Generator: Sketch 55 (78076) - https://sketchapp.com -->
    <title>Drag It Out</title>
    <desc>Created with Sketch.</desc>
    <g id="Page-1" stroke="none" stroke-width="1" fill="none" fill-rule="evenodd">
        <g id="Drag-It-Out" transform="translate(-0.003729, 0.909905)" fill-rule="nonzero">
            <g id="Out" transform="translate(446.436427, 0.049783)">
                <path d="M227.127302,16.7703121 C225.727623,13.4123801 223.26972,10.6033476 220.127302,8.77031213 C217.135376,6.98409394 213.71181,6.05039428 210.227302,6.07031213 L171.527302,6.07031213 C168.021701,6.10162326 164.573695,6.96533856 161.467302,8.59031213 C158.678475,10.00156 156.226231,11.9967798 154.277302,14.4403121 C152.852467,12.1056514 150.87411,10.158206 148.517302,8.77031213 C145.521063,6.98563426 142.094735,6.05212426 138.607302,6.07031213 C135.101701,6.10162326 131.653695,6.96533856 128.547302,8.59031213 C125.244679,10.2602884 122.419852,12.7410442 120.337302,15.8003121 C119.352449,17.2415159 118.530743,18.7876642 117.887302,20.4103121 C117.627968,19.1733448 117.249537,17.9643768 116.757302,16.8003121 C115.360779,13.4404161 112.902085,10.6304799 109.757302,8.80031213 C106.765376,7.01409394 103.34181,6.08039428 99.8573018,6.10031213 C96.380144,6.12297606 92.9574013,6.96581359 89.8673018,8.56031213 C86.5591144,10.2305923 83.7303594,12.7152165 81.6473018,15.7803121 C80.1067812,18.021176 78.982185,20.5210314 78.3273018,23.1603121 C75.5616354,18.1592646 71.4811646,14.0096333 66.5273018,11.1603121 C60.7656746,7.78552856 54.2045012,6.017465 47.5273018,6.04031213 C40.6460644,6.1345117 33.8836531,7.84738185 27.7873018,11.0403121 C21.1832239,14.3411365 15.5313666,19.2736039 11.3673018,25.3703121 C7.26852031,31.181041 4.61820025,37.8874137 3.63730184,44.9303121 L0.347301843,70.4703121 C-0.575018328,77.1837725 0.347993739,84.0216671 3.01730184,90.2503121 C5.6729522,96.609473 10.3231158,101.933472 16.2673018,105.420312 C22.0432499,108.901351 28.6635066,110.731087 35.4073018,110.710312 C42.4424103,110.658618 49.3600657,108.901753 55.5673018,105.590312 C62.0825939,102.22886 67.6546891,97.2926922 71.7773018,91.2303121 C72.5273018,90.1403121 73.1973018,89.0303121 73.8373018,87.9103121 C74.1273018,88.7403121 74.4473018,89.5703121 74.8373018,90.3803121 C77.5329583,96.7808172 82.2498386,102.122868 88.2673018,105.590312 C94.0143034,108.956473 100.557056,110.724225 107.217302,110.710312 C114.098244,110.613871 120.860143,108.90113 126.957302,105.710312 C133.579546,102.387537 139.239635,97.4229094 143.397302,91.2903121 C147.358672,85.6270423 149.956379,79.1242185 150.987302,72.2903121 L154.987302,41.5403121 C155.897831,42.3998648 156.904486,43.1515007 157.987302,43.7803121 C160.468877,45.2502977 163.252554,46.136013 166.127302,46.3703121 L160.477302,89.8703121 C160.049925,93.3321831 160.55034,96.8454442 161.927302,100.050312 C163.340029,103.425076 165.829302,106.237815 169.007302,108.050312 C171.962652,109.786588 175.329666,110.698271 178.757302,110.690312 C182.21788,110.659149 185.621465,109.805682 188.687302,108.200312 C191.965982,106.526027 194.782152,104.070464 196.887302,101.050312 C198.979614,98.1509608 200.316549,94.7759733 200.777302,91.2303121 L206.587302,46.4003121 C213.781583,46.2240915 220.463586,42.6380833 224.587302,36.7403121 C226.657782,33.8122098 227.998364,30.4316126 228.497302,26.8803121 C228.92834,23.4485123 228.456107,19.9636366 227.127302,16.7703121 L227.127302,16.7703121 Z" id="Path" fill="#F45DD7"></path>
                <path d="M231.307302,13.8703121 C229.910779,10.5104161 227.452085,7.70047992 224.307302,5.87031213 C221.315376,4.08409394 217.89181,3.15039428 214.407302,3.17031213 L175.707302,3.17031213 C172.201701,3.20162326 168.753695,4.06533856 165.647302,5.69031213 C162.858475,7.10156002 160.406231,9.09677977 158.457302,11.5403121 C157.032467,9.20565144 155.05411,7.25820603 152.697302,5.87031213 C149.702265,4.08280551 146.275134,3.1490767 142.787302,3.17031213 C139.301686,3.20843617 135.874719,4.07203181 132.787302,5.69031213 C129.477375,7.35801621 126.648029,9.84315923 124.567302,12.9103121 C123.580525,14.3468013 122.758679,15.8898603 122.117302,17.5103121 C121.862567,16.2721504 121.483997,15.0627355 120.987302,13.9003121 C119.590779,10.5404161 117.132085,7.73047992 113.987302,5.90031213 C110.995376,4.11409394 107.57181,3.18039428 104.087302,3.20031213 C100.581555,3.23047741 97.1332838,4.09425898 94.0273018,5.72031213 C90.720278,7.3883113 87.8942467,9.87356666 85.8173018,12.9403121 C84.2697966,15.1784991 83.1415002,17.6790477 82.4873018,20.3203121 C79.7245207,15.3171123 75.6433651,11.1667846 70.6873018,8.32031213 C64.9408694,4.95279389 58.3977394,3.1849403 51.7373018,3.20031213 C44.8560644,3.2945117 38.0936531,5.00738185 31.9973018,8.20031213 C25.3841829,11.514441 19.7283689,16.4645691 15.5673018,22.5803121 C11.4864011,28.3717524 8.84660905,35.0535117 7.86730184,42.0703121 L4.58730184,67.6103121 C3.65654695,74.319582 4.57632088,81.1556461 7.24730184,87.3803121 C9.90606035,93.7375377 14.5554515,99.0606519 20.4973018,102.550312 C26.2556771,106.033062 32.8576343,107.872895 39.5873018,107.870312 C54.1485081,107.64456 67.7002375,100.386169 75.9573018,88.3903121 C76.7073018,87.3003121 77.3773018,86.1903121 78.0173018,85.0703121 C78.3173018,85.9003121 78.6273018,86.7303121 79.0173018,87.5403121 C81.7027699,93.9440821 86.4178945,99.2881243 92.4373018,102.750312 C98.1994996,106.123733 104.760294,107.891695 111.437302,107.870312 C118.321437,107.773942 125.086599,106.061243 131.187302,102.870312 C137.804641,99.5442693 143.460731,94.5801291 147.617302,88.4503121 C151.578672,82.7870423 154.176379,76.2842185 155.207302,69.4503121 L159.207302,38.7103121 C160.120697,39.563573 161.126999,40.311591 162.207302,40.9403121 C164.687426,42.4135314 167.471869,43.2994905 170.347302,43.5303121 L164.707302,87.0203121 C164.279925,90.4821831 164.78034,93.9954442 166.157302,97.2003121 C167.566794,100.577105 170.056895,103.390779 173.237302,105.200312 C176.193225,106.935226 179.559859,107.846807 182.987302,107.840312 C186.44788,107.809149 189.851465,106.955682 192.917302,105.350312 C196.197841,103.678777 199.014623,101.22268 201.117302,98.2003121 C203.211477,95.3019818 204.548606,91.9265052 205.007302,88.3803121 L210.817302,43.5503121 C218.014546,43.3853141 224.7013,39.7967561 228.817302,33.8903121 C230.889498,30.9631395 232.230251,27.5821112 232.727302,24.0303121 C233.155724,20.5776991 232.665916,17.0731622 231.307302,13.8703121 L231.307302,13.8703121 Z" id="Path" fill="#F4E94C"></path>
                <path d="M43.8673018,104.710312 C37.1235066,104.731087 30.5032499,102.901351 24.7273018,99.4203121 C18.7831158,95.9334715 14.1329522,90.609473 11.4773018,84.2503121 C8.82835066,78.016021 7.92610707,71.1783282 8.86730184,64.4703121 L12.1573018,38.9303121 C13.1322153,31.8891615 15.7756253,25.1829227 19.8673018,19.3703121 C24.02899,13.2576428 29.6848631,8.3109054 36.2973018,5.00031213 C42.3936531,1.80738185 49.1560644,0.0945117044 56.0373018,0.000312127744 C62.7145012,-0.0225350012 69.2756746,1.74552856 75.0373018,5.12031213 C81.0452372,8.57704105 85.7527589,13.9098903 88.4373018,20.3003121 C91.1675439,26.6071724 92.125268,33.5394351 91.2073018,40.3503121 L87.8673018,65.9403121 C85.7728038,80.3180499 76.926167,92.8260049 64.0673018,99.5903121 C57.8481038,102.908026 50.9159617,104.665084 43.8673018,104.710312 Z" id="Path" fill="#3A6BF9"></path>
                <path d="M115.677302,104.710312 C109.017056,104.724225 102.474303,102.956473 96.7273018,99.5903121 C90.7098386,96.1228685 85.9929583,90.7808172 83.2973018,84.3803121 C80.6370578,78.2437589 79.6436001,71.5137728 80.4173018,64.8703121 L86.4173018,19.4503121 C87.3945738,12.1788584 91.8799331,5.85076405 98.4173018,2.52031213 C101.523284,0.894258985 104.971555,0.030477411 108.477302,0.000312127744 C111.96181,-0.019605723 115.385376,0.91409394 118.377302,2.70031213 C121.522085,4.53047992 123.980779,7.34041609 125.377302,10.7003121 C125.869537,11.8643768 126.247968,13.0733448 126.507302,14.3103121 C127.126888,12.7158219 127.918216,11.1935208 128.867302,9.77031213 C130.949852,6.71104425 133.774679,4.23028845 137.077302,2.56031213 C140.183695,0.935338557 143.631701,0.0716232631 147.137302,0.0403121277 C150.624735,0.022124257 154.051063,0.955634262 157.047302,2.74031213 C160.18972,4.57334755 162.647623,7.38238011 164.047302,10.7403121 C165.394775,13.9356319 165.877611,17.4292968 165.447302,20.8703121 L159.507302,66.2503121 C158.476379,73.0842185 155.878672,79.5870423 151.917302,85.2503121 C147.759635,91.3829094 142.099546,96.3475374 135.477302,99.6703121 C129.365538,102.884151 122.581831,104.610912 115.677302,104.710312 Z" id="Path" fill="#3A6BF9"></path>
                <path d="M187.257302,104.710312 C183.829666,104.718271 180.462652,103.806588 177.507302,102.070312 C174.329302,100.257815 171.840029,97.4450765 170.427302,94.0703121 C169.046798,90.8593917 168.546315,87.3387484 168.977302,83.8703121 L174.617302,40.3803121 C171.742554,40.146013 168.958877,39.2602977 166.477302,37.7903121 C163.33864,35.9527299 160.881986,33.1451251 159.477302,29.7903121 C158.053625,26.5527888 157.561841,22.9821591 158.057302,19.4803121 C159.039105,12.2156126 163.524093,5.89551683 170.057302,2.57031213 C173.163695,0.945338557 176.611701,0.0816232631 180.117302,0.0503121277 L218.847302,0.0503121277 C222.33181,0.030394277 225.755376,0.96409394 228.747302,2.75031213 C231.88972,4.58334755 234.347623,7.39238011 235.747302,10.7503121 C237.05072,13.9538877 237.495376,17.4421984 237.037302,20.8703121 C236.538364,24.4216126 235.197782,27.8022098 233.127302,30.7303121 C229.003586,36.6280833 222.321583,40.2140915 215.127302,40.3903121 L209.317302,85.2203121 C208.856549,88.7659733 207.519614,92.1409608 205.427302,95.0403121 C203.322152,98.0604639 200.505982,100.516027 197.227302,102.190312 C194.15206,103.812263 190.733892,104.676234 187.257302,104.710312 L187.257302,104.710312 Z" id="Path" fill="#3A6BF9"></path>
                <path d="M73.5773018,9.00031213 C68.6966107,6.13567014 63.1365451,4.6334164 57.4773018,4.65031213 C51.481691,4.72775458 45.5888559,6.21809369 40.2773018,9.00031213 C34.5166725,11.8840688 29.5928406,16.1984474 25.9773018,21.5303121 C22.3847293,26.5962387 20.0596897,32.4499889 19.1973018,38.6003121 L15.8673018,64.1603121 C15.0762066,69.8649014 15.8576371,75.6772231 18.1273018,80.9703121 C20.3160732,86.2218888 24.1566412,90.6171276 29.0673018,93.4903121 C33.9655919,96.4499372 39.5843574,98.0034013 45.3073018,97.9803121 C57.9923654,97.7493218 69.7891766,91.4209598 76.9973018,80.9803121 C80.5097718,75.9814221 82.7854844,70.2201678 83.6373018,64.1703121 L86.9373018,38.6103121 C87.7299438,32.8115556 86.9135431,26.9064873 84.5773018,21.5403121 C82.3874326,16.2656233 78.5217294,11.8587217 73.5773018,9.00031213 L73.5773018,9.00031213 Z M57.9273018,38.5303121 L54.6373018,64.0903121 C54.4962791,64.96365 54.153913,65.7921761 53.6373018,66.5103121 C52.6135134,68.0036753 50.9277429,68.9062339 49.1173018,68.9303121 C48.3092022,68.9348511 47.5159576,68.7131583 46.8273018,68.2903121 C46.128029,67.8761055 45.5756309,67.2537835 45.2473018,66.5103121 C44.904561,65.7527844 44.793236,64.9108887 44.9273018,64.0903121 L48.2173018,38.5303121 C48.3563366,37.6472046 48.698672,36.8084829 49.2173018,36.0803121 C49.7246244,35.329063 50.412271,34.7170576 51.2173018,34.3003121 C51.9796572,33.9109784 52.8213674,33.7022617 53.6773018,33.6903121 C54.4898566,33.6935752 55.2882257,33.9034912 55.9973018,34.3003121 C56.7125854,34.694805 57.2704467,35.3232817 57.5773018,36.0803121 C57.9191161,36.8486607 58.0403059,37.6969895 57.9273018,38.5303121 L57.9273018,38.5303121 Z" id="Shape" fill="#FFFFFF"></path>
                <path d="M155.557302,6.55031213 C153.441585,5.28885264 151.020469,4.6316927 148.557302,4.65031213 C143.1285,4.73696855 138.070631,7.42210183 134.957302,11.8703121 C133.444772,14.025169 132.483397,16.5178771 132.157302,19.1303121 L126.277302,64.0503121 C126.187237,64.9374071 125.866618,65.7854949 125.347302,66.5103121 C124.821209,67.268699 124.108191,67.8783814 123.277302,68.2803121 C122.508277,68.6709355 121.659782,68.879638 120.797302,68.8903121 C119.993114,68.8957294 119.202232,68.6850577 118.507302,68.2803121 C117.805982,67.8817837 117.259806,67.2580858 116.957302,66.5103121 C116.632096,65.7337013 116.508268,64.8875435 116.597302,64.0503121 L122.477302,19.1303121 C122.784001,16.6645066 122.439217,14.1613774 121.477302,11.8703121 C120.554883,9.62338243 118.921539,7.74064598 116.827302,6.51031213 C114.712394,5.24694672 112.290734,4.58963915 109.827302,4.61031213 C107.214687,4.6360944 104.646295,5.28762233 102.337302,6.51031213 C97.4843246,9.00919105 94.1577824,13.7208591 93.4273018,19.1303121 L87.4873018,64.4403121 C86.8245809,70.0905702 87.673484,75.8154902 89.9473018,81.0303121 C92.1508193,86.3177794 96.0388042,90.7295525 101.007302,93.5803121 C105.888967,96.4524644 111.453418,97.9584239 117.117302,97.9403121 C123.114369,97.8646819 129.008374,96.3706202 134.317302,93.5803121 C140.083081,90.6951066 145.008094,86.3728053 148.617302,81.0303121 C152.090937,76.0920772 154.364531,70.4115152 155.257302,64.4403121 L161.197302,19.1303121 C161.509213,16.6644751 161.164244,14.1599985 160.197302,11.8703121 C159.268249,9.64086619 157.63979,7.77375361 155.557302,6.55031213 L155.557302,6.55031213 Z" id="Path" fill="#FFFFFF"></path>
                <path d="M231.867302,11.8703121 C230.944883,9.62338243 229.311539,7.74064598 227.217302,6.51031213 C225.102394,5.24694672 222.680734,4.58963915 220.217302,4.61031213 L181.467302,4.61031213 C178.854838,4.63725658 176.286716,5.28871599 173.977302,6.51031213 C169.122406,9.00501686 165.797483,13.7196829 165.077302,19.1303121 C164.721688,21.6060115 165.068164,24.1318216 166.077302,26.4203121 C167.028558,28.6710479 168.684949,30.5520344 170.797302,31.7803121 C172.875592,33.0145407 175.250175,33.6608974 177.667302,33.6503121 L182.507302,33.6503121 L176.057302,83.4203121 C175.737583,85.8959976 176.082737,88.4121689 177.057302,90.7103121 C177.991374,92.9686692 179.64777,94.8536554 181.767302,96.0703121 C183.860972,97.3027246 186.247853,97.9486678 188.677302,97.9403121 C191.244596,97.9123647 193.768029,97.2712205 196.037302,96.0703121 C198.490193,94.8147388 200.595665,92.9737384 202.167302,90.7103121 C203.731129,88.5625722 204.728505,86.0553757 205.067302,83.4203121 L211.527302,33.6503121 L216.367302,33.6503121 C221.755996,33.5420532 226.770301,30.8714719 229.867302,26.4603121 C231.435067,24.3047257 232.46376,21.8050027 232.867302,19.1703121 C233.18113,16.6913824 232.836218,14.1735234 231.867302,11.8703121 L231.867302,11.8703121 Z" id="Path" fill="#FFFFFF"></path>
                <path d="M42.5373018,66.4903121 C42.3024738,65.5897187 42.2514593,64.6510507 42.3873018,63.7303121 L45.6873018,38.1103121 C45.8902162,36.7951455 46.3969625,35.5453996 47.1673018,34.4603121 C48.7208763,32.2288724 51.2584452,30.8874263 53.9773018,30.8603121 C55.2789655,30.872144 56.5560201,31.2163636 57.6873018,31.8603121 C58.3354593,32.2224017 58.9143933,32.6963828 59.3973018,33.2603121 C59.3096678,32.9025056 59.1960325,32.5515731 59.0573018,32.2103121 C58.5045045,30.8723161 57.5137512,29.7616852 56.2473018,29.0603121 C55.1182745,28.4109025 53.839761,28.0662897 52.5373018,28.0603121 C51.2435926,28.0717131 49.9701832,28.3832192 48.8173018,28.9703121 C47.577265,29.5925436 46.514415,30.5178078 45.7273018,31.6603121 C44.9568283,32.7490391 44.4501456,34.0020518 44.2473018,35.3203121 L40.9473018,60.9303121 C40.7368904,62.2897061 40.9316666,63.6809647 41.5073018,64.9303121 C41.777625,65.494999 42.1241941,66.0198998 42.5373018,66.4903121 Z" id="Path" fill="#D3ECF0"></path>
                <path d="M82.2573018,22.6503121 C81.8264201,21.6530245 81.3320738,20.684373 80.7773018,19.7503121 L80.7773018,19.8403121 C82.899475,24.7409299 83.6428893,30.1280907 82.9273018,35.4203121 L79.6373018,60.9903121 C78.8317913,66.5975412 76.7144084,71.9355389 73.4573018,76.5703121 C66.7804332,86.2422933 55.8578445,92.1110914 44.1073018,92.3403121 C38.8993466,92.3539892 33.7873424,90.9393683 29.3273018,88.2503121 C25.9249219,86.2671589 23.0852368,83.448126 21.0773018,80.0603121 C23.0304448,84.6798419 26.4310037,88.5401254 30.7673018,91.0603121 C35.2277461,93.7472866 40.3400893,95.1585423 45.5473018,95.1403121 C51.2438808,95.0954608 56.8443586,93.667888 61.8673018,90.9803121 C67.1336181,88.2630003 71.6368676,84.2719525 74.9673018,79.3703121 C78.2229558,74.7384662 80.3402733,69.4040595 81.1473018,63.8003121 L84.4373018,38.2303121 C85.144495,32.935354 84.3906541,27.5478126 82.2573018,22.6503121 Z" id="Path" fill="#D3ECF0"></path>
                <path d="M118.457302,16.0303121 L112.597302,60.9203121 C112.439979,62.2492718 112.629462,63.5963243 113.147302,64.8303121 C113.413922,65.4777046 113.781855,66.0785497 114.237302,66.6103121 C113.99956,65.6699569 113.928485,64.695208 114.027302,63.7303121 L119.867302,18.8703121 C120.127714,16.891303 119.854988,14.8786527 119.077302,13.0403121 C118.784807,12.357463 118.404972,11.7154397 117.947302,11.1303121 C118.48019,12.7052619 118.654435,14.3793807 118.457302,16.0303121 Z" id="Path" fill="#D3ECF0"></path>
                <path d="M157.867302,13.0103121 C157.578231,12.3278428 157.201749,11.6858065 156.747302,11.1003121 C157.269613,12.6879911 157.433544,14.3716989 157.227302,16.0303121 L151.297302,61.3103121 C150.448646,66.835106 148.333514,72.0887106 145.117302,76.6603121 C141.77183,81.6072584 137.208584,85.6091392 131.867302,88.2803121 C126.948243,90.8617592 121.491875,92.2523965 115.937302,92.3403121 C110.774589,92.3416649 105.705699,90.960496 101.257302,88.3403121 C97.7602641,86.3478864 94.8546849,83.463012 92.8373018,79.9803121 C94.7935421,84.6945382 98.2622935,88.6241481 102.697302,91.1503121 C107.145508,93.770949 112.214524,95.1521522 117.377302,95.1503121 C122.927074,95.0813114 128.383257,93.7112717 133.307302,91.1503121 C138.636997,88.4699552 143.191631,84.4695882 146.537302,79.5303121 C149.755256,74.9559494 151.870483,69.6986866 152.717302,64.1703121 L158.627302,18.8703121 C158.897251,16.8841422 158.634982,14.861909 157.867302,13.0103121 Z" id="Path" fill="#D3ECF0"></path>
                <path d="M184.167302,30.8703121 L184.527302,28.0603121 L176.467302,28.0603121 C174.552624,28.0746751 172.670803,27.5627091 171.027302,26.5803121 C170.062333,26.0230144 169.224435,25.2702681 168.567302,24.3703121 C168.677302,24.7003121 168.777302,25.0203121 168.917302,25.3703121 C169.631354,27.0559937 170.878372,28.4610843 172.467302,29.3703121 C174.098351,30.3498675 175.964712,30.868301 177.867302,30.8703121 L184.167302,30.8703121 Z" id="Path" fill="#D3ECF0"></path>
                <path d="M229.477302,13.0103121 C229.184807,12.327463 228.804972,11.6854397 228.347302,11.1003121 C228.872652,12.6873061 229.039993,14.3709571 228.837302,16.0303121 C228.501172,18.1944115 227.662023,20.2494711 226.387302,22.0303121 C225.098371,23.9175869 223.350116,25.4455886 221.307302,26.4703121 C219.418701,27.4664705 217.322214,28.0042948 215.187302,28.0403121 L207.867302,28.0403121 L201.097302,80.2803121 C200.809141,82.4522883 199.976697,84.5162005 198.677302,86.2803121 C197.382067,88.1745625 195.627296,89.7091266 193.577302,90.7403121 C191.707712,91.7391676 189.626735,92.2774106 187.507302,92.3103121 C185.579444,92.3187984 183.685438,91.8038223 182.027302,90.8203121 C181.084026,90.2740013 180.260884,89.5426969 179.607302,88.6703121 C179.707302,88.9903121 179.807302,89.3003121 179.937302,89.6103121 C180.635221,91.2998395 181.877674,92.7077177 183.467302,93.6103121 C185.126243,94.5907878 187.020316,95.1023258 188.947302,95.0903121 C191.066015,95.0612624 193.147123,94.5264141 195.017302,93.5303121 C197.065584,92.4965851 198.819776,90.9625276 200.117302,89.0703121 C201.415427,87.306477 202.244648,85.2420282 202.527302,83.0703121 L209.297302,30.8703121 L216.627302,30.8703121 C218.759023,30.8342263 220.852248,30.2963599 222.737302,29.3003121 C224.798933,28.2880484 226.565532,26.7625057 227.867302,24.8703121 C229.148681,23.0931545 229.988506,21.0364411 230.317302,18.8703121 C230.567447,16.8769983 230.27733,14.8530893 229.477302,13.0103121 L229.477302,13.0103121 Z" id="Path" fill="#D3ECF0"></path>
            </g>
            <g id="It" transform="translate(313.310222, 0.089790)">
                <path d="M112.143506,8.70030571 C109.147867,6.91421577 105.721139,5.98059663 102.233506,6.00030571 L63.5035063,6.00030571 C60.0010975,6.0316721 56.5563486,6.89543005 53.4535063,8.52030571 C50.6598694,9.92849622 48.2037502,11.9240931 46.2535063,14.3703057 C44.8159443,12.0259666 42.8197708,10.0744579 40.4435063,8.69030571 C37.4419584,6.91065584 34.0129279,5.98080784 30.5235063,6.00030571 C23.2398468,6.1077375 16.4584445,9.73317948 12.3235063,15.7303057 C10.3035251,18.6275627 8.99794096,21.961771 8.51350629,25.4603057 L0.183506285,89.7203057 C-0.305047539,93.222162 0.186476859,96.7909061 1.60350629,100.030306 C3.02552768,103.389839 5.49945104,106.197128 8.65350629,108.030306 C11.6018519,109.775679 14.9672913,110.691327 18.3935063,110.680306 C25.655242,110.565339 32.4192831,106.967524 36.5735063,101.010306 C38.6359506,98.1048566 39.9731865,94.7480516 40.4735063,91.2203057 L46.9135063,41.4703057 C47.8508478,42.3383642 48.8842015,43.0966043 49.9935063,43.7303057 C52.4720967,45.1988514 55.252193,46.0845155 58.1235063,46.3203057 L52.4535063,89.8303057 C52.0309423,93.2921302 52.5311793,96.8041386 53.9035063,100.010306 C55.3162331,103.38507 57.8055063,106.197808 60.9835063,108.010306 C63.939999,109.743862 67.3062566,110.655341 70.7335063,110.650306 C74.1944272,110.621825 77.5986325,109.768203 80.6635063,108.160306 C83.9440453,106.48877 86.7608275,104.032674 88.8635063,101.010306 C90.958429,98.1123853 92.2956356,94.7367121 92.7535063,91.1903057 L98.5635063,46.3603057 C105.759479,46.1904874 112.444191,42.6030255 116.563506,36.7003057 C118.620519,33.8030575 119.95745,30.457301 120.463506,26.9403057 L120.463506,26.8303057 C120.888732,23.392595 120.406045,19.9034641 119.063506,16.7103057 C117.683318,13.3624866 115.255367,10.5520986 112.143506,8.70030571 L112.143506,8.70030571 Z" id="Path" fill="#F45DD7"></path>
                <path d="M116.323506,5.83030571 C113.328469,4.04279909 109.901339,3.10907028 106.413506,3.13030571 L67.6935063,3.13030571 C60.9850771,3.22881567 54.6648465,6.2937247 50.4335063,11.5003057 C48.9959443,9.15596657 46.9997708,7.20445789 44.6235063,5.82030571 C41.6205816,4.04391454 38.1924698,3.11431566 34.7035063,3.13030571 C27.4171456,3.23668748 20.6339436,6.86681868 16.5035063,12.8703057 C14.4819499,15.7630102 13.1761353,19.0943797 12.6935063,22.5903057 L4.37350629,86.8303057 C3.87614561,90.335419 4.36796626,93.9097776 5.79350629,97.1503057 C7.19943288,100.504343 9.65577773,103.311595 12.7935063,105.150306 C15.7418519,106.895679 19.1072913,107.811327 22.5335063,107.800306 C29.7921548,107.682731 36.5537417,104.089941 40.7135063,98.1403057 C42.7760526,95.2311929 44.1132189,91.8711339 44.6135063,88.3403057 L51.0535063,38.5903057 C51.967613,39.457146 52.9735647,40.2216692 54.0535063,40.8703057 C56.5359372,42.3367846 59.3195628,43.2190639 62.1935063,43.4503057 L56.5435063,86.9403057 C56.1199839,90.4021397 56.6202563,93.9143971 57.9935063,97.1203057 C59.4094454,100.493053 61.897899,103.304865 65.0735063,105.120306 C68.0331141,106.855132 71.4029293,107.766639 74.8335063,107.760306 C78.2940842,107.729142 81.697669,106.875676 84.7635063,105.270306 C88.0406632,103.602301 90.8542497,101.149431 92.9535063,98.1303057 C95.0529811,95.2311427 96.3905757,91.8510513 96.8435063,88.3003057 L102.663506,43.4703057 C109.86245,43.3117599 116.551942,39.7217323 120.663506,33.8103057 C122.722222,30.9139854 124.059324,27.5678022 124.563506,24.0503057 L124.563506,23.9503057 C125.033534,20.5239616 124.595597,17.0342595 123.293506,13.8303057 C121.901612,10.4768491 119.454728,7.66837342 116.323506,5.83030571 Z" id="Path" fill="#F4E94C"></path>
                <path d="M26.8935063,104.670306 C23.4672913,104.681327 20.1018519,103.765679 17.1535063,102.020306 C13.999451,100.187128 11.5255277,97.3798387 10.1035063,94.0203057 C8.68647686,90.7809061 8.19495246,87.212162 8.68350629,83.7103057 L16.9935063,19.4603057 C17.477941,15.961771 18.7835251,12.6275627 20.8035063,9.73030571 C24.9384445,3.73317948 31.7198468,0.107737502 39.0035063,0.000305710146 C42.4929279,-0.0191921621 45.9219584,0.91065584 48.9235063,2.69030571 C52.0697158,4.51874324 54.528888,7.32922579 55.9235063,10.6903057 C57.2825975,13.9140949 57.7422351,17.4460468 57.2535063,20.9103057 L48.9935063,85.2103057 C48.4931865,88.7380516 47.1559506,92.0948566 45.0935063,95.0003057 C40.9392831,100.957524 34.175242,104.555339 26.9135063,104.670306 L26.8935063,104.670306 Z" id="Path" fill="#3A6BF9"></path>
                <path d="M79.2335063,104.670306 C75.8062566,104.675341 72.439999,103.763862 69.4835063,102.030306 C66.3055063,100.217808 63.8162331,97.4050701 62.4035063,94.0303057 C61.0412496,90.8144113 60.5547651,87.2951616 60.9935063,83.8303057 L66.6335063,40.3403057 C63.762193,40.1045155 60.9820967,39.2188514 58.5035063,37.7503057 C55.3503785,35.9159983 52.8767646,33.1090606 51.4535063,29.7503057 C50.0235713,26.5110204 49.5182449,22.9391246 49.9935063,19.4303057 C50.9786034,12.1669059 55.4626122,5.84819023 61.9935063,2.52030571 C65.0813319,0.903095957 68.5080374,0.0395661752 71.9935063,0.000305710145 L110.723506,0.000305710145 C114.211139,-0.0194033679 117.637867,0.914215768 120.633506,2.70030571 C123.773572,4.53618881 126.230693,7.34432644 127.633506,10.7003057 C128.964211,13.9001266 129.43312,17.3928112 128.993506,20.8303057 L128.993506,20.9403057 C128.48745,24.457301 127.150519,27.8030575 125.093506,30.7003057 C120.974191,36.6030255 114.289479,40.1904874 107.093506,40.3603057 L101.283506,85.1903057 C100.825636,88.7367121 99.488429,92.1123853 97.3935063,95.0103057 C95.2908275,98.0326737 92.4740453,100.48877 89.1935063,102.160306 C86.1213701,103.779784 82.7062338,104.640425 79.2335063,104.670306 Z" id="Path" fill="#3A6BF9"></path>
                <path d="M47.5035063,6.51030571 C45.3848063,5.25588997 42.9656856,4.59927151 40.5035063,4.61030571 C35.1020063,4.70769421 30.0760307,7.39367082 26.9935063,11.8303057 C25.477033,13.989755 24.4935282,16.477645 24.1235063,19.0903057 L15.7935063,83.3803057 C15.4432645,85.8560192 15.7895383,88.3803548 16.7935063,90.6703057 C17.7409227,92.9203309 19.3939531,94.8014865 21.5035063,96.0303057 C23.584909,97.2658173 25.963055,97.9122029 28.3835063,97.9003057 C33.7865637,97.7891646 38.8110561,95.1022504 41.9035063,90.6703057 C43.4499213,88.5090288 44.4578741,86.0097172 44.8435063,83.3803057 L53.1635063,19.0903057 C53.5186738,16.6307554 53.1971654,14.1209154 52.2335063,11.8303057 C51.285572,9.58456775 49.6229003,7.71450149 47.5035063,6.51030571 Z" id="Path" fill="#FFFFFF"></path>
                <path d="M119.173506,6.51030571 C117.059209,5.24550311 114.637139,4.5880839 112.173506,4.61030571 L73.4435063,4.61030571 C70.8342804,4.63768193 68.2695027,5.28916291 65.9635063,6.51030571 C61.110529,9.00918464 57.7839869,13.7208527 57.0535063,19.1303057 C56.6978922,21.6060051 57.0443682,24.1318152 58.0535063,26.4203057 C58.9977977,28.6722874 60.6516111,30.5543341 62.7635063,31.7803057 C64.844909,33.0158173 67.223055,33.6622029 69.6435063,33.6503057 L74.4835063,33.6503057 L67.9935063,83.4203057 C67.6737876,85.8959912 68.0189415,88.4121625 68.9935063,90.7103057 C69.9268868,92.9722189 71.5878051,94.8583465 73.7135063,96.0703057 C75.8036761,97.3023594 78.1872537,97.9483435 80.6135063,97.9403057 C83.1809515,97.9135185 85.7046546,97.2723059 87.9735063,96.0703057 C90.4282684,94.8174938 92.534357,92.9759547 94.1035063,90.7103057 C95.6701385,88.563143 96.6709032,86.0560727 97.0135063,83.4203057 L103.463506,33.6503057 L108.303506,33.6503057 C113.706564,33.5391646 118.731056,30.8522504 121.823506,26.4203057 C123.374038,24.2612921 124.382409,21.7609434 124.763506,19.1303057 C125.075418,16.6644687 124.730449,14.1599921 123.763506,11.8703057 C122.85666,9.63229846 121.245347,7.75067754 119.173506,6.51030571 Z" id="Path" fill="#FFFFFF"></path>
                <path d="M49.8135063,12.9703057 C49.5186633,12.2886506 49.1389988,11.6469169 48.6835063,11.0603057 C49.1938883,12.6335535 49.3409073,14.3020483 49.1135063,15.9403057 L40.7835063,80.2503057 C40.4539706,82.4179341 39.6104805,84.4752271 38.3235063,86.2503057 C37.0369086,88.13965 35.2880595,89.6681717 33.2435063,90.6903057 C31.3588628,91.6874139 29.2653796,92.2253465 27.1335063,92.2603057 C25.22362,92.2892807 23.3422596,91.7947319 21.6935063,90.8303057 C20.7359409,90.2670704 19.899767,89.5192726 19.2335063,88.6303057 C19.3435063,88.9503057 19.4435063,89.2803057 19.5835063,89.6303057 C20.3025582,91.3128244 21.5483109,92.7164894 23.1335063,93.6303057 C24.777007,94.6127027 26.6588282,95.1246687 28.5735063,95.1103057 C33.0481464,95.013956 37.2070136,92.7840004 39.7635063,89.1103057 C41.0521916,87.3361807 41.8958586,85.2784561 42.2235063,83.1103057 L50.5535063,18.8103057 C50.8476386,16.8326185 50.5916173,14.8121265 49.8135063,12.9703057 Z" id="Path" fill="#D3ECF0"></path>
                <path d="M76.1435063,30.8303057 L76.5135063,28.0203057 L68.4435063,28.0203057 C66.5244883,28.0334864 64.6388971,27.5179762 62.9935063,26.5303057 C62.0332445,25.9665475 61.1965605,25.2148923 60.5335063,24.3203057 C60.6435063,24.6503057 60.7435063,24.9703057 60.8835063,25.3203057 C61.5975586,27.0059873 62.8445765,28.4110779 64.4335063,29.3203057 C66.0788131,30.2984498 67.9594256,30.8100871 69.8735063,30.8003057 L76.1435063,30.8303057 Z" id="Path" fill="#D3ECF0"></path>
                <path d="M121.453506,12.9703057 C121.164436,12.2878364 120.787954,11.6458001 120.333506,11.0603057 C120.855817,12.6479847 121.019748,14.3316925 120.813506,15.9903057 C120.488085,18.1573641 119.647946,20.2148463 118.363506,21.9903057 C117.079609,23.8820415 115.330068,25.411168 113.283506,26.4303057 C111.398453,27.4263535 109.305228,27.9642199 107.173506,28.0003057 L99.8435063,28.0003057 L93.0635063,80.2403057 C92.7783094,82.4113563 91.9493352,84.4751923 90.6535063,86.2403057 C89.3533942,88.1302206 87.5998536,89.663709 85.5535063,90.7003057 C83.6834947,91.6980791 81.6027834,92.2362532 79.4835063,92.2703057 C77.557184,92.2937559 75.6603234,91.7962187 73.9935063,90.8303057 C73.0523039,90.2811302 72.2296887,89.5502944 71.5735063,88.6803057 C71.6835063,89.0003057 71.7735063,89.3103057 71.9135063,89.6203057 C72.607535,91.3091227 73.8466347,92.7171905 75.4335063,93.6203057 C77.0961479,94.6006678 78.9933904,95.1121285 80.9235063,95.1003057 C83.0420648,95.070102 85.1229063,94.5353224 86.9935063,93.5403057 C89.0398536,92.503709 90.7933942,90.9702206 92.0935063,89.0803057 C93.3916317,87.3164706 94.220852,85.2520217 94.5035063,83.0803057 L101.273506,30.8303057 L108.603506,30.8303057 C113.077055,30.7194739 117.23283,28.4931661 119.803506,24.8303057 C121.086581,23.0540884 121.926579,20.9969498 122.253506,18.8303057 C122.512302,16.8405877 122.23616,14.8178464 121.453506,12.9703057 L121.453506,12.9703057 Z" id="Path" fill="#D3ECF0"></path>
            </g>
            <g id="Drag">
                <path d="M300.013729,33.5800953 C299.842133,32.3355447 299.530145,31.1144305 299.083729,29.9400953 C298.689134,28.7173834 298.231862,27.5157936 297.713729,26.3400953 C295.009254,19.9718731 290.301062,14.6597961 284.303729,11.2100953 C278.543246,7.83257965 271.981311,6.06431103 265.303729,6.09009525 C258.419446,6.18534616 251.654028,7.89811007 245.553729,11.0900953 C238.944193,14.4009825 233.291634,19.3478325 229.133729,25.4600953 C228.343729,26.6100953 227.633729,27.7800953 226.953729,28.9500953 C226.663729,28.1000953 226.333729,27.2500953 225.953729,26.4100953 C223.2814,20.0114346 218.566153,14.6773337 212.543729,11.2400953 C206.77715,7.87829954 200.218671,6.11441403 193.543729,6.13009525 C179.106021,6.40019264 165.674971,13.5825126 157.433729,25.4400953 C156.523729,26.7700953 155.703729,28.1200953 154.943729,29.4400953 C154.593729,28.4400953 154.223729,27.4400953 153.793729,26.3900953 C151.103868,19.9879258 146.380626,14.6496794 140.353729,11.2000953 C134.586588,7.83964632 128.028482,6.07586094 121.353729,6.09009525 L102.053729,6.09009525 C94.8135792,6.20544702 88.0722804,9.80130267 83.9437287,15.7500953 C82.565233,17.7104806 81.4992222,19.8728632 80.7837287,22.1600953 L80.4837287,22.1600953 L80.3837287,22.9600953 C77.6056973,18.0608531 73.5610899,13.9989758 68.6737287,11.2000953 C62.9075249,7.83740045 56.3487977,6.07344805 49.6737287,6.09009525 L30.5337287,6.09009525 C27.0698125,6.1200575 23.6627057,6.97354802 20.5937287,8.58009525 C17.3122848,10.2512599 14.5004492,12.7159128 12.4137287,15.7500953 C10.3528896,18.6601355 9.01589367,22.0197663 8.51372874,25.5500953 L0.19372874,89.8100953 C-0.301984999,93.2677596 0.157959522,96.7951537 1.52372874,100.010095 C2.93274732,103.362203 5.388324,106.168576 8.52372874,108.010095 C11.5066559,109.813313 14.9281405,110.761227 18.4137287,110.750095 L37.7137287,110.750095 C44.7489909,110.699595 51.6669273,108.942659 57.8737287,105.630095 C63.2248247,102.865814 67.9522014,99.0335421 71.7637287,94.3700953 C71.9508786,96.3086391 72.433109,98.2072108 73.1937287,100.000095 C74.6027473,103.352203 77.058324,106.158576 80.1937287,108.000095 C83.1737523,109.801546 86.5915343,110.749392 90.0737287,110.740095 C93.6162869,110.716421 97.0998607,109.830941 100.223729,108.160095 C103.476566,106.474863 106.262494,104.011841 108.333729,100.990095 C108.846467,100.24701 109.317204,99.4758038 109.743729,98.6800953 L114.803729,104.490095 C117.094372,107.096023 120.081453,108.993739 123.413729,109.960095 C125.118805,110.460116 126.88685,110.712694 128.663729,110.710095 L128.663729,110.710095 C130.505598,110.70262 132.338306,110.450412 134.113729,109.960095 C138.933302,108.654864 143.206387,105.836521 146.303729,101.920095 C147.740517,104.452755 149.807312,106.571219 152.303729,108.070095 C155.286656,109.873313 158.70814,110.821227 162.193729,110.810095 C165.726968,110.764966 169.196391,109.862436 172.303729,108.180095 C175.556566,106.494863 178.342494,104.031841 180.413729,101.010095 C181.407911,99.5767108 182.239685,98.0372586 182.893729,96.4200953 C183.149738,97.6502562 183.524839,98.8525879 184.013729,100.010095 C185.422747,103.362203 187.878324,106.168576 191.013729,108.010095 C193.996656,109.813313 197.41814,110.761227 200.903729,110.750095 C204.443105,110.726404 207.923434,109.840876 211.043729,108.170095 C214.301392,106.487943 217.09126,104.024476 219.163729,101.000095 C220.716087,98.7632033 221.85727,96.2675001 222.533729,93.6300953 C225.285002,98.6318146 229.356184,102.782552 234.303729,105.630095 C240.027976,108.989628 246.546454,110.75735 253.183729,110.750095 C257.100947,110.737239 260.996495,110.168226 264.753729,109.060095 C267.221813,110.181798 269.902716,110.758226 272.613729,110.750095 C276.074453,110.72008 279.478303,109.866546 282.543729,108.260095 C285.822409,106.58581 288.638578,104.130247 290.743729,101.110095 C292.836041,98.210744 294.172976,94.8357565 294.633729,91.2900953 L296.773729,74.9200953 C297.267851,71.4525904 296.808057,67.9159834 295.443729,64.6900953 C294.049111,61.3290153 291.589938,58.5185328 288.443729,56.6900953 L287.943729,56.4000953 L288.263729,56.2300953 C294.680715,52.8332687 299.096203,46.5832549 300.153729,39.4000953 C300.383724,37.7212691 300.383724,36.0189214 300.153729,34.3400953 C300.122486,34.084162 300.075733,33.8303618 300.013729,33.5800953 Z M143.173729,72.7100953 C144.430746,71.4962433 145.61292,70.2072061 146.713729,68.8500953 L145.813729,75.7700953 L143.173729,72.7100953 Z M262.073729,56.5100953 C261.473729,56.8200953 260.903729,57.1500953 260.343729,57.5100953 L261.503729,48.7000953 C262.604861,51.1003825 264.272698,53.1971903 266.363729,54.8100953 C264.883,55.2392788 263.446515,55.8085157 262.073729,56.5100953 L262.073729,56.5100953 Z" id="Shape" fill="#F45DD7"></path>
                <path d="M304.193729,30.7100953 C304.019631,29.4670556 303.711159,28.2465782 303.273729,27.0700953 C302.873729,25.8600953 302.413729,24.6500953 301.893729,23.4700953 C299.18407,17.098871 294.468525,11.7864216 288.463729,8.34009525 C282.720791,4.97294177 276.180967,3.20504854 269.523729,3.22009525 C262.642491,3.31429483 255.88008,5.02716497 249.783729,8.22009525 C243.168611,11.53125 237.512113,16.4819775 233.353729,22.6000953 C232.563729,23.7400953 231.853729,24.9100953 231.173729,26.0900953 C230.883729,25.2300953 230.553729,24.3800953 230.173729,23.5400953 C227.501484,17.1439315 222.785933,11.8130034 216.763729,8.38009525 C211.000204,5.0098449 204.440291,3.24212082 197.763729,3.26009525 C183.326021,3.53019264 169.894971,10.7125126 161.653729,22.5700953 C160.743729,23.9000953 159.923729,25.2500953 159.163729,26.5700953 C158.823729,25.5700953 158.443729,24.5700953 158.013729,23.5200953 C155.326501,17.1188226 150.602309,11.7830164 144.573729,8.34009525 C138.809826,4.97074854 132.250163,3.203092 125.573729,3.22009525 L106.273729,3.22009525 C102.813004,3.25011092 99.409154,4.1036443 96.3437287,5.71009525 C93.0587239,7.38051729 90.2459799,9.8494051 88.1637287,12.8900953 C86.7837762,14.845994 85.7176077,17.0053227 85.0037287,19.2900953 L84.7037287,19.2900953 L84.6037287,20.0900953 C81.8282297,15.1915204 77.7828105,11.1322825 72.8937287,8.34009525 C67.1302043,4.9698449 60.5702906,3.20212082 53.8937287,3.22009525 L34.7137287,3.22009525 C31.2528079,3.24857565 27.8486025,4.10219813 24.7837287,5.71009525 C21.4935303,7.39040433 18.6775472,9.86943215 16.5937287,12.9200953 C14.5312844,15.8255444 13.1940485,19.1823493 12.6937287,22.7100953 L4.37372874,86.9200953 C3.88312511,90.3777903 4.3428909,93.9038137 5.70372874,97.1200953 C7.11274732,100.472203 9.568324,103.278576 12.7037287,105.120095 C15.67473,106.940831 19.0892183,107.90948 22.5737287,107.920095 L41.8737287,107.920095 C48.9120207,107.868426 55.832923,106.111608 62.0437287,102.800095 C67.3899835,100.032773 72.1135108,96.2008625 75.9237287,91.5400953 C76.1108786,93.4786391 76.593109,95.3772108 77.3537287,97.1700953 C78.7627473,100.522203 81.218324,103.328576 84.3537287,105.170095 C87.3366559,106.973313 90.7581405,107.921227 94.2437287,107.910095 C97.7829503,107.885201 101.262996,106.999746 104.383729,105.330095 C107.636566,103.644863 110.422494,101.181841 112.493729,98.1600953 C113.008662,97.4184383 113.479477,96.6471033 113.903729,95.8500953 L118.963729,101.660095 C121.25619,104.263898 124.242605,106.161191 127.573729,107.130095 C129.278341,107.633365 131.046376,107.889309 132.823729,107.890095 L132.823729,107.890095 C134.666028,107.879126 136.498713,107.623559 138.273729,107.130095 C141.682857,106.216097 144.832563,104.521418 147.473729,102.180095 C148.574484,101.227218 149.57928,100.168833 150.473729,99.0200953 C151.92439,101.558969 154.008976,103.678011 156.523729,105.170095 C159.506656,106.973313 162.92814,107.921227 166.413729,107.910095 C169.953105,107.886404 173.433434,107.000876 176.553729,105.330095 C179.806566,103.644863 182.592494,101.181841 184.663729,98.1600953 C185.659982,96.7279835 186.491884,95.1882926 187.143729,93.5700953 C187.399738,94.8002562 187.774839,96.0025879 188.263729,97.1600953 C189.677041,100.509518 192.131554,103.314677 195.263729,105.160095 C198.230103,106.96151 201.633217,107.916042 205.103729,107.920095 C208.665592,107.894104 212.167149,106.998117 215.303729,105.310095 C218.556566,103.624863 221.342494,101.161841 223.413729,98.1400953 C224.971942,95.9065431 226.113626,93.4097439 226.783729,90.7700953 C229.535002,95.7718146 233.606184,99.9225524 238.553729,102.770095 C244.260394,106.131532 250.76065,107.90935 257.383729,107.920095 C261.300947,107.907239 265.196495,107.338226 268.953729,106.230095 C271.421813,107.351798 274.102716,107.928226 276.813729,107.920095 C280.27465,107.891615 283.678855,107.037992 286.743729,105.430095 C290.023829,103.762413 292.840738,101.30964 294.943729,98.2900953 C297.034608,95.386224 298.371308,92.0083921 298.833729,88.4600953 L300.953729,72.1000953 C301.446442,68.6334671 300.990267,65.0981102 299.633729,61.8700953 C298.234679,58.5117713 295.776618,55.7025588 292.633729,53.8700953 L292.133729,53.5800953 L292.463729,53.4100953 C298.877412,49.9847351 303.274841,43.7079988 304.303729,36.5100953 C304.538664,34.8349591 304.538664,33.1352314 304.303729,31.4600953 C304.282443,31.2080799 304.245708,30.9576089 304.193729,30.7100953 L304.193729,30.7100953 Z M147.353729,69.8400953 C148.613163,68.6286008 149.795478,67.3394102 150.893729,65.9800953 L149.993729,72.9000953 L147.353729,69.8400953 Z M266.303729,53.6400953 C265.713729,53.9500953 265.133729,54.2800953 264.573729,54.6400953 L265.733729,45.8300953 C266.838268,48.2282871 268.505506,50.324342 270.593729,51.9400953 C269.113,52.3692788 267.676515,52.9385157 266.303729,53.6400953 Z" id="Shape" fill="#F4E94C"></path>
                <path d="M26.8937287,104.760095 C23.4081405,104.771227 19.9866559,103.823313 17.0037287,102.020095 C13.868324,100.178576 11.4127473,97.3722025 10.0037287,94.0200953 C8.63795952,90.8051537 8.178015,87.2777596 8.67372874,83.8200953 L16.9937287,19.5600953 C17.4958937,16.0297663 18.8328896,12.6701355 20.8937287,9.76009525 C22.9804492,6.72591281 25.7922848,4.26125988 29.0737287,2.59009525 C32.1427057,0.983548023 35.5498125,0.130057504 39.0137287,0.100095251 L58.3037287,0.100095251 C64.9787977,0.0834480471 71.5375249,1.84740045 77.3037287,5.21009525 C83.3334093,8.65914656 88.0600076,13.9972155 90.7537287,20.4000953 C93.4839708,26.7069555 94.4416949,33.6392182 93.5237287,40.4500953 L90.2337287,66.0000953 C88.1132929,80.3874453 79.2417845,92.893782 66.3637287,99.6500953 C60.1569273,102.962659 53.2389909,104.719595 46.2037287,104.770095 L26.8937287,104.760095 Z" id="Path" fill="#3A6BF9"></path>
                <path d="M98.5337287,104.760095 C95.0515343,104.769392 91.6337523,103.821546 88.6537287,102.020095 C85.518324,100.178576 83.0627473,97.3722025 81.6537287,94.0200953 C80.2845689,90.8060989 79.8211618,87.2786714 80.3137287,83.8200953 L88.6137287,19.8200953 L88.6137287,19.6700953 L88.6937287,19.1100953 L89.0737287,16.1700953 L89.3737287,16.1700953 C90.0892222,13.8828632 91.155233,11.7204806 92.5337287,9.76009525 C96.6622804,3.81130267 103.403579,0.215447023 110.643729,0.100095251 L129.943729,0.100095251 C136.618482,0.0858609433 143.176588,1.84964632 148.943729,5.21009525 C154.970626,8.65967938 159.693868,13.9979258 162.383729,20.4000953 C165.118408,26.7057126 166.076303,33.6392113 165.153729,40.4500953 C164.185154,47.3807008 161.583711,53.9819916 157.563729,59.7100953 C155.854412,62.2458695 153.879949,64.5924303 151.673729,66.7100953 L154.973729,70.5300953 C157.282007,73.1448841 158.785636,76.3709142 159.303729,79.8200953 C159.838765,83.3945609 159.382171,87.0473144 157.983729,90.3800953 C155.249269,97.0535134 149.570405,102.078403 142.613729,103.980095 C140.838306,104.470412 139.005598,104.72262 137.163729,104.730095 L137.163729,104.730095 C135.38685,104.732694 133.618805,104.480116 131.913729,103.980095 C128.581453,103.013739 125.594372,101.116023 123.303729,98.5100953 L118.243729,92.7000953 C117.817204,93.4958038 117.346467,94.2670105 116.833729,95.0100953 C114.762494,98.0318405 111.976566,100.494863 108.723729,102.180095 C105.587908,103.857243 102.089837,104.742918 98.5337287,104.760095 Z" id="Path" fill="#3A6BF9"></path>
                <path d="M209.423729,104.760095 C205.93814,104.771227 202.516656,103.823313 199.533729,102.020095 C196.398324,100.178576 193.942747,97.3722025 192.533729,94.0200953 C192.044839,92.8625879 191.669738,91.6602562 191.413729,90.4300953 C190.759685,92.0472586 189.927911,93.5867108 188.933729,95.0200953 C186.862494,98.0418405 184.076566,100.504863 180.823729,102.190095 C177.702996,103.859746 174.22295,104.745201 170.683729,104.770095 C167.19814,104.781227 163.776656,103.833313 160.793729,102.030095 C157.658324,100.188576 155.202747,97.3822025 153.793729,94.0300953 C152.424569,90.8160989 151.961162,87.2886714 152.453729,83.8300953 L158.323729,38.5500953 C159.356631,31.6650441 161.979275,25.1152831 165.983729,19.4200953 C174.224971,7.56251262 187.656021,0.380192642 202.093729,0.110095251 C208.768671,0.0944140329 215.32715,1.85829954 221.093729,5.22009525 C227.116153,8.65733371 231.8314,13.9914346 234.503729,20.3900953 C237.157209,26.5356826 238.153648,33.2694017 237.393729,39.9200953 L231.503729,85.3300953 C230.464415,92.5473115 226.022827,98.8265419 219.563729,102.210095 C216.440775,103.870446 212.960591,104.745641 209.423729,104.760095 Z" id="Path" fill="#3A6BF9"></path>
                <path d="M281.133729,104.760095 C278.422716,104.768226 275.741813,104.191798 273.273729,103.070095 C269.516495,104.178226 265.620947,104.747239 261.703729,104.760095 C255.066454,104.76735 248.547976,102.999628 242.823729,99.6400953 C236.804233,96.1757135 232.099851,90.8173601 229.443729,84.4000953 C226.792148,78.2717051 225.802249,71.5528069 226.573729,64.9200953 L230.013729,38.9200953 C230.944193,31.8787497 233.57306,25.1693042 237.673729,19.3700953 C241.831634,13.2578325 247.484193,8.3109825 254.093729,5.00009525 C260.194028,1.80811007 266.959446,0.0953461593 273.843729,9.52512719e-05 C280.500967,-0.014951462 287.040791,1.75294177 292.783729,5.12009525 C298.788525,8.56642163 303.50407,13.878871 306.213729,20.2500953 C306.731862,21.4257936 307.189134,22.6273834 307.583729,23.8500953 C308.030145,25.0244305 308.342133,26.2455447 308.513729,27.4900953 C308.571584,27.7339893 308.614993,27.9810857 308.643729,28.2300953 C308.873724,29.9089214 308.873724,31.6112691 308.643729,33.2900953 C307.586203,40.4732549 303.170715,46.7232687 296.753729,50.1200953 L296.433729,50.2900953 L296.933729,50.5800953 C300.079938,52.4085328 302.539111,55.2190153 303.933729,58.5800953 C305.331743,61.835424 305.805757,65.4130201 305.303729,68.9200953 L303.183729,85.2800953 C302.729169,88.8318101 301.395553,92.2139685 299.303729,95.1200953 C297.198578,98.140247 294.382409,100.59581 291.103729,102.270095 C288.026298,103.882716 284.608,104.736433 281.133729,104.760095 L281.133729,104.760095 Z M268.843729,51.5000953 C269.403729,51.1500953 269.973729,50.8200953 270.573729,50.5000953 C271.946148,49.7950825 273.382645,49.222493 274.863729,48.7900953 C272.772698,47.1771903 271.104861,45.0803825 270.003729,42.6800953 L268.843729,51.5000953 Z" id="Shape" fill="#3A6BF9"></path>
                <path d="M86.9737287,21.5800953 C84.7677919,16.2961151 80.87552,11.8904993 75.9037287,9.05009525 C71.0071605,6.18852554 65.4351293,4.68676993 59.7637287,4.70009525 L40.4637287,4.70009525 C37.8992673,4.72536705 35.3784542,5.36671676 33.1137287,6.57009525 C30.6600505,7.81247273 28.561353,9.65657415 27.0137287,11.9300953 C25.4590185,14.0868071 24.4502196,16.5882167 24.0737287,19.2200953 L15.7437287,83.5100953 C15.3911405,85.9607173 15.7162252,88.4611034 16.6837287,90.7400953 C17.6233068,92.9831159 19.2656059,94.8605305 21.3637287,96.0900953 C23.4718496,97.3737585 25.8955861,98.0454797 28.3637287,98.0300953 L47.6637287,98.0300953 C53.7916036,97.9812537 59.8153086,96.4401462 65.2137287,93.5400953 C76.4369376,87.6404957 84.1796729,76.7486768 86.0637287,64.2100953 L89.3037287,38.6500953 C90.106308,32.8540883 89.3002805,26.9489859 86.9737287,21.5800953 L86.9737287,21.5800953 Z M60.3037287,38.5800953 L57.0137287,64.1400953 C56.868203,65.0121514 56.5262457,65.8396883 56.0137287,66.5600953 C55.5032375,67.3085658 54.8163674,67.9198802 54.0137287,68.3400953 C53.2389846,68.7570144 52.3735238,68.976814 51.4937287,68.9800953 L47.6337287,68.9800953 C47.4619405,68.9795696 47.2931844,68.9347976 47.1437287,68.8500953 C47.001083,68.7722927 46.8884712,68.6491236 46.8237287,68.5000953 C46.7732741,68.3440729 46.7732741,68.1761176 46.8237287,68.0200953 L51.1437287,34.7100953 C51.1477242,34.5376712 51.2034707,34.3704318 51.3037287,34.2300953 C51.414318,34.07952 51.5580114,33.9563543 51.7237287,33.8700953 C51.8860483,33.7908321 52.0632053,33.7465429 52.2437287,33.7400953 L56.1137287,33.7400953 C56.9172982,33.7394683 57.7069517,33.9498127 58.4037287,34.3500953 C59.1097922,34.7589282 59.6668499,35.3825525 59.9937287,36.1300953 C60.3310188,36.8998194 60.438671,37.7506192 60.3037287,38.5800953 Z" id="Shape" fill="#FFFFFF"></path>
                <path d="M152.133729,73.1800953 L145.133729,65.0500953 L145.073729,64.9800953 C148.731568,62.3954214 151.880979,59.1578667 154.363729,55.4300953 C157.881457,50.4442058 160.161027,44.6921485 161.013729,38.6500953 C161.806371,32.8513387 160.98997,26.9462704 158.653729,21.5800953 C156.454276,16.2920568 152.560347,11.8845647 147.583729,9.05009525 C142.691221,6.18753708 137.122121,4.68564091 131.453729,4.70009525 L112.153729,4.70009525 C109.585878,4.72376599 107.061449,5.36516313 104.793729,6.57009525 C102.34201,7.8153666 100.243971,9.65888921 98.6937287,11.9300953 C97.1473138,14.0913722 96.139361,16.5906837 95.7537287,19.2200953 C95.7537287,19.7400953 95.6737287,20.2200953 95.6237287,20.7700953 L95.5637287,20.7700953 L87.4337287,83.5100953 C87.0728099,85.9597605 87.3946121,88.4615134 88.3637287,90.7400953 C89.3033068,92.9831159 90.9456059,94.8605305 93.0437287,96.0900953 C95.1524819,97.3722977 97.5757959,98.0439018 100.043729,98.0300953 C102.671145,98.0067488 105.25292,97.3407057 107.563729,96.0900953 C112.385113,93.5689646 115.708505,88.8924246 116.503729,83.5100953 L116.953729,79.8300953 L129.023729,93.7000953 C130.620968,95.5080979 132.703321,96.8199802 135.023729,97.4800953 C137.502541,98.1998313 140.134916,98.1998313 142.613729,97.4800953 C145.210391,96.8002504 147.609166,95.5151923 149.613729,93.7300953 C151.652742,91.9547254 153.245626,89.7246874 154.263729,87.2200953 C155.290189,84.8411766 155.636366,82.2240797 155.263729,79.6600953 C154.884472,77.2379991 153.795183,74.9828584 152.133729,73.1800953 L152.133729,73.1800953 Z M131.923729,38.5800953 C131.83189,39.4544985 131.511106,40.2892256 130.993729,41.0000953 C130.476981,41.7430414 129.791606,42.3530251 128.993729,42.7800953 C128.223028,43.1981391 127.360505,43.4180653 126.483729,43.4200953 L122.603729,43.4200953 C122.445417,43.4233085 122.28942,43.3817095 122.153729,43.3000953 C122.026017,43.2088119 121.925727,43.0843138 121.863729,42.9400953 C121.800016,42.7879595 121.766069,42.6250169 121.763729,42.4600953 L122.763729,34.7100953 C122.762997,34.5368812 122.819215,34.3682277 122.923729,34.2300953 C123.028107,34.1021063 123.157385,33.9966426 123.303729,33.9200953 C123.462014,33.8395564 123.636203,33.7951552 123.813729,33.7900953 L127.693729,33.7900953 C128.497116,33.7908621 129.286417,34.0011126 129.983729,34.4000953 C130.689246,34.8066874 131.243701,35.4313273 131.563729,36.1800953 C131.908444,36.9299034 132.033281,37.762147 131.923729,38.5800953 Z" id="Shape" fill="#FFFFFF"></path>
                <path d="M219.703729,9.05009525 C214.811221,6.18753708 209.242121,4.68564091 203.573729,4.70009525 C191.003742,4.96262141 179.317688,11.2219455 172.133729,21.5400953 C168.634304,26.4973563 166.337004,32.2012337 165.423729,38.2000953 L159.553729,83.5100953 C159.197478,85.9598012 159.519118,88.4602927 160.483729,90.7400953 C161.423307,92.9831159 163.065606,94.8605305 165.163729,96.0900953 C167.272482,97.3722977 169.695796,98.0439018 172.163729,98.0300953 C174.791145,98.0067488 177.37292,97.3407057 179.683729,96.0900953 C184.505113,93.5689646 187.828505,88.8924246 188.623729,83.5100953 L189.983729,73.1100953 C189.982997,72.9368812 190.039215,72.7682277 190.143729,72.6300953 C190.252043,72.4799422 190.396505,72.3595573 190.563729,72.2800953 C190.723384,72.1937544 190.902225,72.1490441 191.083729,72.1500953 L198.823729,72.1500953 C198.983589,72.1456466 199.140868,72.1910828 199.273729,72.2800953 C199.405651,72.3623885 199.507389,72.485176 199.563729,72.6300953 C199.632105,72.7807457 199.666256,72.9446733 199.663729,73.1100953 L198.303729,83.5100953 C197.95114,85.9607173 198.276225,88.4611034 199.243729,90.7400953 C200.183307,92.9831159 201.825606,94.8605305 203.923729,96.0900953 C206.03185,97.3737585 208.455586,98.0454797 210.923729,98.0300953 C213.551145,98.0067488 216.13292,97.3407057 218.443729,96.0900953 C223.234364,93.549782 226.525735,88.8764818 227.303729,83.5100953 L233.173729,38.2000953 C233.836327,32.5279387 232.991241,26.7813532 230.723729,21.5400953 C228.536865,16.2700533 224.660315,11.8763948 219.703729,9.05009525 L219.703729,9.05009525 Z M204.083729,38.5800953 L202.793729,48.5800953 C202.751398,48.7476315 202.687532,48.9089752 202.603729,49.0600953 C202.508528,49.2130335 202.373782,49.3374146 202.213729,49.4200953 C202.055443,49.5006341 201.881254,49.5450353 201.703729,49.5500953 L193.953729,49.5500953 C193.794514,49.5497624 193.638593,49.5047186 193.503729,49.4200953 C193.369324,49.3279601 193.259471,49.2043753 193.183729,49.0600953 C193.096176,48.9162417 193.070906,48.742962 193.113729,48.5800953 L194.403729,38.5800953 C194.546725,37.7296297 194.86699,36.9187463 195.343729,36.2000953 C195.831988,35.424931 196.523833,34.7988113 197.343729,34.3900953 C198.129328,33.9721334 199.003911,33.7492005 199.893729,33.7400953 C200.713276,33.7306965 201.518364,33.95626 202.213729,34.3900953 C202.896151,34.8113707 203.436183,35.4280523 203.763729,36.1600953 C204.105318,36.9179514 204.216597,37.7595009 204.083729,38.5800953 L204.083729,38.5800953 Z" id="Shape" fill="#FFFFFF"></path>
                <path d="M304.393729,27.8000953 C304.297372,26.7720014 304.058414,25.762318 303.683729,24.8000953 C303.333729,23.7300953 302.923729,22.6500953 302.453729,21.5700953 C300.224507,16.310969 296.337039,11.9248378 291.383729,9.08009525 C286.503038,6.21545326 280.942972,4.71319952 275.283729,4.73009525 C269.285072,4.80859536 263.389233,6.29882778 258.073729,9.08009525 C252.315997,11.9641424 247.395478,16.2786354 243.783729,21.6100953 C240.186819,26.6668579 237.883049,32.5275665 237.073729,38.6800953 L233.643729,64.5600953 C232.985817,70.2102791 233.834535,75.9339487 236.103729,81.1500953 C238.273577,86.4397702 242.144081,90.8556626 247.103729,93.7000953 C251.95037,96.5600622 257.47618,98.0658454 263.103729,98.0600953 C267.232833,98.0418707 271.328454,97.3181193 275.213729,95.9200953 L275.733729,96.1800953 C277.800088,97.416576 280.165711,98.0633179 282.573729,98.0500953 C285.141023,98.0221478 287.664456,97.3810037 289.933729,96.1800953 C292.38662,94.9245219 294.492092,93.0835215 296.063729,90.8200953 C297.627556,88.6723554 298.624932,86.1651588 298.963729,83.5300953 L301.093729,67.1300953 C301.454026,64.6705887 301.132341,62.1593696 300.163729,59.8700953 C299.236106,57.6170812 297.591087,55.7330422 295.483729,54.5100953 C293.365422,53.2547497 290.946039,52.5980601 288.483729,52.6100953 L282.093729,52.6100953 C276.68136,52.7134541 271.649536,55.4154541 268.573729,59.8700953 C267.057255,62.0295445 266.073751,64.5174345 265.703729,67.1300953 C265.703729,67.6900953 265.613729,68.2500953 265.573729,68.8100953 C265.281452,68.6842346 265.000434,68.5336896 264.733729,68.3600953 C264.016965,67.9863589 263.456808,67.3694763 263.153729,66.6200953 C262.833836,65.8420178 262.710205,64.9972092 262.793729,64.1600953 L266.153729,38.6700953 C266.242927,37.7627228 266.566892,36.8942217 267.093729,36.1500953 C267.598755,35.3968403 268.286972,34.7843269 269.093729,34.3700953 C269.852559,33.9808981 270.690997,33.7721441 271.543729,33.7600953 C272.359502,33.7629777 273.161197,33.9728636 273.873729,34.3700953 C274.589976,34.7721941 275.155303,35.397214 275.483729,36.1500953 C275.483729,36.2800953 275.573729,36.4100953 275.613729,36.5400953 C275.797223,37.3164081 276.055081,38.0732375 276.383729,38.8000953 C277.308679,41.0522045 278.954653,42.9338197 281.063729,44.1500953 C283.173944,45.4289155 285.596284,46.1002497 288.063729,46.0900953 C290.679203,46.0725164 293.249403,45.4059137 295.543729,44.1500953 C300.343722,41.6105133 303.65108,36.9408653 304.453729,31.5700953 C304.623745,30.3694173 304.623745,29.1507732 304.453729,27.9500953 C304.453475,27.8942955 304.432028,27.8406768 304.393729,27.8000953 L304.393729,27.8000953 Z" id="Path" fill="#FFFFFF"></path>
                <path d="M44.1837287,68.2600953 C44.1788376,68.0186681 44.1989447,67.7773828 44.2437287,67.5400953 L48.5337287,34.4600953 C48.5835923,33.7829038 48.8188472,33.132493 49.2137287,32.5800953 C49.5897173,32.059438 50.0830317,31.6346395 50.6537287,31.3400953 C51.2110791,31.0558839 51.8280987,30.9084848 52.4537287,30.9100953 L56.3037287,30.9100953 C57.6039242,30.9093761 58.8809133,31.2545083 60.0037287,31.9100953 C60.6505774,32.2823898 61.2289284,32.7626579 61.7137287,33.3300953 C61.6153242,32.9367629 61.4848887,32.5521453 61.3237287,32.1800953 C60.7623461,30.8811185 59.7935914,29.8000445 58.5637287,29.1000953 C57.4414774,28.4431612 56.1641156,28.0979283 54.8637287,28.1000953 L51.0137287,28.1000953 C49.7316655,28.1181284 48.5322572,28.7363419 47.7737287,29.7700953 C47.3789636,30.3263037 47.143816,30.9798757 47.0937287,31.6600953 L42.8037287,64.7300953 C42.6646189,65.4297043 42.74134,66.1550678 43.0237287,66.8100953 C43.2757248,67.3872883 43.6759297,67.8875446 44.1837287,68.2600953 Z" id="Path" fill="#D3ECF0"></path>
                <path d="M84.6137287,22.7000953 C84.1828211,21.7092772 83.6884619,20.7472807 83.1337287,19.8200953 C83.1356311,19.8433898 83.1356311,19.8668007 83.1337287,19.8900953 C85.2626964,24.7888206 86.0130361,30.1760517 85.3037287,35.4700953 L82.0037287,61.0400953 C80.2429661,72.6531048 73.0728444,82.7402637 62.6837287,88.2200953 C57.6824536,90.8998234 52.1073644,92.3304771 46.4337287,92.3900953 L27.1337287,92.3900953 C25.1889208,92.4041276 23.2794361,91.8704422 21.6237287,90.8500953 C20.6881323,90.2970964 19.8694888,89.5667712 19.2137287,88.7000953 C19.3137287,89.0100953 19.4037287,89.3200953 19.5337287,89.6300953 C20.2438583,91.3119787 21.4832035,92.716336 23.0637287,93.6300953 C24.7222015,94.6429734 26.6304605,95.172853 28.5737287,95.1600953 L47.8737287,95.1600953 C53.546583,95.1039511 59.1217167,93.6767169 64.1237287,91.0000953 C74.5205284,85.5250337 81.698642,75.4370747 83.4637287,63.8200953 L86.7637287,38.2500953 C87.4747746,32.9676903 86.7314273,27.5913876 84.6137287,22.7000953 L84.6137287,22.7000953 Z" id="Path" fill="#D3ECF0"></path>
                <path d="M119.163729,42.7000953 C119.158924,42.6201674 119.158924,42.5400231 119.163729,42.4600953 L119.163729,42.2700953 L120.163729,34.4600953 C120.211289,33.7807813 120.450547,33.1288886 120.853729,32.5800953 C121.606821,31.5360186 122.81639,30.9182081 124.103729,30.9200953 L127.973729,30.9200953 C129.277062,30.9195208 130.557238,31.2645817 131.683729,31.9200953 C132.327466,32.2926782 132.90248,32.772984 133.383729,33.3400953 C133.28576,32.9478676 133.158743,32.5634731 133.003729,32.1900953 C132.436259,30.8950246 131.469044,29.8156678 130.243729,29.1100953 C129.117238,28.4545817 127.837062,28.1095208 126.533729,28.1100953 L122.663729,28.1100953 C122.03756,28.1138496 121.421018,28.2645598 120.863729,28.5500953 C120.289961,28.835556 119.79538,29.2580106 119.423729,29.7800953 C119.024599,30.3302512 118.788893,30.9819094 118.743729,31.6600953 L117.693729,39.4700953 L117.693729,39.6600953 C117.692486,40.2104516 117.804829,40.7551434 118.023729,41.2600953 C118.272836,41.8305855 118.665619,42.3267319 119.163729,42.7000953 L119.163729,42.7000953 Z" id="Path" fill="#D3ECF0"></path>
                <path d="M156.303729,22.7000953 C155.870106,21.7091088 155.379279,20.7441499 154.833729,19.8100953 L154.833729,19.8900953 C156.960848,24.7893274 157.704453,30.177868 156.983729,35.4700953 C156.185488,41.068364 154.070962,46.3975167 150.813729,51.0200953 C148.513113,54.4689655 145.597985,57.465446 142.213729,59.8600953 L139.473729,61.8000953 L141.713729,64.0400953 L143.653729,62.6700953 C147.03499,60.2751955 149.94679,57.2786523 152.243729,53.8300953 C155.50654,49.2095487 157.62472,43.879825 158.423729,38.2800953 C159.149765,32.9906063 158.416701,27.603275 156.303729,22.7000953 L156.303729,22.7000953 Z" id="Path" fill="#D3ECF0"></path>
                <path d="M150.733729,75.6900953 C150.890951,76.2048585 151.014545,76.7292975 151.103729,77.2600953 C151.408099,79.311893 151.130938,81.4079278 150.303729,83.3100953 C148.572813,87.5366596 144.972114,90.7159213 140.563729,91.9100953 C139.521686,92.2010917 138.445613,92.3524144 137.363729,92.3600953 C136.409619,92.3597027 135.460312,92.2250491 134.543729,91.9600953 C132.739802,91.4490401 131.121714,90.4281868 129.883729,89.0200953 L113.653729,70.3600953 L112.423729,80.3600953 C111.738286,84.8146153 108.981731,88.6804714 104.993729,90.7800953 C103.088523,91.8227511 100.95548,92.379197 98.7837287,92.4000953 C96.8387044,92.4157523 94.9287788,91.8819437 93.2737287,90.8600953 C92.3370772,90.3046657 91.5155859,89.5748283 90.8537287,88.7100953 C90.9458796,89.0261425 91.0560601,89.3366511 91.1837287,89.6400953 C91.8868492,91.3232471 93.1236322,92.7286824 94.7037287,93.6400953 C96.3653081,94.6542772 98.2771387,95.1841868 100.223729,95.1700953 C102.391674,95.153929 104.521827,94.6007765 106.423729,93.5600953 C110.417736,91.4653365 113.179173,87.5978404 113.863729,83.1400953 L115.093729,73.1400953 L131.303729,91.8300953 C132.540317,93.2328987 134.154595,94.2500675 135.953729,94.7600953 C136.87234,95.0325835 137.825555,95.1706817 138.783729,95.1700953 C139.86641,95.1637939 140.943111,95.0090182 141.983729,94.7100953 C146.389253,93.5166467 149.989012,90.34191 151.723729,86.1200953 C152.550417,84.2177834 152.827559,82.1218973 152.523729,80.0700953 C152.296555,78.4850487 151.681709,76.9805657 150.733729,75.6900953 Z" id="Path" fill="#D3ECF0"></path>
                <path d="M201.243729,70.0600953 C201.230916,69.595059 201.129079,69.1367898 200.943729,68.7100953 C200.674873,68.061629 200.218779,67.5080491 199.633729,67.1200953 C199.042434,66.721464 198.346823,66.5058245 197.633729,66.5000953 L189.893729,66.5000953 C189.26756,66.5038496 188.651018,66.6545598 188.093729,66.9400953 C187.519961,67.225556 187.02538,67.6480106 186.653729,68.1700953 C186.254766,68.7241022 186.019178,69.3788982 185.973729,70.0600953 L184.633729,80.3300953 C183.947482,84.7921531 181.187456,88.6650923 177.193729,90.7700953 C175.288523,91.8127511 173.15548,92.369197 170.983729,92.3900953 C169.038704,92.4057523 167.128779,91.8719437 165.473729,90.8500953 C164.537077,90.2946657 163.715586,89.5648283 163.053729,88.7000953 C163.153729,89.0100953 163.253729,89.3200953 163.383729,89.6300953 C164.087512,91.3159597 165.328464,92.7221376 166.913729,93.6300953 C168.57156,94.6444507 170.480249,95.1744495 172.423729,95.1600953 C174.591674,95.143929 176.721827,94.5907765 178.623729,93.5500953 C182.623962,91.4525424 185.386647,87.5758709 186.063729,83.1100953 L187.373729,72.9200953 C187.414285,72.237885 187.650349,71.5817657 188.053729,71.0300953 C188.802599,69.9850975 190.008111,69.3637382 191.293729,69.3600953 L199.033729,69.3600953 C199.745618,69.3640366 200.440815,69.5760718 201.033729,69.9700953 L201.243729,70.0600953 Z" id="Path" fill="#D3ECF0"></path>
                <path d="M190.503729,48.7900953 C190.503399,48.5654058 190.523481,48.3411509 190.563729,48.1200953 L191.843729,38.1200953 C192.054951,36.8841781 192.514173,35.703808 193.193729,34.6500953 C193.969404,33.4799203 195.042902,32.5375891 196.303729,31.9200953 C197.48405,31.2811925 198.801703,30.9380536 200.143729,30.9200953 C201.495673,30.9090551 202.823265,31.2799487 203.973729,31.9900953 C204.572397,32.3684496 205.10877,32.8373545 205.563729,33.3800953 C205.466246,32.9709928 205.328923,32.5724231 205.153729,32.1900953 C204.600975,30.9500012 203.688126,29.9047544 202.533729,29.1900953 C201.386567,28.471341 200.057392,28.0965345 198.703729,28.1100953 C197.361703,28.1280536 196.04405,28.4711925 194.863729,29.1100953 C193.597882,29.7483732 192.527113,30.7155193 191.763729,31.9100953 C191.082904,32.9621596 190.626708,34.1435024 190.423729,35.3800953 L189.133729,45.3800953 C188.981008,46.1969293 189.126492,47.0414472 189.543729,47.7600953 C189.798589,48.1588282 190.123889,48.5078484 190.503729,48.7900953 Z" id="Path" fill="#D3ECF0"></path>
                <path d="M228.383729,22.6600953 C227.946116,21.6527268 227.445113,20.6740994 226.883729,19.7300953 L226.943729,19.8500953 C229.006909,24.6407062 229.779207,29.8881969 229.183729,35.0700953 L223.303729,80.3400953 C222.623673,84.8021667 219.86139,88.6745609 215.863729,90.7700953 C213.959448,91.8150789 211.82581,92.3716801 209.653729,92.3900953 C207.708921,92.4041276 205.799436,91.8704422 204.143729,90.8500953 C203.21008,90.2944352 202.391911,89.5645334 201.733729,88.7000953 C201.833729,89.0100953 201.923729,89.3200953 202.053729,89.6300953 C202.763858,91.3119787 204.003204,92.716336 205.583729,93.6300953 C207.242202,94.6429734 209.15046,95.172853 211.093729,95.1600953 C213.26501,95.1451638 215.398696,94.5919859 217.303729,93.5500953 C221.303962,91.4525424 224.066647,87.5758709 224.743729,83.1100953 L230.623729,37.9200953 C231.227736,32.7250156 230.455247,27.4624371 228.383729,22.6600953 Z" id="Path" fill="#D3ECF0"></path>
                <path d="M260.393729,66.6300953 C260.154073,65.6967954 260.086302,64.7276666 260.193729,63.7700953 L263.543729,38.3200953 C263.685423,36.9500185 264.174154,35.6387046 264.963729,34.5100953 C266.522749,32.2796514 269.062591,30.9389726 271.783729,30.9100953 C273.082918,30.9168882 274.357998,31.2615045 275.483729,31.9100953 C276.147942,32.2824792 276.743262,32.7661773 277.243729,33.3400953 L277.153729,33.0600953 L277.153729,32.9400953 L276.943729,32.3300953 L276.883729,32.2000953 C276.313039,30.8829364 275.321144,29.7925557 274.063729,29.1000953 C272.936597,28.454888 271.662424,28.1105169 270.363729,28.1000953 C269.069883,28.1104008 267.796226,28.4219674 266.643729,29.0100953 C264.131439,30.2741704 262.430163,32.7244583 262.123729,35.5200953 L258.773729,60.9700953 C258.603042,62.3104512 258.78575,63.6721426 259.303729,64.9200953 C259.572184,65.5452972 259.9403,66.1228006 260.393729,66.6300953 L260.393729,66.6300953 Z" id="Path" fill="#D3ECF0"></path>
                <path d="M301.973729,29.1500953 L301.893729,29.0700953 L301.803729,28.0700953 C301.739173,27.3022828 301.564031,26.5478238 301.283729,25.8300953 L301.223729,25.6700953 C300.902664,24.6500252 300.525421,23.6484954 300.093729,22.6700953 C299.682864,21.7192738 299.208458,20.7971893 298.673729,19.9100953 C299.097432,20.85875 299.468005,21.8302525 299.783729,22.8200953 L299.843729,22.9900953 C300.124977,23.7075306 300.300151,24.4621292 300.363729,25.2300953 L300.453729,26.2300953 L300.533729,26.3100953 C300.569967,26.9777947 300.543182,27.6474235 300.453729,28.3100953 C299.765645,32.7707068 297.016289,36.6464837 293.033729,38.7700953 C291.141681,39.8083187 289.021831,40.3614725 286.863729,40.3800953 C284.911169,40.4158962 282.986798,39.9105758 281.303729,38.9200953 C280.343979,38.3514268 279.507592,37.5966382 278.843729,36.7000953 C278.938311,37.010108 279.051858,37.3140143 279.183729,37.6100953 L279.233729,37.7200953 C279.926506,39.4065639 281.161577,40.8140521 282.743729,41.7200953 C284.420485,42.7342498 286.344144,43.2670617 288.303729,43.2600953 C290.461831,43.2414725 292.581681,42.6883187 294.473729,41.6500953 C296.479127,40.5933629 298.195658,39.0622171 299.473729,37.1900953 C300.739232,35.4102632 301.558873,33.3525854 301.863729,31.1900953 C301.971367,30.5157846 302.008234,29.8320705 301.973729,29.1500953 L301.973729,29.1500953 Z" id="Path" fill="#D3ECF0"></path>
                <path d="M296.663729,59.0500953 C297.17884,60.6189303 297.325971,62.2852721 297.093729,63.9200953 L294.963729,80.3300953 C294.681074,82.5018113 293.851854,84.5662601 292.553729,86.3300953 C291.253617,88.2200102 289.500076,89.7534986 287.453729,90.7900953 C285.58072,91.7894057 283.496399,92.3276269 281.373729,92.3600953 C279.475126,92.3719718 277.610046,91.8598531 275.983729,90.8800953 L275.893729,90.8300953 L274.223729,89.9900953 L273.083729,90.3900953 C269.512316,91.6768669 265.749699,92.3529885 261.953729,92.3900953 C256.810657,92.3860917 251.762485,91.0049227 247.333729,88.3900953 C243.915866,86.4458693 241.067761,83.6391411 239.073729,80.2500953 C241.012753,84.8688445 244.422596,88.7181004 248.773729,91.2000953 C253.199179,93.8141056 258.24392,95.1952803 263.383729,95.2000953 C267.180311,95.1695258 270.944018,94.4932083 274.513729,93.2000953 L275.663729,92.8000953 L277.333729,93.6500953 L277.423729,93.7000953 C279.05086,94.6768297 280.916012,95.1855074 282.813729,95.1700953 C284.932441,95.1410455 287.01355,94.6061972 288.883729,93.6100953 C290.933723,92.5789098 292.688493,91.0443456 293.983729,89.1500953 C295.283124,87.3859837 296.115568,85.3220715 296.403729,83.1500953 L298.533729,66.7400953 C298.821309,64.782019 298.565324,62.7825678 297.793729,60.9600953 C297.501945,60.2768858 297.122057,59.6347734 296.663729,59.0500953 Z" id="Path" fill="#D3ECF0"></path>
            </g>
        </g>
    </g>
</svg>